<svg xmlns="http://www.w3.org/2000/svg" viewBox="465.6 190.4 557.60 382.40" width="525.60" height="350.40"><g id="d8e14fd2-fe6f-46d5-09ab-d4f2fa250920_svg" class="tl-centered-g" transform="translate(557.6, 206.4) rotate(0, 0.8, 155.6)"><g pointer-events="none" opacity="1"><path d="M 0.55,311.20 Q 0.55,311.20 0.38,272.55 0.21,233.90 0.04,195.25 -0.13,156.60 -0.31,117.95 -0.50,79.30 -0.69,40.65 -0.87,2.00 -0.85,1.86 -0.83,1.72 -0.76,1.59 -0.69,1.46 -0.59,1.36 -0.49,1.26 -0.36,1.20 -0.23,1.14 -0.08,1.12 0.05,1.11 0.19,1.14 0.33,1.17 0.45,1.24 0.58,1.32 0.67,1.42 0.76,1.53 0.82,1.67 0.87,1.80 0.88,1.94 0.89,2.09 0.85,2.23 0.81,2.36 0.73,2.48 0.65,2.60 0.54,2.69 0.43,2.78 0.29,2.82 0.15,2.87 0.01,2.87 -0.12,2.87 -0.26,2.83 -0.40,2.78 -0.51,2.70 -0.63,2.61 -0.71,2.49 -0.79,2.37 -0.83,2.23 -0.87,2.10 -0.86,1.95 -0.85,1.81 -0.80,1.67 -0.75,1.54 -0.66,1.43 -0.56,1.32 -0.44,1.25 -0.32,1.17 -0.18,1.14 -0.04,1.11 0.10,1.12 0.24,1.14 0.37,1.20 0.50,1.26 0.60,1.36 0.71,1.45 0.78,1.58 0.85,1.71 0.87,1.85 0.89,1.99 0.89,1.99 0.89,1.99 1.10,40.64 1.31,79.29 1.53,117.94 1.74,156.59 1.96,195.24 2.18,233.89 2.41,272.54 2.64,311.19 2.62,311.31 2.61,311.44 2.56,311.56 2.52,311.67 2.45,311.78 2.38,311.88 2.28,311.97 2.19,312.05 2.08,312.11 1.97,312.17 1.85,312.20 1.73,312.23 1.60,312.23 1.47,312.23 1.35,312.20 1.23,312.17 1.12,312.11 1.01,312.05 0.91,311.97 0.82,311.89 0.75,311.79 0.68,311.68 0.63,311.57 0.59,311.45 0.57,311.32 Z" fill="none" stroke-width="8" stroke-dasharray="none" stroke-dashoffset="none" stroke-linecap="round" stroke-linejoin="round" pointer-events="stroke"/><path d="M 0.55,311.20 Q 0.55,311.20 0.38,272.55 0.21,233.90 0.04,195.25 -0.13,156.60 -0.31,117.95 -0.50,79.30 -0.69,40.65 -0.87,2.00 -0.85,1.86 -0.83,1.72 -0.76,1.59 -0.69,1.46 -0.59,1.36 -0.49,1.26 -0.36,1.20 -0.23,1.14 -0.08,1.12 0.05,1.11 0.19,1.14 0.33,1.17 0.45,1.24 0.58,1.32 0.67,1.42 0.76,1.53 0.82,1.67 0.87,1.80 0.88,1.94 0.89,2.09 0.85,2.23 0.81,2.36 0.73,2.48 0.65,2.60 0.54,2.69 0.43,2.78 0.29,2.82 0.15,2.87 0.01,2.87 -0.12,2.87 -0.26,2.83 -0.40,2.78 -0.51,2.70 -0.63,2.61 -0.71,2.49 -0.79,2.37 -0.83,2.23 -0.87,2.10 -0.86,1.95 -0.85,1.81 -0.80,1.67 -0.75,1.54 -0.66,1.43 -0.56,1.32 -0.44,1.25 -0.32,1.17 -0.18,1.14 -0.04,1.11 0.10,1.12 0.24,1.14 0.37,1.20 0.50,1.26 0.60,1.36 0.71,1.45 0.78,1.58 0.85,1.71 0.87,1.85 0.89,1.99 0.89,1.99 0.89,1.99 1.10,40.64 1.31,79.29 1.53,117.94 1.74,156.59 1.96,195.24 2.18,233.89 2.41,272.54 2.64,311.19 2.62,311.31 2.61,311.44 2.56,311.56 2.52,311.67 2.45,311.78 2.38,311.88 2.28,311.97 2.19,312.05 2.08,312.11 1.97,312.17 1.85,312.20 1.73,312.23 1.60,312.23 1.47,312.23 1.35,312.20 1.23,312.17 1.12,312.11 1.01,312.05 0.91,311.97 0.82,311.89 0.75,311.79 0.68,311.68 0.63,311.57 0.59,311.45 0.57,311.32 Z" fill="#cecece" stroke="#cecece" stroke-width="2.11" stroke-dasharray="none" stroke-dashoffset="none" stroke-linecap="round" stroke-linejoin="round" pointer-events="stroke"/><path d="M -7.928654043856402,13.897353886723888 L 0,0 8.07,13.815092763159807" fill="none" stroke="#cecece" stroke-width="4.23" stroke-dashoffset="none" stroke-dasharray="none" stroke-linecap="round" stroke-linejoin="round" pointer-events="stroke"/></g></g><g id="b69adb3a-9771-4dff-3339-662e442bda99_svg" class="tl-centered-g" transform="translate(563.2, 519.2) rotate(0, 170.4, 1.6)"><g pointer-events="none" opacity="1"><path d="M -0.00,2.24 Q -0.00,2.24 42.34,1.87 84.69,1.51 127.04,1.14 169.39,0.77 211.74,0.39 254.09,0.01 296.44,-0.37 338.79,-0.75 338.91,-0.73 339.04,-0.71 339.15,-0.65 339.26,-0.60 339.34,-0.51 339.43,-0.42 339.49,-0.30 339.54,-0.19 339.55,-0.07 339.57,0.05 339.54,0.17 339.52,0.29 339.45,0.40 339.39,0.51 339.29,0.59 339.20,0.67 339.08,0.72 338.97,0.77 338.84,0.78 338.72,0.78 338.60,0.75 338.48,0.72 338.37,0.65 338.27,0.58 338.19,0.48 338.11,0.38 338.07,0.26 338.03,0.15 338.03,0.02 338.03,-0.09 338.07,-0.21 338.11,-0.33 338.18,-0.43 338.26,-0.53 338.36,-0.60 338.46,-0.68 338.58,-0.71 338.70,-0.74 338.83,-0.74 338.95,-0.73 339.07,-0.69 339.19,-0.64 339.28,-0.56 339.38,-0.48 339.45,-0.38 339.51,-0.27 339.54,-0.15 339.57,-0.03 339.56,0.09 339.54,0.21 339.49,0.33 339.44,0.44 339.35,0.53 339.27,0.63 339.16,0.69 339.05,0.74 338.93,0.77 338.80,0.79 338.80,0.79 338.80,0.79 296.45,1.20 254.10,1.61 211.75,2.03 169.40,2.44 127.05,2.87 84.70,3.29 42.35,3.72 0.00,4.15 -0.10,4.14 -0.22,4.13 -0.32,4.09 -0.43,4.05 -0.53,3.98 -0.62,3.92 -0.70,3.83 -0.78,3.75 -0.83,3.65 -0.89,3.54 -0.92,3.43 -0.95,3.32 -0.95,3.20 -0.95,3.09 -0.92,2.98 -0.89,2.86 -0.84,2.76 -0.79,2.66 -0.71,2.57 -0.64,2.48 -0.54,2.42 -0.45,2.35 -0.34,2.31 -0.23,2.27 -0.12,2.25 Z" fill="none" stroke-width="8" stroke-dasharray="none" stroke-dashoffset="none" stroke-linecap="round" stroke-linejoin="round" pointer-events="stroke"/><path d="M -0.00,2.24 Q -0.00,2.24 42.34,1.87 84.69,1.51 127.04,1.14 169.39,0.77 211.74,0.39 254.09,0.01 296.44,-0.37 338.79,-0.75 338.91,-0.73 339.04,-0.71 339.15,-0.65 339.26,-0.60 339.34,-0.51 339.43,-0.42 339.49,-0.30 339.54,-0.19 339.55,-0.07 339.57,0.05 339.54,0.17 339.52,0.29 339.45,0.40 339.39,0.51 339.29,0.59 339.20,0.67 339.08,0.72 338.97,0.77 338.84,0.78 338.72,0.78 338.60,0.75 338.48,0.72 338.37,0.65 338.27,0.58 338.19,0.48 338.11,0.38 338.07,0.26 338.03,0.15 338.03,0.02 338.03,-0.09 338.07,-0.21 338.11,-0.33 338.18,-0.43 338.26,-0.53 338.36,-0.60 338.46,-0.68 338.58,-0.71 338.70,-0.74 338.83,-0.74 338.95,-0.73 339.07,-0.69 339.19,-0.64 339.28,-0.56 339.38,-0.48 339.45,-0.38 339.51,-0.27 339.54,-0.15 339.57,-0.03 339.56,0.09 339.54,0.21 339.49,0.33 339.44,0.44 339.35,0.53 339.27,0.63 339.16,0.69 339.05,0.74 338.93,0.77 338.80,0.79 338.80,0.79 338.80,0.79 296.45,1.20 254.10,1.61 211.75,2.03 169.40,2.44 127.05,2.87 84.70,3.29 42.35,3.72 0.00,4.15 -0.10,4.14 -0.22,4.13 -0.32,4.09 -0.43,4.05 -0.53,3.98 -0.62,3.92 -0.70,3.83 -0.78,3.75 -0.83,3.65 -0.89,3.54 -0.92,3.43 -0.95,3.32 -0.95,3.20 -0.95,3.09 -0.92,2.98 -0.89,2.86 -0.84,2.76 -0.79,2.66 -0.71,2.57 -0.64,2.48 -0.54,2.42 -0.45,2.35 -0.34,2.31 -0.23,2.27 -0.12,2.25 Z" fill="#cecece" stroke="#cecece" stroke-width="2.11" stroke-dasharray="none" stroke-dashoffset="none" stroke-linecap="round" stroke-linejoin="round" pointer-events="stroke"/><path d="M 326.86,-7.869545991816414 L 340.8,0 327.01,8.129748727393313" fill="none" stroke="#cecece" stroke-width="4.23" stroke-dashoffset="none" stroke-dasharray="none" stroke-linecap="round" stroke-linejoin="round" pointer-events="stroke"/></g></g><g id="b2961a46-12c7-48ec-20ca-9d3f0146570d_svg" class="tl-centered-g" transform="translate(557.6, 360.8) rotate(0, 176, 4.8)"><g pointer-events="none" opacity="1"><path d="M0,9.6L352,0" fill="none" stroke-width="8" stroke-dasharray="none" stroke-dashoffset="none" stroke-linecap="round" stroke-linejoin="round" pointer-events="stroke"/><path d="M0,9.6L352,0" fill="#cecece" stroke="#cecece" stroke-width="4.23" stroke-dasharray="0.03 6.61" stroke-dashoffset="0" stroke-linecap="round" stroke-linejoin="round" pointer-events="stroke"/><path d="M 337.93,-7.619264921415408 L 352,0 338.36,8.374787982750687" fill="none" stroke="#cecece" stroke-width="4.23" stroke-dashoffset="none" stroke-dasharray="none" stroke-linecap="round" stroke-linejoin="round" pointer-events="stroke"/></g></g><g id="aaf33e4f-a1bd-48a2-13e4-71aaf9d1fe09_svg" class="tl-centered-g" transform="translate(744, 516.8) rotate(0, 1.6, 5.2)"><g opacity="1"><path d="M 0.94,-0.31 Q 0.94,-0.31 1.27,0.77 1.59,1.85 2.07,3.98 2.55,6.12 3.00,8.16 3.46,10.21 3.48,10.25 3.51,10.30 3.51,10.35 3.52,10.40 3.51,10.46 3.50,10.51 3.47,10.55 3.45,10.60 3.41,10.64 3.37,10.67 3.32,10.69 3.27,10.71 3.22,10.72 3.17,10.72 3.12,10.71 3.07,10.69 3.02,10.67 2.98,10.64 2.94,10.60 2.91,10.55 2.89,10.50 2.87,10.46 2.87,10.40 2.87,10.35 2.89,10.30 2.90,10.25 2.93,10.21 2.97,10.16 3.01,10.13 3.05,10.10 3.10,10.09 3.15,10.07 3.20,10.07 3.26,10.08 3.31,10.09 3.36,10.11 3.40,10.14 3.44,10.18 3.47,10.22 3.49,10.27 3.51,10.32 3.52,10.37 3.52,10.42 3.51,10.47 3.49,10.52 3.47,10.57 3.43,10.61 3.40,10.65 3.35,10.68 3.31,10.70 3.25,10.71 3.20,10.72 3.15,10.71 3.10,10.71 3.05,10.68 3.00,10.66 2.97,10.62 2.93,10.58 2.93,10.58 2.93,10.58 1.88,8.60 0.82,6.62 0.33,4.53 -0.16,2.43 -0.55,1.37 -0.94,0.31 -0.97,0.19 -0.99,0.07 -0.99,-0.04 -0.98,-0.16 -0.95,-0.27 -0.91,-0.39 -0.85,-0.49 -0.79,-0.60 -0.71,-0.68 -0.63,-0.77 -0.53,-0.83 -0.42,-0.90 -0.31,-0.94 -0.19,-0.97 -0.07,-0.98 0.04,-0.99 0.15,-0.97 0.27,-0.96 0.38,-0.91 0.50,-0.86 0.59,-0.79 0.69,-0.72 0.76,-0.62 0.84,-0.53 0.89,-0.42 Z" fill="#cecece" stroke="#cecece" stroke-width="1" stroke-linejoin="round" stroke-linecap="round" pointer-events="all"/></g></g><g id="b924079b-3a8d-4ae7-1e4d-e3e7304b15f5_svg" class="tl-centered-g" transform="translate(733.6, 537.6) rotate(0, 7.2, 9.6)"><g opacity="1"><path d="M 0.65,-0.18 Q 0.65,-0.18 1.89,-0.47 3.13,-0.76 5.63,-0.31 8.12,0.13 9.28,0.99 10.44,1.85 11.27,2.95 12.10,4.04 12.74,5.62 13.38,7.19 14.14,9.41 14.89,11.62 15.03,12.63 15.17,13.64 15.18,13.76 15.19,13.88 15.17,14.00 15.15,14.12 15.10,14.23 15.06,14.34 14.98,14.44 14.91,14.54 14.82,14.61 14.73,14.69 14.62,14.74 14.51,14.79 14.39,14.82 14.27,14.84 14.15,14.84 14.03,14.83 13.92,14.80 13.80,14.77 13.70,14.71 13.59,14.65 13.50,14.57 13.42,14.48 13.35,14.38 13.29,14.28 13.25,14.16 13.21,14.05 12.00,12.57 10.79,11.08 9.33,9.82 7.87,8.55 6.26,9.32 4.65,10.08 3.92,11.61 3.20,13.13 2.78,14.84 2.37,16.54 3.63,15.91 4.88,15.28 6.27,14.59 7.65,13.90 8.99,12.29 10.34,10.68 10.44,10.56 10.55,10.43 10.69,10.35 10.83,10.27 10.98,10.23 11.14,10.20 11.30,10.21 11.46,10.23 11.61,10.30 11.76,10.37 11.87,10.48 11.99,10.59 12.07,10.73 12.14,10.88 12.17,11.04 12.19,11.20 12.17,11.36 12.14,11.51 12.07,11.66 11.99,11.80 11.87,11.91 11.76,12.02 11.61,12.09 11.46,12.16 11.30,12.18 11.14,12.19 10.98,12.16 10.82,12.12 10.69,12.04 10.55,11.96 10.44,11.83 10.34,11.71 10.28,11.56 10.22,11.41 10.21,11.25 10.20,11.09 10.24,10.93 10.29,10.77 10.38,10.64 10.47,10.51 10.60,10.41 10.73,10.31 10.88,10.26 11.03,10.21 11.20,10.21 11.36,10.21 11.51,10.26 11.66,10.31 11.79,10.41 11.92,10.51 12.01,10.64 12.10,10.78 12.15,10.93 12.19,11.09 12.18,11.25 12.17,11.41 12.11,11.56 12.05,11.71 12.05,11.71 12.05,11.71 9.83,14.17 7.62,16.64 5.75,17.62 3.89,18.60 2.23,18.40 0.57,18.20 0.67,16.24 0.76,14.28 1.50,12.37 2.23,10.46 3.65,8.91 5.07,7.35 6.95,7.26 8.84,7.16 10.53,8.58 12.23,10.00 13.70,11.82 15.17,13.64 15.18,13.76 15.19,13.88 15.17,14.00 15.15,14.12 15.10,14.23 15.06,14.34 14.98,14.44 14.91,14.54 14.82,14.61 14.73,14.69 14.62,14.74 14.51,14.79 14.39,14.82 14.27,14.84 14.15,14.84 14.03,14.83 13.92,14.80 13.80,14.77 13.70,14.71 13.59,14.65 13.50,14.57 13.42,14.48 13.35,14.38 13.29,14.28 13.25,14.17 13.21,14.05 12.88,13.16 12.54,12.28 11.75,10.22 10.96,8.17 10.46,6.90 9.95,5.63 8.55,4.15 7.15,2.68 5.31,2.16 3.47,1.64 2.20,1.71 0.94,1.78 0.82,1.79 0.70,1.79 0.58,1.76 0.46,1.74 0.35,1.68 0.24,1.63 0.15,1.55 0.06,1.47 -0.00,1.38 -0.07,1.28 -0.12,1.17 -0.16,1.05 -0.18,0.94 -0.19,0.82 -0.18,0.70 -0.17,0.58 -0.13,0.46 -0.09,0.35 -0.02,0.25 0.03,0.15 0.12,0.07 0.21,-0.01 0.32,-0.06 0.42,-0.12 0.54,-0.15 Z" fill="#cecece" stroke="#cecece" stroke-width="1" stroke-linejoin="round" stroke-linecap="round" pointer-events="all"/></g></g><g id="1dfc91d3-2eb8-4dd0-10d3-45c7cd960059_svg" class="tl-centered-g" transform="translate(484, 352.8) rotate(0, 9.2, 16.4)"><g opacity="1"><path d="M 6.19,29.59 Q 6.19,29.59 6.85,30.18 7.50,30.77 6.98,29.03 6.45,27.30 5.85,25.96 5.25,24.62 4.55,23.17 3.85,21.72 3.08,20.01 2.32,18.29 1.71,16.80 1.11,15.30 0.56,13.54 0.01,11.79 -0.30,10.24 -0.62,8.70 -0.69,7.18 -0.77,5.65 -0.15,4.24 0.45,2.83 2.39,1.28 4.32,-0.26 7.80,-0.02 11.29,0.20 12.91,0.79 14.53,1.38 16.49,1.39 18.44,1.40 18.60,1.43 18.76,1.46 18.90,1.55 19.04,1.63 19.14,1.75 19.25,1.87 19.31,2.02 19.37,2.17 19.38,2.33 19.39,2.50 19.35,2.65 19.31,2.81 19.22,2.94 19.13,3.08 19.00,3.18 18.87,3.28 18.72,3.33 18.56,3.38 18.40,3.38 18.24,3.38 18.09,3.33 17.93,3.28 17.80,3.18 17.67,3.09 17.58,2.95 17.49,2.82 17.45,2.67 17.40,2.51 17.41,2.35 17.42,2.19 17.48,2.04 17.53,1.89 17.64,1.76 17.74,1.64 17.88,1.55 18.02,1.47 18.18,1.43 18.33,1.40 18.50,1.41 18.66,1.43 18.80,1.50 18.95,1.56 19.07,1.67 19.19,1.78 19.26,1.93 19.34,2.07 19.37,2.23 19.39,2.39 19.37,2.55 19.34,2.71 19.27,2.85 19.20,2.99 19.08,3.11 18.96,3.22 18.82,3.29 18.67,3.36 18.51,3.38 18.35,3.39 18.35,3.39 18.35,3.39 16.24,3.21 14.14,3.03 12.47,2.81 10.81,2.59 8.21,2.51 5.61,2.42 4.41,3.33 3.22,4.23 2.61,6.23 1.99,8.22 2.23,9.64 2.46,11.07 2.92,12.74 3.37,14.41 3.94,15.88 4.50,17.35 5.21,19.06 5.91,20.77 6.57,22.27 7.24,23.78 7.81,25.20 8.39,26.63 8.83,29.03 9.28,31.43 7.91,31.80 6.55,32.16 5.77,31.68 5,31.2 4.91,31.11 4.82,31.03 4.76,30.93 4.69,30.82 4.65,30.71 4.62,30.60 4.61,30.48 4.60,30.36 4.62,30.24 4.63,30.12 4.68,30.01 4.73,29.90 4.80,29.80 4.87,29.70 4.97,29.63 5.06,29.55 5.17,29.50 5.28,29.45 5.40,29.42 5.51,29.40 5.63,29.40 5.75,29.41 5.87,29.44 5.99,29.47 6.09,29.53 Z" fill="#cecece" stroke="#cecece" stroke-width="1" stroke-linejoin="round" stroke-linecap="round" pointer-events="all"/></g></g><g id="d40e8ee9-d6bc-4eee-039e-b3dfe1ae4a93_svg" class="tl-centered-g" transform="translate(481.6, 369.6) rotate(0, 8.4, 1.2)"><g opacity="1"><path d="M 16.8,1.8 Q 16.8,1.8 15.36,1.93 13.93,2.07 12.31,2.26 10.70,2.45 9.20,2.55 7.71,2.65 6.34,2.68 4.98,2.71 3.12,2.99 1.27,3.28 1.11,3.33 0.96,3.38 0.80,3.38 0.64,3.38 0.48,3.33 0.33,3.28 0.20,3.18 0.07,3.09 -0.01,2.95 -0.10,2.82 -0.14,2.66 -0.19,2.51 -0.18,2.35 -0.17,2.18 -0.11,2.03 -0.05,1.88 0.04,1.76 0.14,1.64 0.28,1.55 0.42,1.47 0.58,1.43 0.74,1.40 0.90,1.41 1.06,1.43 1.21,1.50 1.35,1.57 1.47,1.68 1.59,1.79 1.67,1.93 1.74,2.07 1.77,2.23 1.79,2.39 1.77,2.55 1.74,2.71 1.67,2.85 1.59,3.00 1.48,3.11 1.36,3.22 1.21,3.29 1.07,3.36 0.91,3.38 0.74,3.39 0.59,3.36 0.43,3.33 0.29,3.24 0.15,3.16 0.05,3.04 -0.05,2.91 -0.11,2.76 -0.17,2.61 -0.18,2.45 -0.19,2.29 -0.15,2.13 -0.10,1.98 -0.01,1.84 0.07,1.71 0.19,1.61 0.32,1.51 0.32,1.51 0.32,1.51 2.60,0.86 4.87,0.21 6.20,0.13 7.53,0.05 8.98,-0.04 10.42,-0.14 12.18,-0.30 13.93,-0.47 15.36,-0.33 16.8,-0.19 16.91,-0.18 17.03,-0.17 17.15,-0.12 17.26,-0.08 17.36,-0.01 17.46,0.05 17.54,0.14 17.62,0.23 17.67,0.33 17.73,0.44 17.76,0.56 17.79,0.67 17.79,0.80 17.79,0.92 17.76,1.03 17.73,1.15 17.67,1.26 17.62,1.36 17.54,1.45 17.46,1.54 17.36,1.61 17.26,1.68 17.15,1.72 17.03,1.77 16.91,1.78 Z" fill="#cecece" stroke="#cecece" stroke-width="1" stroke-linejoin="round" stroke-linecap="round" pointer-events="all"/></g></g><g id="3dfa0e9a-0fa1-45a9-3241-ec5f38e83719_svg" class="tl-centered-g" transform="translate(511.2, 361.6) rotate(0, 4.8, 10.4)"><g opacity="1"><path d="M 9.44,0.76 Q 9.44,0.76 8.24,1.51 7.04,2.25 5.97,3.47 4.91,4.69 4.02,6.08 3.14,7.47 2.73,8.87 2.33,10.27 2.50,11.79 2.67,13.30 3.21,14.59 3.75,15.88 4.66,17.11 5.56,18.35 7.29,17.16 9.02,15.97 9.17,15.90 9.32,15.83 9.48,15.82 9.64,15.80 9.79,15.83 9.95,15.86 10.09,15.94 10.23,16.02 10.34,16.15 10.45,16.27 10.51,16.42 10.57,16.57 10.58,16.73 10.59,16.89 10.55,17.05 10.51,17.20 10.42,17.34 10.33,17.47 10.20,17.57 10.07,17.67 9.92,17.73 9.77,17.78 9.61,17.78 9.45,17.78 9.29,17.73 9.14,17.68 9.01,17.59 8.88,17.49 8.79,17.36 8.69,17.23 8.65,17.07 8.60,16.92 8.61,16.75 8.62,16.59 8.67,16.44 8.73,16.29 8.83,16.17 8.94,16.04 9.08,15.96 9.21,15.87 9.37,15.83 9.53,15.80 9.69,15.81 9.85,15.83 10.00,15.89 10.15,15.96 10.26,16.07 10.38,16.18 10.46,16.32 10.54,16.46 10.57,16.62 10.59,16.78 10.57,16.94 10.55,17.10 10.47,17.25 10.40,17.39 10.28,17.50 10.17,17.62 10.17,17.62 10.17,17.62 6.57,18.34 2.98,19.06 2.20,17.92 1.43,16.78 0.83,15.11 0.24,13.43 0.29,11.52 0.34,9.60 1.02,8.04 1.70,6.48 2.78,5.10 3.87,3.72 5.06,2.52 6.26,1.32 7.21,0.27 8.15,-0.76 8.26,-0.83 8.36,-0.89 8.47,-0.93 8.59,-0.97 8.71,-0.98 8.83,-0.99 8.94,-0.98 9.06,-0.96 9.17,-0.91 9.29,-0.87 9.38,-0.79 9.48,-0.72 9.56,-0.63 9.63,-0.54 9.69,-0.43 9.74,-0.32 9.77,-0.20 9.79,-0.09 9.79,0.03 9.78,0.15 9.75,0.26 9.72,0.38 9.66,0.48 9.60,0.59 9.52,0.68 Z" fill="#cecece" stroke="#cecece" stroke-width="1" stroke-linejoin="round" stroke-linecap="round" pointer-events="all"/></g></g><g id="2d21a388-a14d-4050-247b-720b772511e3_svg" class="tl-centered-g" transform="translate(753.18, 249.17) rotate(0, 56.84, 56.48)"><g pointer-events="none" opacity="1"><path d="M -9.51,113.09 Q -9.51,113.09 -6.47,112.26 -3.44,111.44 0.21,110.55 3.88,109.67 8.76,108.19 13.64,106.71 19.47,104.45 25.29,102.19 31.73,99.01 38.17,95.83 44.85,91.65 51.53,87.47 58.05,82.34 64.57,77.21 70.59,71.28 76.61,65.35 81.84,58.91 87.07,52.48 91.35,45.87 95.63,39.26 98.91,32.88 102.18,26.51 104.53,20.73 106.87,14.96 108.43,10.12 109.98,5.28 110.92,1.64 111.86,-1.99 112.48,-4.99 113.11,-7.99 113.24,-8.34 113.37,-8.68 113.60,-8.96 113.83,-9.24 114.13,-9.44 114.44,-9.63 114.80,-9.72 115.15,-9.80 115.51,-9.77 115.87,-9.74 116.21,-9.60 116.54,-9.45 116.81,-9.21 117.08,-8.96 117.26,-8.64 117.44,-8.33 117.50,-7.97 117.57,-7.61 117.52,-7.25 117.47,-6.89 117.31,-6.56 117.14,-6.24 116.88,-5.98 116.62,-5.73 116.30,-5.57 115.97,-5.41 115.61,-5.36 115.25,-5.31 114.89,-5.38 114.53,-5.45 114.22,-5.63 113.90,-5.81 113.66,-6.08 113.42,-6.36 113.28,-6.69 113.13,-7.03 113.11,-7.39 113.08,-7.75 113.17,-8.11 113.26,-8.46 113.46,-8.76 113.65,-9.07 113.94,-9.30 114.22,-9.52 114.57,-9.65 114.91,-9.77 115.27,-9.78 115.64,-9.79 115.98,-9.68 116.33,-9.57 116.63,-9.36 116.92,-9.14 117.13,-8.85 117.34,-8.55 117.45,-8.20 117.55,-7.85 117.54,-7.49 117.53,-7.12 117.53,-7.13 117.53,-7.13 116.87,-3.99 116.21,-0.86 115.24,2.89 114.27,6.65 112.65,11.65 111.04,16.65 108.61,22.61 106.19,28.56 102.79,35.14 99.40,41.71 94.98,48.51 90.56,55.31 85.16,61.94 79.76,68.56 73.56,74.65 67.36,80.74 60.64,86.01 53.92,91.28 47.04,95.57 40.16,99.86 33.54,103.12 26.92,106.38 20.93,108.70 14.95,111.02 9.94,112.53 4.93,114.04 1.17,114.95 -2.59,115.85 -5.72,116.21 -8.84,116.56 -9.05,116.58 -9.27,116.59 -9.48,116.55 -9.69,116.52 -9.88,116.43 -10.08,116.35 -10.25,116.22 -10.42,116.09 -10.55,115.92 -10.68,115.75 -10.77,115.56 -10.86,115.36 -10.90,115.16 -10.94,114.95 -10.93,114.73 -10.92,114.52 -10.86,114.32 -10.79,114.11 -10.68,113.93 -10.58,113.75 -10.43,113.59 -10.28,113.44 -10.10,113.33 -9.91,113.22 -9.71,113.15 Z" fill="none" stroke="none" stroke-width="8" stroke-dasharray="none" stroke-dashoffset="none" stroke-linecap="round" stroke-linejoin="round" pointer-events="stroke"/><path d="M -9.51,113.09 Q -9.51,113.09 -6.47,112.26 -3.44,111.44 0.21,110.55 3.88,109.67 8.76,108.19 13.64,106.71 19.47,104.45 25.29,102.19 31.73,99.01 38.17,95.83 44.85,91.65 51.53,87.47 58.05,82.34 64.57,77.21 70.59,71.28 76.61,65.35 81.84,58.91 87.07,52.48 91.35,45.87 95.63,39.26 98.91,32.88 102.18,26.51 104.53,20.73 106.87,14.96 108.43,10.12 109.98,5.28 110.92,1.64 111.86,-1.99 112.48,-4.99 113.11,-7.99 113.24,-8.34 113.37,-8.68 113.60,-8.96 113.83,-9.24 114.13,-9.44 114.44,-9.63 114.80,-9.72 115.15,-9.80 115.51,-9.77 115.87,-9.74 116.21,-9.60 116.54,-9.45 116.81,-9.21 117.08,-8.96 117.26,-8.64 117.44,-8.33 117.50,-7.97 117.57,-7.61 117.52,-7.25 117.47,-6.89 117.31,-6.56 117.14,-6.24 116.88,-5.98 116.62,-5.73 116.30,-5.57 115.97,-5.41 115.61,-5.36 115.25,-5.31 114.89,-5.38 114.53,-5.45 114.22,-5.63 113.90,-5.81 113.66,-6.08 113.42,-6.36 113.28,-6.69 113.13,-7.03 113.11,-7.39 113.08,-7.75 113.17,-8.11 113.26,-8.46 113.46,-8.76 113.65,-9.07 113.94,-9.30 114.22,-9.52 114.57,-9.65 114.91,-9.77 115.27,-9.78 115.64,-9.79 115.98,-9.68 116.33,-9.57 116.63,-9.36 116.92,-9.14 117.13,-8.85 117.34,-8.55 117.45,-8.20 117.55,-7.85 117.54,-7.49 117.53,-7.12 117.53,-7.13 117.53,-7.13 116.87,-3.99 116.21,-0.86 115.24,2.89 114.27,6.65 112.65,11.65 111.04,16.65 108.61,22.61 106.19,28.56 102.79,35.14 99.40,41.71 94.98,48.51 90.56,55.31 85.16,61.94 79.76,68.56 73.56,74.65 67.36,80.74 60.64,86.01 53.92,91.28 47.04,95.57 40.16,99.86 33.54,103.12 26.92,106.38 20.93,108.70 14.95,111.02 9.94,112.53 4.93,114.04 1.17,114.95 -2.59,115.85 -5.72,116.21 -8.84,116.56 -9.05,116.58 -9.27,116.59 -9.48,116.55 -9.69,116.52 -9.88,116.43 -10.08,116.35 -10.25,116.22 -10.42,116.09 -10.55,115.92 -10.68,115.75 -10.77,115.56 -10.86,115.36 -10.90,115.16 -10.94,114.95 -10.93,114.73 -10.92,114.52 -10.86,114.32 -10.79,114.11 -10.68,113.93 -10.58,113.75 -10.43,113.59 -10.28,113.44 -10.10,113.33 -9.91,113.22 -9.71,113.15 Z" fill="#eb2435" stroke="#eb2435" stroke-width="0" stroke-dasharray="none" stroke-dashoffset="none" stroke-linecap="round" stroke-linejoin="round" pointer-events="stroke"/><path d="M 104.92,2.7333374254744953 L 115.62,-9.17 120.58,6.0408759467003" fill="none" stroke="#eb2435" stroke-width="4.23" stroke-dashoffset="none" stroke-dasharray="none" stroke-linecap="round" stroke-linejoin="round" pointer-events="stroke"/></g></g><g id="6dcdff63-505f-4157-0c1b-4ba80d3beef7_svg" class="tl-centered-g" transform="translate(591.48, 265.83) rotate(0, 69.57, 49.43)"><g pointer-events="none" opacity="1"><path d="M 149.46,99.95 Q 149.46,99.95 146.44,100.43 143.42,100.92 139.64,101.05 135.86,101.18 130.74,101.04 125.61,100.90 119.33,100.23 113.04,99.56 105.86,98.09 98.68,96.62 90.96,94.15 83.24,91.68 75.37,88.10 67.50,84.52 59.90,79.86 52.30,75.20 45.33,69.64 38.36,64.07 32.31,57.88 26.26,51.69 21.31,45.27 16.35,38.84 12.52,32.57 8.69,26.31 5.92,20.61 3.14,14.91 1.27,10.12 -0.60,5.32 -1.76,1.71 -2.92,-1.90 -3.73,-4.91 -4.53,-7.93 -4.56,-8.29 -4.60,-8.65 -4.51,-9.01 -4.42,-9.36 -4.23,-9.67 -4.03,-9.98 -3.75,-10.20 -3.47,-10.43 -3.13,-10.56 -2.78,-10.69 -2.42,-10.70 -2.06,-10.71 -1.71,-10.60 -1.36,-10.50 -1.06,-10.29 -0.77,-10.08 -0.55,-9.78 -0.34,-9.49 -0.23,-9.14 -0.12,-8.79 -0.13,-8.43 -0.14,-8.06 -0.27,-7.72 -0.39,-7.38 -0.62,-7.09 -0.84,-6.81 -1.15,-6.61 -1.46,-6.42 -1.81,-6.33 -2.16,-6.24 -2.52,-6.27 -2.89,-6.29 -3.22,-6.44 -3.56,-6.58 -3.83,-6.82 -4.10,-7.06 -4.28,-7.38 -4.46,-7.70 -4.53,-8.05 -4.60,-8.41 -4.55,-8.77 -4.51,-9.13 -4.34,-9.46 -4.18,-9.79 -3.93,-10.04 -3.67,-10.30 -3.35,-10.47 -3.02,-10.63 -2.66,-10.68 -2.30,-10.73 -1.94,-10.66 -1.58,-10.59 -1.27,-10.42 -0.95,-10.24 -0.70,-9.97 -0.46,-9.70 -0.32,-9.36 -0.17,-9.03 -0.17,-9.03 -0.17,-9.03 0.59,-6.15 1.36,-3.27 2.47,0.20 3.58,3.69 5.38,8.31 7.19,12.94 9.86,18.45 12.54,23.96 16.23,30.03 19.92,36.09 24.70,42.32 29.49,48.56 35.33,54.56 41.17,60.56 47.91,65.96 54.65,71.37 62.01,75.90 69.37,80.43 76.99,83.91 84.61,87.39 92.10,89.80 99.59,92.21 106.56,93.65 113.53,95.09 119.63,95.75 125.74,96.41 130.72,96.55 135.71,96.69 139.38,96.56 143.05,96.43 146.11,96.41 149.17,96.38 149.38,96.39 149.60,96.40 149.80,96.46 150.01,96.52 150.20,96.62 150.39,96.73 150.54,96.88 150.70,97.03 150.81,97.21 150.93,97.39 151.00,97.60 151.07,97.80 151.09,98.02 151.10,98.23 151.07,98.44 151.04,98.66 150.95,98.86 150.87,99.06 150.74,99.23 150.61,99.40 150.44,99.54 150.28,99.67 150.08,99.77 149.89,99.86 149.68,99.90 Z" fill="none" stroke="none" stroke-width="8" stroke-dasharray="none" stroke-dashoffset="none" stroke-linecap="round" stroke-linejoin="round" pointer-events="stroke"/><path d="M 149.46,99.95 Q 149.46,99.95 146.44,100.43 143.42,100.92 139.64,101.05 135.86,101.18 130.74,101.04 125.61,100.90 119.33,100.23 113.04,99.56 105.86,98.09 98.68,96.62 90.96,94.15 83.24,91.68 75.37,88.10 67.50,84.52 59.90,79.86 52.30,75.20 45.33,69.64 38.36,64.07 32.31,57.88 26.26,51.69 21.31,45.27 16.35,38.84 12.52,32.57 8.69,26.31 5.92,20.61 3.14,14.91 1.27,10.12 -0.60,5.32 -1.76,1.71 -2.92,-1.90 -3.73,-4.91 -4.53,-7.93 -4.56,-8.29 -4.60,-8.65 -4.51,-9.01 -4.42,-9.36 -4.23,-9.67 -4.03,-9.98 -3.75,-10.20 -3.47,-10.43 -3.13,-10.56 -2.78,-10.69 -2.42,-10.70 -2.06,-10.71 -1.71,-10.60 -1.36,-10.50 -1.06,-10.29 -0.77,-10.08 -0.55,-9.78 -0.34,-9.49 -0.23,-9.14 -0.12,-8.79 -0.13,-8.43 -0.14,-8.06 -0.27,-7.72 -0.39,-7.38 -0.62,-7.09 -0.84,-6.81 -1.15,-6.61 -1.46,-6.42 -1.81,-6.33 -2.16,-6.24 -2.52,-6.27 -2.89,-6.29 -3.22,-6.44 -3.56,-6.58 -3.83,-6.82 -4.10,-7.06 -4.28,-7.38 -4.46,-7.70 -4.53,-8.05 -4.60,-8.41 -4.55,-8.77 -4.51,-9.13 -4.34,-9.46 -4.18,-9.79 -3.93,-10.04 -3.67,-10.30 -3.35,-10.47 -3.02,-10.63 -2.66,-10.68 -2.30,-10.73 -1.94,-10.66 -1.58,-10.59 -1.27,-10.42 -0.95,-10.24 -0.70,-9.97 -0.46,-9.70 -0.32,-9.36 -0.17,-9.03 -0.17,-9.03 -0.17,-9.03 0.59,-6.15 1.36,-3.27 2.47,0.20 3.58,3.69 5.38,8.31 7.19,12.94 9.86,18.45 12.54,23.96 16.23,30.03 19.92,36.09 24.70,42.32 29.49,48.56 35.33,54.56 41.17,60.56 47.91,65.96 54.65,71.37 62.01,75.90 69.37,80.43 76.99,83.91 84.61,87.39 92.10,89.80 99.59,92.21 106.56,93.65 113.53,95.09 119.63,95.75 125.74,96.41 130.72,96.55 135.71,96.69 139.38,96.56 143.05,96.43 146.11,96.41 149.17,96.38 149.38,96.39 149.60,96.40 149.80,96.46 150.01,96.52 150.20,96.62 150.39,96.73 150.54,96.88 150.70,97.03 150.81,97.21 150.93,97.39 151.00,97.60 151.07,97.80 151.09,98.02 151.10,98.23 151.07,98.44 151.04,98.66 150.95,98.86 150.87,99.06 150.74,99.23 150.61,99.40 150.44,99.54 150.28,99.67 150.08,99.77 149.89,99.86 149.68,99.90 Z" fill="#415fda" stroke="#415fda" stroke-width="0" stroke-dasharray="none" stroke-dashoffset="none" stroke-linecap="round" stroke-linejoin="round" pointer-events="stroke"/><path d="M -6.7643781096574465,5.639901598179316 L -2.68,-9.83 8.67,1.4421260007140733" fill="none" stroke="#415fda" stroke-width="4.23" stroke-dashoffset="none" stroke-dasharray="none" stroke-linecap="round" stroke-linejoin="round" pointer-events="stroke"/></g></g><g id="a1eeb9f5-7176-443f-243f-0d6cbbbb8ac7_svg" class="tl-centered-g" transform="translate(608.77, 365.6) rotate(0, 61.73, 38.41)"><g pointer-events="none" opacity="1"><path d="M 131.85,2.56 Q 131.85,2.56 129.60,2.58 127.34,2.60 124.32,2.44 121.29,2.27 116.29,2.32 111.30,2.36 103.89,3.17 96.49,3.97 86.43,6.54 76.37,9.10 63.89,15.01 51.41,20.91 40.55,29.38 29.68,37.84 22.88,45.63 16.09,53.41 12.06,59.62 8.03,65.82 5.75,70.22 3.46,74.62 2.25,77.37 1.03,80.13 0.24,82.14 -0.53,84.15 -0.71,84.47 -0.89,84.79 -1.15,85.03 -1.42,85.28 -1.76,85.42 -2.09,85.57 -2.45,85.60 -2.82,85.64 -3.17,85.55 -3.52,85.47 -3.83,85.27 -4.14,85.08 -4.37,84.80 -4.60,84.52 -4.73,84.18 -4.86,83.84 -4.87,83.47 -4.88,83.11 -4.78,82.76 -4.68,82.41 -4.47,82.11 -4.26,81.82 -3.96,81.60 -3.67,81.39 -3.32,81.28 -2.97,81.17 -2.61,81.17 -2.25,81.18 -1.90,81.30 -1.56,81.42 -1.27,81.65 -0.99,81.88 -0.79,82.18 -0.59,82.49 -0.50,82.84 -0.41,83.19 -0.44,83.55 -0.46,83.92 -0.60,84.25 -0.75,84.59 -0.99,84.86 -1.23,85.13 -1.54,85.32 -1.86,85.50 -2.22,85.57 -2.57,85.64 -2.93,85.60 -3.29,85.55 -3.62,85.39 -3.95,85.23 -4.21,84.98 -4.47,84.72 -4.63,84.40 -4.80,84.07 -4.85,83.71 -4.90,83.35 -4.84,82.99 -4.77,82.63 -4.77,82.63 -4.77,82.63 -3.92,80.47 -3.07,78.30 -1.80,75.43 -0.52,72.55 1.86,67.96 4.26,63.37 8.48,56.91 12.70,50.46 19.81,42.37 26.91,34.29 38.19,25.57 49.48,16.86 62.36,10.80 75.24,4.75 85.62,2.12 96.00,-0.49 103.63,-1.31 111.25,-2.12 116.40,-2.17 121.54,-2.21 124.65,-2.04 127.77,-1.86 129.98,-1.41 132.20,-0.96 132.40,-0.92 132.61,-0.87 132.81,-0.78 133.00,-0.68 133.16,-0.54 133.33,-0.41 133.45,-0.23 133.58,-0.06 133.66,0.13 133.74,0.33 133.77,0.54 133.80,0.75 133.78,0.96 133.76,1.18 133.69,1.38 133.62,1.58 133.50,1.76 133.38,1.94 133.23,2.09 133.07,2.23 132.88,2.34 132.70,2.44 132.49,2.50 132.28,2.55 132.07,2.56 Z" fill="none" stroke="none" stroke-width="8" stroke-dasharray="none" stroke-dashoffset="none" stroke-linecap="round" stroke-linejoin="round" pointer-events="stroke"/><path d="M 131.85,2.56 Q 131.85,2.56 129.60,2.58 127.34,2.60 124.32,2.44 121.29,2.27 116.29,2.32 111.30,2.36 103.89,3.17 96.49,3.97 86.43,6.54 76.37,9.10 63.89,15.01 51.41,20.91 40.55,29.38 29.68,37.84 22.88,45.63 16.09,53.41 12.06,59.62 8.03,65.82 5.75,70.22 3.46,74.62 2.25,77.37 1.03,80.13 0.24,82.14 -0.53,84.15 -0.71,84.47 -0.89,84.79 -1.15,85.03 -1.42,85.28 -1.76,85.42 -2.09,85.57 -2.45,85.60 -2.82,85.64 -3.17,85.55 -3.52,85.47 -3.83,85.27 -4.14,85.08 -4.37,84.80 -4.60,84.52 -4.73,84.18 -4.86,83.84 -4.87,83.47 -4.88,83.11 -4.78,82.76 -4.68,82.41 -4.47,82.11 -4.26,81.82 -3.96,81.60 -3.67,81.39 -3.32,81.28 -2.97,81.17 -2.61,81.17 -2.25,81.18 -1.90,81.30 -1.56,81.42 -1.27,81.65 -0.99,81.88 -0.79,82.18 -0.59,82.49 -0.50,82.84 -0.41,83.19 -0.44,83.55 -0.46,83.92 -0.60,84.25 -0.75,84.59 -0.99,84.86 -1.23,85.13 -1.54,85.32 -1.86,85.50 -2.22,85.57 -2.57,85.64 -2.93,85.60 -3.29,85.55 -3.62,85.39 -3.95,85.23 -4.21,84.98 -4.47,84.72 -4.63,84.40 -4.80,84.07 -4.85,83.71 -4.90,83.35 -4.84,82.99 -4.77,82.63 -4.77,82.63 -4.77,82.63 -3.92,80.47 -3.07,78.30 -1.80,75.43 -0.52,72.55 1.86,67.96 4.26,63.37 8.48,56.91 12.70,50.46 19.81,42.37 26.91,34.29 38.19,25.57 49.48,16.86 62.36,10.80 75.24,4.75 85.62,2.12 96.00,-0.49 103.63,-1.31 111.25,-2.12 116.40,-2.17 121.54,-2.21 124.65,-2.04 127.77,-1.86 129.98,-1.41 132.20,-0.96 132.40,-0.92 132.61,-0.87 132.81,-0.78 133.00,-0.68 133.16,-0.54 133.33,-0.41 133.45,-0.23 133.58,-0.06 133.66,0.13 133.74,0.33 133.77,0.54 133.80,0.75 133.78,0.96 133.76,1.18 133.69,1.38 133.62,1.58 133.50,1.76 133.38,1.94 133.23,2.09 133.07,2.23 132.88,2.34 132.70,2.44 132.49,2.50 132.28,2.55 132.07,2.56 Z" fill="#415fda" stroke="#415fda" stroke-width="0" stroke-dasharray="none" stroke-dashoffset="none" stroke-linecap="round" stroke-linejoin="round" pointer-events="stroke"/><path d="M 9.43,74.94733675939233 L -3.17,84.8 -5.399383165186824,68.95607843042697" fill="none" stroke="#415fda" stroke-width="4.23" stroke-dashoffset="none" stroke-dasharray="none" stroke-linecap="round" stroke-linejoin="round" pointer-events="stroke"/></g></g><g id="324454fd-c55e-4869-0fd2-47109952cf48_svg" class="tl-centered-g" transform="translate(625.6, 272.8) rotate(0, 2.4, 11.2)"><g opacity="1"><path d="M 0.96,-0.27 Q 0.96,-0.27 1.38,0.96 1.80,2.19 2.01,3.48 2.23,4.78 2.51,6.15 2.79,7.52 3.12,9.00 3.44,10.48 3.76,12.40 4.07,14.32 4.40,15.71 4.72,17.09 5.24,19.20 5.75,21.30 5.77,21.46 5.79,21.62 5.76,21.78 5.73,21.94 5.65,22.08 5.57,22.22 5.45,22.33 5.33,22.44 5.18,22.50 5.03,22.57 4.87,22.58 4.71,22.59 4.55,22.55 4.40,22.51 4.26,22.42 4.13,22.34 4.02,22.21 3.92,22.08 3.87,21.93 3.81,21.78 3.81,21.62 3.80,21.46 3.85,21.30 3.90,21.15 4.00,21.02 4.09,20.89 4.22,20.79 4.35,20.70 4.51,20.65 4.66,20.60 4.82,20.61 4.99,20.61 5.14,20.67 5.29,20.73 5.42,20.83 5.54,20.93 5.63,21.07 5.71,21.20 5.75,21.36 5.79,21.52 5.78,21.68 5.76,21.84 5.70,21.99 5.64,22.14 5.53,22.26 5.42,22.38 5.28,22.46 5.14,22.53 4.98,22.56 4.82,22.59 4.66,22.57 4.50,22.55 4.35,22.48 4.21,22.41 4.09,22.29 3.98,22.18 3.91,22.03 3.84,21.89 3.84,21.89 3.84,21.89 3.41,19.72 2.99,17.56 2.55,16.13 2.11,14.70 1.70,12.84 1.28,10.97 0.93,9.47 0.57,7.98 0.10,5.40 -0.37,2.81 -0.66,1.54 -0.96,0.27 -0.98,0.15 -0.99,0.03 -0.98,-0.08 -0.97,-0.20 -0.94,-0.31 -0.90,-0.43 -0.83,-0.53 -0.77,-0.63 -0.68,-0.71 -0.59,-0.80 -0.49,-0.86 -0.38,-0.92 -0.27,-0.95 -0.15,-0.98 -0.03,-0.99 0.08,-0.99 0.20,-0.97 0.32,-0.94 0.42,-0.89 0.53,-0.84 0.63,-0.76 0.72,-0.69 0.79,-0.59 0.86,-0.49 0.91,-0.38 Z" fill="#415fda" stroke="#415fda" stroke-width="1" stroke-linejoin="round" stroke-linecap="round" pointer-events="all"/></g></g><g id="1b3ed260-8446-4a4f-20f0-54c144a5b7fd_svg" class="tl-centered-g" transform="translate(629.6, 280) rotate(0, 3.6, 4)"><g opacity="1"><path d="M 6.22,0.78 Q 6.22,0.78 5.22,1.35 4.21,1.93 3.30,2.97 2.39,4.01 4.88,5.51 7.37,7.01 7.53,7.07 7.68,7.12 7.81,7.22 7.93,7.32 8.02,7.46 8.11,7.59 8.15,7.75 8.19,7.90 8.18,8.07 8.17,8.23 8.11,8.38 8.04,8.53 7.94,8.65 7.83,8.77 7.69,8.85 7.55,8.93 7.39,8.96 7.23,8.99 7.07,8.97 6.91,8.95 6.77,8.88 6.62,8.81 6.50,8.70 6.39,8.59 6.32,8.44 6.24,8.30 6.22,8.14 6.20,7.98 6.22,7.82 6.25,7.66 6.33,7.52 6.41,7.38 6.53,7.27 6.65,7.16 6.80,7.09 6.94,7.03 7.11,7.01 7.27,7.00 7.42,7.04 7.58,7.07 7.72,7.16 7.86,7.24 7.96,7.37 8.06,7.49 8.12,7.65 8.18,7.80 8.18,7.96 8.19,8.12 8.14,8.28 8.10,8.43 8.00,8.56 7.91,8.70 7.78,8.79 7.65,8.89 7.49,8.94 7.34,8.98 7.18,8.98 7.02,8.98 7.02,8.98 7.02,8.98 5.14,8.32 3.26,7.67 1.71,6.63 0.17,5.59 0.80,4.36 1.44,3.13 2.42,2.03 3.40,0.92 4.18,0.07 4.97,-0.78 5.07,-0.84 5.18,-0.90 5.29,-0.94 5.40,-0.98 5.53,-0.99 5.65,-0.99 5.76,-0.97 5.88,-0.95 5.99,-0.90 6.10,-0.86 6.20,-0.78 6.29,-0.71 6.37,-0.62 6.45,-0.52 6.50,-0.41 6.55,-0.30 6.57,-0.18 6.59,-0.07 6.59,0.04 6.58,0.17 6.55,0.28 6.51,0.40 6.45,0.50 6.39,0.60 6.30,0.69 Z" fill="#415fda" stroke="#415fda" stroke-width="1" stroke-linejoin="round" stroke-linecap="round" pointer-events="all"/></g></g><g id="3b7e6552-c963-4f4b-2414-ef44321f3ec0_svg" class="tl-centered-g" transform="translate(646.4, 276) rotate(0, 2.4, 1.2)"><g opacity="1"><path d="M 5.11,0.94 Q 5.11,0.94 4.03,1.28 2.95,1.61 1.74,2.42 0.53,3.24 0.38,3.30 0.23,3.37 0.07,3.38 -0.08,3.39 -0.24,3.35 -0.39,3.31 -0.53,3.22 -0.67,3.14 -0.77,3.01 -0.87,2.88 -0.92,2.73 -0.98,2.58 -0.98,2.42 -0.99,2.26 -0.94,2.10 -0.89,1.95 -0.79,1.82 -0.70,1.69 -0.57,1.59 -0.44,1.50 -0.28,1.45 -0.13,1.40 0.02,1.41 0.19,1.41 0.34,1.47 0.49,1.53 0.62,1.63 0.74,1.73 0.83,1.87 0.91,2.00 0.95,2.16 0.99,2.32 0.98,2.48 0.96,2.64 0.90,2.79 0.84,2.94 0.73,3.06 0.62,3.18 0.48,3.26 0.34,3.33 0.18,3.36 0.02,3.39 -0.13,3.37 -0.29,3.35 -0.44,3.28 -0.58,3.21 -0.70,3.09 -0.81,2.98 -0.88,2.83 -0.95,2.69 -0.97,2.53 -0.99,2.36 -0.96,2.21 -0.93,2.05 -0.85,1.91 -0.77,1.77 -0.65,1.66 -0.53,1.55 -0.53,1.55 -0.53,1.55 0.90,0.68 2.34,-0.18 3.41,-0.56 4.48,-0.94 4.60,-0.97 4.72,-0.99 4.84,-0.99 4.96,-0.98 5.07,-0.95 5.19,-0.91 5.29,-0.85 5.40,-0.79 5.48,-0.71 5.57,-0.63 5.63,-0.53 5.70,-0.42 5.74,-0.31 5.77,-0.19 5.78,-0.07 5.79,0.04 5.77,0.15 5.76,0.27 5.71,0.38 5.66,0.50 5.59,0.59 5.52,0.69 5.42,0.76 5.33,0.84 5.22,0.89 Z" fill="#415fda" stroke="#415fda" stroke-width="1" stroke-linejoin="round" stroke-linecap="round" pointer-events="all"/></g></g><g id="038e1579-af92-4d9c-0488-ada0c2422200_svg" class="tl-centered-g" transform="translate(656.8, 266.4) rotate(0, 6.8, 7.6)"><g opacity="1"><path d="M 0.89,8.89 Q 0.89,8.89 1.84,8.06 2.80,7.23 3.49,5.87 4.17,4.52 3.55,3.06 2.92,1.61 2.16,3.26 1.40,4.91 1.58,6.46 1.76,8.02 2.23,9.37 2.71,10.72 3.53,12.07 4.36,13.43 5.86,12.91 7.35,12.38 8.33,11.31 9.31,10.24 11.06,8.01 12.81,5.77 12.93,5.66 13.05,5.55 13.20,5.49 13.35,5.43 13.51,5.41 13.67,5.40 13.83,5.44 13.99,5.48 14.12,5.56 14.26,5.65 14.36,5.78 14.46,5.90 14.52,6.05 14.58,6.20 14.58,6.37 14.59,6.53 14.54,6.68 14.49,6.84 14.40,6.97 14.30,7.10 14.17,7.20 14.04,7.29 13.89,7.34 13.73,7.39 13.57,7.38 13.41,7.38 13.26,7.32 13.10,7.27 12.98,7.17 12.85,7.06 12.76,6.93 12.68,6.79 12.64,6.64 12.60,6.48 12.61,6.32 12.62,6.16 12.69,6.01 12.75,5.86 12.86,5.74 12.97,5.62 13.11,5.54 13.25,5.46 13.41,5.43 13.57,5.40 13.73,5.42 13.89,5.44 14.03,5.51 14.18,5.58 14.29,5.70 14.41,5.81 14.48,5.95 14.55,6.10 14.57,6.26 14.59,6.42 14.56,6.58 14.53,6.74 14.45,6.88 14.38,7.02 14.38,7.02 14.38,7.02 12.89,8.74 11.41,10.45 10.55,11.50 9.68,12.54 8.18,13.76 6.69,14.97 4.95,14.66 3.21,14.34 2.38,12.71 1.55,11.07 1.16,9.59 0.78,8.11 0.69,6.48 0.60,4.85 1.28,2.79 1.96,0.73 3.49,1.35 5.02,1.97 5.34,3.53 5.67,5.08 4.82,6.73 3.97,8.38 3.14,9.34 2.30,10.30 2.21,10.38 2.11,10.45 2.00,10.50 1.89,10.55 1.77,10.57 1.66,10.59 1.54,10.59 1.41,10.58 1.30,10.54 1.18,10.51 1.08,10.44 0.98,10.38 0.89,10.30 0.81,10.21 0.75,10.11 0.68,10.01 0.65,9.89 0.61,9.78 0.60,9.65 0.60,9.53 0.62,9.42 0.64,9.30 0.69,9.19 0.74,9.08 0.81,8.98 Z" fill="#415fda" stroke="#415fda" stroke-width="1" stroke-linejoin="round" stroke-linecap="round" pointer-events="all"/></g></g><g id="5ed68522-d3aa-4a15-3f27-ee7194e34158_svg" class="tl-centered-g" transform="translate(668, 264) rotate(0, 4, 5.2)"><g opacity="1"><path d="M 0.86,1.10 Q 0.86,1.10 1.45,2.42 2.05,3.75 2.69,4.98 3.32,6.21 4.03,7.32 4.73,8.44 5.26,6.96 5.79,5.47 6.11,4.06 6.42,2.65 6.71,1.25 7.01,-0.14 7.05,-0.29 7.10,-0.45 7.20,-0.58 7.29,-0.71 7.43,-0.80 7.56,-0.89 7.71,-0.94 7.87,-0.99 8.03,-0.98 8.19,-0.98 8.34,-0.92 8.50,-0.86 8.62,-0.76 8.75,-0.66 8.83,-0.52 8.92,-0.38 8.95,-0.22 8.99,-0.07 8.98,0.08 8.96,0.25 8.90,0.39 8.83,0.54 8.72,0.66 8.61,0.78 8.47,0.86 8.33,0.94 8.17,0.97 8.01,0.99 7.85,0.97 7.69,0.95 7.55,0.87 7.40,0.80 7.29,0.69 7.18,0.57 7.11,0.43 7.04,0.28 7.02,0.12 7.00,-0.03 7.03,-0.19 7.06,-0.35 7.14,-0.49 7.22,-0.63 7.34,-0.74 7.46,-0.84 7.61,-0.91 7.76,-0.97 7.92,-0.98 8.09,-0.99 8.24,-0.95 8.40,-0.91 8.53,-0.82 8.67,-0.73 8.77,-0.61 8.87,-0.48 8.92,-0.33 8.98,-0.17 8.98,-0.01 8.98,0.14 8.98,0.14 8.98,0.14 8.48,3.01 7.97,5.88 7.42,7.38 6.87,8.87 5.55,9.44 4.22,10.01 3.02,8.46 1.83,6.91 1.32,5.68 0.81,4.45 -0.02,3.27 -0.86,2.09 -0.91,1.98 -0.96,1.87 -0.98,1.75 -0.99,1.63 -0.98,1.51 -0.97,1.39 -0.94,1.28 -0.90,1.16 -0.83,1.06 -0.77,0.96 -0.68,0.88 -0.59,0.79 -0.49,0.73 -0.38,0.67 -0.27,0.64 -0.15,0.61 -0.03,0.60 0.08,0.60 0.20,0.62 0.32,0.65 0.42,0.70 0.53,0.75 0.63,0.83 0.72,0.91 0.79,1.00 Z" fill="#415fda" stroke="#415fda" stroke-width="1" stroke-linejoin="round" stroke-linecap="round" pointer-events="all"/></g></g><g id="de15a50a-f86b-40d2-3009-bfd80a2c7a1e_svg" class="tl-centered-g" transform="translate(680, 264) rotate(0, 6, 5.6)"><g opacity="1"><path d="M 2.27,7.62 Q 2.27,7.62 2.79,6.80 3.31,5.98 3.35,4.32 3.39,2.66 2.30,4.29 1.22,5.93 1.37,7.61 1.52,9.30 3.24,9.42 4.96,9.55 6.23,9.19 7.49,8.83 9.33,6.12 11.18,3.42 11.29,3.30 11.41,3.19 11.55,3.11 11.69,3.04 11.85,3.02 12.01,3.00 12.17,3.02 12.33,3.05 12.47,3.13 12.62,3.21 12.72,3.33 12.83,3.45 12.90,3.60 12.96,3.75 12.98,3.91 12.99,4.07 12.95,4.23 12.92,4.38 12.83,4.52 12.74,4.66 12.62,4.76 12.49,4.86 12.34,4.92 12.19,4.98 12.03,4.98 11.87,4.99 11.71,4.94 11.56,4.89 11.43,4.80 11.29,4.71 11.20,4.58 11.10,4.45 11.05,4.29 11.01,4.14 11.01,3.98 11.01,3.81 11.07,3.66 11.12,3.51 11.22,3.38 11.32,3.26 11.46,3.17 11.59,3.08 11.75,3.04 11.91,3.00 12.07,3.01 12.23,3.02 12.38,3.09 12.53,3.15 12.65,3.26 12.77,3.36 12.85,3.50 12.93,3.64 12.96,3.80 12.99,3.96 12.97,4.12 12.95,4.28 12.88,4.43 12.81,4.57 12.81,4.57 12.81,4.57 11.19,6.27 9.57,7.97 8.86,9.10 8.15,10.22 6.67,10.88 5.19,11.54 3.86,11.68 2.52,11.83 1.25,10.61 -0.02,9.39 0.01,7.50 0.06,5.61 0.52,4.02 0.98,2.43 1.97,1.42 2.95,0.42 3.75,1.52 4.55,2.63 4.53,4.53 4.52,6.43 4.32,7.40 4.12,8.37 4.07,8.47 4.01,8.58 3.93,8.67 3.84,8.76 3.74,8.82 3.64,8.89 3.53,8.93 3.42,8.97 3.30,8.98 3.18,8.99 3.06,8.98 2.94,8.96 2.83,8.92 2.71,8.87 2.62,8.80 2.52,8.73 2.44,8.64 2.36,8.55 2.31,8.44 2.25,8.33 2.23,8.22 2.20,8.10 2.20,7.98 2.20,7.86 2.24,7.74 Z" fill="#415fda" stroke="#415fda" stroke-width="1" stroke-linejoin="round" stroke-linecap="round" pointer-events="all"/></g></g><g id="0789b82b-a559-4de9-1b26-f5d5f6b1afe9_svg" class="tl-centered-g" transform="translate(690.4, 260) rotate(0, 7.2, 5.6)"><g opacity="1"><path d="M 0.92,-0.37 Q 0.92,-0.37 1.15,0.57 1.37,1.52 2.14,2.64 2.91,3.76 3.93,2.91 4.94,2.06 6.51,1.47 8.09,0.87 9.49,1.20 10.89,1.53 11.87,2.40 12.85,3.26 13.21,5.36 13.57,7.46 14.46,9.19 15.36,10.92 15.38,11.08 15.39,11.24 15.36,11.40 15.33,11.56 15.24,11.70 15.16,11.84 15.04,11.94 14.92,12.05 14.77,12.11 14.62,12.17 14.45,12.18 14.29,12.19 14.14,12.15 13.98,12.11 13.85,12.02 13.71,11.93 13.61,11.80 13.51,11.67 13.46,11.52 13.41,11.36 13.41,11.20 13.41,11.04 13.46,10.89 13.51,10.73 13.61,10.60 13.70,10.47 13.84,10.38 13.97,10.29 14.12,10.25 14.28,10.20 14.44,10.21 14.60,10.22 14.75,10.28 14.90,10.33 15.03,10.44 15.15,10.54 15.24,10.68 15.32,10.82 15.36,10.98 15.39,11.13 15.38,11.30 15.36,11.46 15.29,11.60 15.23,11.75 15.12,11.87 15.01,11.99 14.86,12.06 14.72,12.14 14.56,12.17 14.40,12.19 14.24,12.17 14.08,12.14 13.94,12.07 13.79,11.99 13.68,11.88 13.57,11.76 13.50,11.62 13.43,11.47 13.43,11.47 13.43,11.47 12.97,8.72 12.52,5.98 11.72,4.93 10.93,3.88 9.62,3.27 8.31,2.66 7.01,3.26 5.72,3.86 4.76,5.02 3.80,6.18 2.68,5.44 1.56,4.71 0.81,3.38 0.05,2.05 -0.43,1.21 -0.92,0.37 -0.95,0.25 -0.99,0.13 -0.99,0.01 -0.99,-0.10 -0.96,-0.22 -0.94,-0.33 -0.88,-0.44 -0.83,-0.55 -0.75,-0.64 -0.67,-0.73 -0.57,-0.80 -0.48,-0.87 -0.36,-0.92 -0.25,-0.96 -0.13,-0.98 -0.01,-0.99 0.10,-0.98 0.22,-0.97 0.33,-0.93 0.44,-0.89 0.54,-0.82 0.64,-0.76 0.73,-0.67 0.81,-0.58 0.87,-0.47 Z" fill="#415fda" stroke="#415fda" stroke-width="1" stroke-linejoin="round" stroke-linecap="round" pointer-events="all"/></g></g><g id="5b31c56a-6644-4221-297b-4c00b0ade3b0_svg" class="tl-centered-g" transform="translate(628.8, 424) rotate(0, 2, 10.8)"><g opacity="1"><path d="M 0.97,-0.21 Q 0.97,-0.21 1.32,1.39 1.66,3.01 2.07,4.79 2.47,6.58 2.86,8.65 3.25,10.72 3.47,12.79 3.69,14.87 4.31,17.26 4.94,19.66 4.97,19.82 4.99,19.98 4.97,20.14 4.95,20.30 4.87,20.44 4.80,20.59 4.69,20.70 4.57,20.81 4.42,20.88 4.28,20.95 4.12,20.97 3.96,20.99 3.80,20.96 3.64,20.93 3.50,20.85 3.36,20.77 3.25,20.65 3.15,20.53 3.08,20.38 3.02,20.23 3.01,20.07 3.00,19.90 3.04,19.75 3.08,19.59 3.17,19.46 3.26,19.32 3.38,19.22 3.51,19.12 3.66,19.07 3.82,19.01 3.98,19.01 4.14,19.01 4.29,19.05 4.45,19.10 4.58,19.20 4.71,19.29 4.80,19.43 4.90,19.56 4.94,19.71 4.99,19.87 4.98,20.03 4.98,20.19 4.92,20.34 4.86,20.50 4.76,20.62 4.66,20.75 4.52,20.83 4.38,20.92 4.22,20.95 4.07,20.99 3.91,20.98 3.74,20.96 3.60,20.90 3.45,20.83 3.33,20.72 3.21,20.61 3.13,20.47 3.05,20.33 3.05,20.33 3.05,20.33 2.35,17.71 1.65,15.08 1.44,13.09 1.23,11.10 0.85,9.05 0.46,7.00 0.11,5.21 -0.23,3.43 -0.60,1.82 -0.97,0.21 -0.98,0.09 -0.99,-0.02 -0.98,-0.14 -0.96,-0.26 -0.91,-0.37 -0.87,-0.48 -0.80,-0.58 -0.73,-0.68 -0.64,-0.75 -0.54,-0.83 -0.44,-0.88 -0.33,-0.94 -0.21,-0.96 -0.09,-0.99 0.02,-0.99 0.14,-0.98 0.25,-0.95 0.37,-0.92 0.48,-0.86 0.58,-0.80 0.67,-0.72 0.76,-0.64 0.82,-0.54 0.89,-0.44 0.93,-0.33 Z" fill="#415fda" stroke="#415fda" stroke-width="1" stroke-linejoin="round" stroke-linecap="round" pointer-events="all"/></g></g><g id="ba100ec7-a2b3-48ef-2a89-a09c7b5931e4_svg" class="tl-centered-g" transform="translate(632.8, 428) rotate(0, 6.4, 6)"><g opacity="1"><path d="M 5.66,0.49 Q 5.66,0.49 4.81,1.67 3.96,2.84 3.08,4.36 2.19,5.87 2.20,7.20 2.21,8.53 3.77,9.10 5.32,9.67 6.82,10.28 8.31,10.88 10.49,10.54 12.67,10.20 12.84,10.21 13.00,10.22 13.15,10.27 13.30,10.33 13.42,10.43 13.55,10.54 13.63,10.68 13.72,10.81 13.76,10.97 13.79,11.13 13.78,11.29 13.76,11.45 13.70,11.60 13.63,11.75 13.52,11.86 13.41,11.98 13.27,12.06 13.13,12.14 12.97,12.17 12.81,12.19 12.65,12.17 12.49,12.15 12.34,12.07 12.20,12.00 12.09,11.88 11.97,11.77 11.90,11.62 11.83,11.47 11.82,11.31 11.80,11.15 11.83,10.99 11.86,10.84 11.94,10.70 12.02,10.56 12.15,10.45 12.27,10.34 12.42,10.28 12.57,10.22 12.73,10.21 12.89,10.20 13.05,10.24 13.20,10.28 13.34,10.37 13.47,10.46 13.57,10.59 13.67,10.72 13.73,10.87 13.78,11.02 13.78,11.18 13.78,11.34 13.73,11.50 13.68,11.65 13.59,11.78 13.49,11.91 13.36,12.00 13.23,12.10 13.07,12.14 12.92,12.19 12.92,12.19 12.92,12.19 10.41,12.15 7.90,12.11 6.32,12.07 4.74,12.04 3.30,11.52 1.87,11.00 0.81,9.69 -0.23,8.37 0.36,6.81 0.96,5.26 1.86,3.71 2.76,2.16 3.35,0.83 3.93,-0.49 4.00,-0.59 4.07,-0.68 4.16,-0.76 4.26,-0.84 4.37,-0.89 4.47,-0.94 4.59,-0.97 4.71,-0.99 4.83,-0.99 4.95,-0.98 5.07,-0.95 5.18,-0.92 5.29,-0.86 5.39,-0.80 5.48,-0.71 5.57,-0.63 5.63,-0.53 5.70,-0.43 5.74,-0.31 5.77,-0.20 5.78,-0.08 5.79,0.03 5.78,0.15 5.76,0.27 5.71,0.38 Z" fill="#415fda" stroke="#415fda" stroke-width="1" stroke-linejoin="round" stroke-linecap="round" pointer-events="all"/></g></g><g id="6faf8295-f964-413c-138d-1507e4a40d9e_svg" class="tl-centered-g" transform="translate(648, 425.6) rotate(0, 3.2, 0.8)"><g opacity="1"><path d="M 6.77,0.92 Q 6.77,0.92 5.83,1.17 4.88,1.41 2.45,1.58 0.02,1.74 0.00,1.74 -0.02,1.74 -0.04,1.74 -0.07,1.73 -0.08,1.71 -0.10,1.70 -0.12,1.68 -0.13,1.66 -0.14,1.64 -0.15,1.61 -0.14,1.59 -0.14,1.56 -0.13,1.54 -0.12,1.52 -0.11,1.50 -0.09,1.48 -0.07,1.47 -0.05,1.45 -0.03,1.45 -0.00,1.44 0.01,1.45 0.03,1.45 0.06,1.46 0.08,1.47 0.10,1.49 0.12,1.50 0.13,1.52 0.14,1.55 0.14,1.57 0.15,1.59 0.14,1.62 0.14,1.64 0.13,1.66 0.12,1.69 0.10,1.70 0.08,1.72 0.06,1.73 0.04,1.74 0.01,1.74 -0.00,1.75 -0.03,1.74 -0.05,1.74 -0.07,1.72 -0.09,1.71 -0.11,1.69 -0.12,1.67 -0.13,1.65 -0.14,1.63 -0.14,1.60 -0.15,1.58 -0.14,1.56 -0.13,1.53 -0.12,1.51 -0.11,1.49 -0.09,1.48 -0.07,1.46 -0.04,1.45 -0.02,1.45 -0.02,1.45 -0.02,1.45 2.15,0.73 4.33,0.01 5.17,-0.45 6.02,-0.92 6.14,-0.95 6.26,-0.99 6.38,-0.99 6.50,-0.99 6.62,-0.96 6.73,-0.94 6.84,-0.88 6.95,-0.83 7.04,-0.75 7.13,-0.67 7.20,-0.57 7.27,-0.48 7.32,-0.36 7.36,-0.25 7.38,-0.13 7.39,-0.01 7.38,0.10 7.37,0.22 7.33,0.33 7.29,0.44 7.22,0.54 7.16,0.64 7.07,0.73 6.98,0.81 6.87,0.87 Z" fill="#415fda" stroke="#415fda" stroke-width="1" stroke-linejoin="round" stroke-linecap="round" pointer-events="all"/></g></g><g id="3ee9a26c-15be-47cb-0757-d94091019d14_svg" class="tl-centered-g" transform="translate(661.6, 416.8) rotate(0, 4.8, 6)"><g opacity="1"><path d="M 4.51,2.45 Q 4.51,2.45 3.53,2.79 2.54,3.13 1.95,5.09 1.36,7.05 1.74,8.47 2.12,9.89 3.77,9.48 5.42,9.07 6.60,8.32 7.78,7.57 8.20,5.56 8.62,3.56 7.46,2.93 6.30,2.31 6.16,2.40 6.03,2.49 5.88,2.54 5.72,2.59 5.56,2.58 5.40,2.58 5.25,2.52 5.10,2.46 4.97,2.36 4.85,2.26 4.76,2.12 4.67,1.98 4.64,1.83 4.60,1.67 4.61,1.51 4.63,1.35 4.69,1.20 4.76,1.05 4.87,0.93 4.97,0.81 5.12,0.73 5.26,0.65 5.42,0.62 5.58,0.60 5.74,0.62 5.90,0.64 6.04,0.71 6.18,0.79 6.30,0.90 6.41,1.02 6.48,1.16 6.55,1.31 6.57,1.47 6.59,1.63 6.56,1.79 6.53,1.95 6.45,2.09 6.37,2.23 6.25,2.33 6.13,2.44 5.98,2.50 5.83,2.57 5.67,2.58 5.51,2.59 5.35,2.55 5.19,2.51 5.06,2.42 4.92,2.33 4.82,2.21 4.72,2.08 4.67,1.93 4.61,1.78 4.61,1.61 4.61,1.45 4.65,1.30 4.70,1.14 4.80,1.01 4.89,0.88 4.89,0.88 4.89,0.88 7.54,1.63 10.20,2.39 10.06,3.92 9.93,5.45 9.32,7.10 8.71,8.74 7.48,9.54 6.25,10.33 4.82,11.08 3.39,11.82 2.11,11.20 0.83,10.59 0.40,8.65 -0.01,6.72 0.92,4.46 1.87,2.21 2.67,1.47 3.48,0.74 3.59,0.69 3.70,0.64 3.82,0.62 3.94,0.60 4.06,0.60 4.18,0.61 4.29,0.65 4.41,0.68 4.51,0.75 4.61,0.81 4.70,0.90 4.78,0.98 4.85,1.08 4.91,1.19 4.94,1.30 4.98,1.42 4.99,1.54 4.99,1.66 4.97,1.78 4.95,1.90 4.90,2.01 4.85,2.12 4.77,2.21 4.70,2.30 4.60,2.38 Z" fill="#415fda" stroke="#415fda" stroke-width="1" stroke-linejoin="round" stroke-linecap="round" pointer-events="all"/></g></g><g id="9de72b02-af5e-44bf-269d-74604196ca89_svg" class="tl-centered-g" transform="translate(676, 400.8) rotate(0, 6, 11.2)"><g opacity="1"><path d="M 4.91,10.00 Q 4.91,10.00 4.04,11.54 3.17,13.09 2.82,14.47 2.46,15.86 1.88,17.99 1.30,20.12 2.17,18.15 3.04,16.19 3.25,14.90 3.45,13.61 3.58,12.00 3.71,10.40 3.61,9.01 3.51,7.62 3.31,6.32 3.11,5.02 2.70,3.50 2.29,1.99 1.88,1.94 1.46,1.89 1.42,1.82 1.39,1.74 1.38,1.65 1.36,1.57 1.37,1.48 1.38,1.40 1.40,1.31 1.43,1.23 1.48,1.16 1.52,1.09 1.58,1.03 1.65,0.97 1.72,0.93 1.79,0.88 1.88,0.86 1.96,0.83 2.04,0.83 2.13,0.83 2.21,0.84 2.30,0.86 2.38,0.90 2.45,0.93 2.52,0.99 2.59,1.04 2.64,1.11 2.69,1.18 3.53,3.03 4.37,4.88 5.19,6.35 6.01,7.82 6.65,9.01 7.29,10.20 8.41,12.09 9.54,13.97 11.12,15.03 12.70,16.09 12.79,16.22 12.89,16.35 12.94,16.50 12.99,16.66 12.98,16.82 12.98,16.98 12.92,17.13 12.87,17.28 12.77,17.41 12.66,17.54 12.53,17.63 12.39,17.71 12.24,17.75 12.08,17.79 11.92,17.78 11.76,17.77 11.61,17.70 11.46,17.64 11.34,17.53 11.22,17.42 11.14,17.28 11.06,17.14 11.03,16.98 11.00,16.82 11.02,16.66 11.04,16.50 11.11,16.36 11.18,16.21 11.30,16.10 11.41,15.98 11.55,15.91 11.70,15.84 11.86,15.82 12.02,15.80 12.18,15.83 12.34,15.86 12.48,15.93 12.62,16.01 12.73,16.13 12.84,16.25 12.90,16.40 12.96,16.55 12.98,16.71 12.99,16.87 12.95,17.03 12.91,17.19 12.83,17.32 12.74,17.46 12.62,17.56 12.49,17.66 12.34,17.72 12.19,17.78 12.02,17.78 11.86,17.79 11.71,17.74 11.55,17.69 11.42,17.60 11.29,17.50 11.29,17.50 11.29,17.50 10.22,15.93 9.16,14.36 7.38,12.72 5.61,11.09 4.99,9.89 4.38,8.70 3.57,7.14 2.77,5.59 2.11,3.74 1.46,1.89 1.42,1.82 1.39,1.74 1.38,1.65 1.36,1.57 1.37,1.48 1.38,1.40 1.40,1.31 1.43,1.23 1.48,1.16 1.52,1.09 1.58,1.03 1.65,0.97 1.72,0.93 1.79,0.88 1.88,0.86 1.96,0.83 2.04,0.83 2.13,0.83 2.21,0.84 2.30,0.86 2.38,0.90 2.45,0.93 2.52,0.99 2.59,1.04 2.64,1.11 2.69,1.18 2.66,1.08 2.63,0.99 3.55,2.88 4.47,4.77 4.75,6.14 5.02,7.51 5.15,9.01 5.27,10.51 5.15,12.19 5.04,13.87 4.37,16.50 3.71,19.13 2.66,20.55 1.62,21.97 0.70,20.87 -0.21,19.78 0.43,17.63 1.09,15.48 1.52,14.01 1.95,12.55 2.52,10.87 3.08,9.19 3.14,9.09 3.20,8.98 3.29,8.90 3.37,8.81 3.48,8.75 3.58,8.69 3.70,8.65 3.81,8.61 3.93,8.60 4.05,8.60 4.17,8.62 4.29,8.64 4.40,8.69 4.51,8.74 4.60,8.81 4.70,8.88 4.77,8.98 4.85,9.07 4.90,9.18 4.95,9.29 4.97,9.41 4.99,9.53 4.99,9.65 4.98,9.77 4.94,9.89 Z" fill="#415fda" stroke="#415fda" stroke-width="1" stroke-linejoin="round" stroke-linecap="round" pointer-events="all"/></g></g><g id="808eff7d-f1df-4a1c-174b-da0dfbd5aa2c_svg" class="tl-centered-g" transform="translate(688, 393.6) rotate(0, 8, 10.4)"><g opacity="1"><path d="M 3.82,14.95 Q 3.82,14.95 4.21,14.30 4.60,13.65 3.53,14.52 2.46,15.39 2.12,16.76 1.77,18.13 2.98,16.60 4.19,15.07 4.68,13.18 5.18,11.29 5.20,9.11 5.23,6.93 4.45,5.32 3.67,3.71 2.41,2.62 1.15,1.52 0.98,1.48 0.81,1.44 0.76,1.39 0.70,1.34 0.66,1.28 0.62,1.22 0.59,1.14 0.56,1.07 0.56,1.00 0.55,0.92 0.56,0.85 0.57,0.77 0.59,0.70 0.62,0.63 0.66,0.57 0.71,0.51 0.76,0.46 0.82,0.41 0.89,0.37 0.96,0.34 1.03,0.32 1.10,0.30 1.18,0.30 1.25,0.30 1.33,0.32 1.40,0.34 1.47,0.38 1.53,0.41 2.82,2.62 4.10,4.82 4.95,6.35 5.79,7.88 6.80,9.40 7.80,10.92 8.55,12.35 9.30,13.77 10.61,15.35 11.92,16.93 14.13,17.99 16.33,19.05 16.47,19.13 16.61,19.21 16.72,19.33 16.83,19.45 16.90,19.60 16.96,19.74 16.98,19.90 16.99,20.07 16.96,20.22 16.92,20.38 16.83,20.52 16.75,20.65 16.62,20.76 16.50,20.86 16.35,20.92 16.19,20.97 16.03,20.98 15.87,20.99 15.72,20.94 15.56,20.90 15.43,20.80 15.30,20.71 15.20,20.58 15.10,20.45 15.05,20.29 15.01,20.14 15.01,19.98 15.01,19.82 15.07,19.66 15.12,19.51 15.22,19.39 15.32,19.26 15.45,19.17 15.59,19.08 15.75,19.04 15.90,19.00 16.06,19.01 16.23,19.02 16.38,19.08 16.52,19.15 16.65,19.25 16.77,19.36 16.85,19.50 16.93,19.64 16.96,19.80 16.99,19.96 16.97,20.12 16.95,20.28 16.88,20.42 16.81,20.57 16.70,20.69 16.59,20.80 16.44,20.87 16.30,20.95 16.14,20.97 15.98,20.99 15.82,20.97 15.66,20.94 15.66,20.94 15.66,20.94 13.18,19.46 10.70,17.98 9.29,16.25 7.88,14.52 7.17,13.16 6.45,11.79 5.46,10.20 4.47,8.61 3.63,7.10 2.80,5.59 1.81,3.52 0.81,1.44 0.76,1.39 0.70,1.34 0.66,1.28 0.62,1.22 0.59,1.14 0.56,1.07 0.56,1.00 0.55,0.92 0.56,0.85 0.57,0.77 0.59,0.70 0.62,0.63 0.66,0.57 0.71,0.51 0.76,0.46 0.82,0.41 0.89,0.37 0.96,0.34 1.03,0.32 1.10,0.30 1.18,0.30 1.25,0.30 1.33,0.32 1.40,0.34 1.47,0.38 1.53,0.41 2.32,0.94 3.10,1.46 4.37,3.03 5.64,4.61 6.24,6.92 6.84,9.24 6.55,11.52 6.25,13.80 5.22,15.93 4.19,18.06 2.68,18.63 1.17,19.21 1.20,17.04 1.23,14.86 2.33,13.22 3.42,11.58 4.56,12.73 5.70,13.88 5.73,14.66 5.77,15.44 5.72,15.55 5.68,15.66 5.61,15.76 5.54,15.86 5.45,15.94 5.36,16.02 5.25,16.08 5.15,16.13 5.03,16.16 4.91,16.19 4.79,16.19 4.67,16.19 4.55,16.16 4.44,16.13 4.33,16.07 4.22,16.02 4.13,15.94 4.04,15.86 3.98,15.76 3.91,15.66 3.87,15.54 3.82,15.43 3.81,15.31 3.80,15.19 3.81,15.07 Z" fill="#415fda" stroke="#415fda" stroke-width="1" stroke-linejoin="round" stroke-linecap="round" pointer-events="all"/></g></g><g id="b36e68cb-7094-4dec-2fb0-4feb55945b26_svg" class="tl-centered-g" transform="translate(893.42, 403.44) rotate(0, 8.97, 13.41)"><g opacity="1"><path d="M 11.15,27.59 Q 11.15,27.59 9.99,26.57 8.84,25.56 7.72,24.34 6.60,23.11 5.14,21.15 3.69,19.19 2.63,17.08 1.58,14.96 0.97,13.63 0.36,12.30 -0.00,11.03 -0.37,9.76 -0.65,7.72 -0.93,5.69 0.27,3.50 1.48,1.31 3.07,0.60 4.66,-0.10 6.64,-0.34 8.62,-0.58 10.21,-0.59 11.80,-0.60 13.61,0.08 15.41,0.77 17.10,2.56 18.78,4.34 18.85,4.49 18.91,4.64 18.92,4.80 18.93,4.96 18.89,5.12 18.85,5.28 18.76,5.41 18.67,5.55 18.55,5.65 18.42,5.75 18.27,5.80 18.12,5.86 17.95,5.86 17.79,5.86 17.64,5.81 17.48,5.77 17.35,5.67 17.22,5.57 17.13,5.44 17.04,5.31 16.99,5.16 16.94,5.00 16.95,4.84 16.96,4.68 17.01,4.53 17.07,4.37 17.17,4.25 17.27,4.12 17.41,4.04 17.55,3.95 17.71,3.91 17.86,3.88 18.02,3.89 18.19,3.91 18.33,3.97 18.48,4.04 18.60,4.14 18.72,4.25 18.80,4.40 18.88,4.54 18.91,4.70 18.94,4.86 18.91,5.02 18.89,5.18 18.82,5.32 18.74,5.46 18.63,5.58 18.51,5.69 18.37,5.76 18.22,5.83 18.06,5.85 17.90,5.87 17.74,5.84 17.58,5.81 17.44,5.73 17.30,5.65 17.20,5.53 17.09,5.40 17.09,5.41 17.09,5.41 16.02,3.78 14.95,2.16 13.39,2.24 11.84,2.31 10.39,2.34 8.94,2.37 7.33,2.52 5.71,2.68 4.06,3.54 2.42,4.40 2.09,5.78 1.76,7.17 2.15,9.25 2.54,11.34 3.12,12.67 3.69,14.00 4.65,16.05 5.62,18.10 6.85,19.94 8.09,21.78 9.10,22.93 10.11,24.09 11.28,25.08 12.45,26.07 12.53,26.16 12.61,26.25 12.67,26.35 12.73,26.46 12.76,26.58 12.79,26.69 12.79,26.81 12.79,26.93 12.77,27.05 12.74,27.17 12.68,27.28 12.63,27.38 12.55,27.48 12.47,27.57 12.37,27.64 12.28,27.71 12.16,27.75 12.05,27.80 11.93,27.81 11.81,27.83 11.69,27.81 11.57,27.80 11.46,27.76 11.35,27.72 11.25,27.65 Z" fill="#eb8b35" stroke="#eb8b35" stroke-width="1" stroke-linejoin="round" stroke-linecap="round" pointer-events="all"/></g></g><g id="cc23755c-36b6-4374-20c0-e2edbb112e47_svg" class="tl-centered-g" transform="translate(892, 418.48) rotate(0, 7.31, 1.82)"><g opacity="1"><path d="M 14.70,0.99 Q 14.70,0.99 13.43,0.99 12.15,0.98 9.84,1.60 7.53,2.22 5.72,2.89 3.90,3.56 1.97,3.70 0.05,3.84 0.02,3.84 -0.00,3.85 -0.03,3.84 -0.06,3.84 -0.09,3.82 -0.12,3.80 -0.14,3.78 -0.16,3.76 -0.17,3.73 -0.18,3.70 -0.19,3.67 -0.19,3.64 -0.18,3.61 -0.17,3.57 -0.16,3.55 -0.14,3.52 -0.11,3.50 -0.09,3.48 -0.06,3.47 -0.03,3.46 -0.00,3.46 0.02,3.46 0.05,3.47 0.08,3.48 0.11,3.50 0.13,3.52 0.15,3.54 0.17,3.57 0.18,3.60 0.19,3.63 0.19,3.66 0.19,3.69 0.17,3.72 0.16,3.75 0.14,3.78 0.12,3.80 0.10,3.82 0.07,3.83 0.04,3.84 0.01,3.85 -0.01,3.85 -0.04,3.84 -0.07,3.83 -0.10,3.82 -0.13,3.79 -0.15,3.77 -0.16,3.75 -0.18,3.72 -0.18,3.69 -0.19,3.66 -0.18,3.63 -0.18,3.59 -0.17,3.57 -0.15,3.54 -0.13,3.52 -0.11,3.49 -0.08,3.48 -0.05,3.47 -0.05,3.47 -0.05,3.47 1.56,2.47 3.17,1.46 5.04,0.78 6.92,0.10 9.48,-0.25 12.04,-0.61 13.30,-0.80 14.56,-0.99 14.68,-0.99 14.80,-0.98 14.92,-0.95 15.03,-0.91 15.14,-0.85 15.24,-0.79 15.33,-0.70 15.41,-0.62 15.47,-0.52 15.54,-0.42 15.58,-0.30 15.61,-0.19 15.62,-0.07 15.63,0.04 15.61,0.16 15.59,0.28 15.54,0.39 15.49,0.50 15.42,0.60 15.35,0.69 15.25,0.77 15.16,0.84 15.05,0.90 14.94,0.95 14.82,0.97 Z" fill="#eb8b35" stroke="#eb8b35" stroke-width="1" stroke-linejoin="round" stroke-linecap="round" pointer-events="all"/></g></g><g id="992d812c-1f6b-4c99-2803-51f44f9e7c65_svg" class="tl-centered-g" transform="translate(916.08, 396.12) rotate(0, 3.54, 5.08)"><g opacity="1"><path d="M 0.73,-0.68 Q 0.73,-0.68 1.63,0.17 2.54,1.02 4.00,2.80 5.47,4.57 6.64,6.82 7.81,9.07 7.90,9.21 7.99,9.34 8.03,9.50 8.07,9.65 8.06,9.82 8.05,9.98 7.99,10.13 7.93,10.28 7.82,10.40 7.72,10.52 7.58,10.60 7.44,10.69 7.28,10.72 7.12,10.75 6.96,10.73 6.80,10.71 6.65,10.64 6.51,10.57 6.39,10.46 6.27,10.35 6.20,10.21 6.13,10.06 6.10,9.90 6.08,9.74 6.10,9.58 6.13,9.42 6.21,9.28 6.29,9.14 6.41,9.03 6.52,8.92 6.67,8.85 6.82,8.79 6.98,8.77 7.14,8.75 7.30,8.79 7.46,8.83 7.59,8.91 7.73,9.00 7.84,9.12 7.94,9.25 8.00,9.40 8.06,9.55 8.06,9.71 8.07,9.87 8.02,10.03 7.98,10.18 7.89,10.31 7.80,10.45 7.67,10.54 7.54,10.64 7.38,10.69 7.23,10.74 7.07,10.74 6.90,10.74 6.75,10.68 6.60,10.63 6.47,10.53 6.34,10.43 6.34,10.43 6.34,10.43 4.86,8.24 3.38,6.05 2.11,4.33 0.83,2.61 0.05,1.64 -0.73,0.68 -0.80,0.58 -0.87,0.48 -0.91,0.37 -0.96,0.26 -0.98,0.14 -0.99,0.02 -0.98,-0.09 -0.97,-0.21 -0.93,-0.33 -0.89,-0.44 -0.83,-0.54 -0.76,-0.64 -0.67,-0.72 -0.58,-0.80 -0.48,-0.86 -0.37,-0.92 -0.26,-0.95 -0.14,-0.98 -0.02,-0.99 0.09,-0.99 0.21,-0.96 0.33,-0.94 0.44,-0.88 0.54,-0.83 0.64,-0.75 Z" fill="#eb8b35" stroke="#eb8b35" stroke-width="1" stroke-linejoin="round" stroke-linecap="round" pointer-events="all"/></g></g><g id="c108f33c-1d61-426f-05b3-40915e985147_svg" class="tl-centered-g" transform="translate(921.75, 398.15) rotate(0, 3.30, 2.03)"><g opacity="1"><path d="M 3.48,0.75 Q 3.48,0.75 2.83,1.07 2.18,1.38 4.26,2.03 6.35,2.69 6.51,2.67 6.67,2.66 6.83,2.69 6.99,2.73 7.12,2.81 7.26,2.90 7.36,3.02 7.47,3.15 7.53,3.30 7.58,3.45 7.59,3.61 7.60,3.77 7.55,3.93 7.51,4.08 7.42,4.22 7.32,4.35 7.19,4.45 7.06,4.54 6.91,4.59 6.76,4.64 6.59,4.64 6.43,4.64 6.28,4.59 6.13,4.53 6.00,4.43 5.87,4.33 5.78,4.20 5.69,4.06 5.65,3.91 5.61,3.75 5.62,3.59 5.63,3.43 5.69,3.28 5.75,3.13 5.86,3.01 5.97,2.88 6.11,2.80 6.25,2.72 6.40,2.69 6.56,2.65 6.72,2.67 6.88,2.69 7.03,2.76 7.18,2.83 7.29,2.95 7.41,3.06 7.48,3.20 7.56,3.35 7.58,3.51 7.60,3.67 7.58,3.82 7.55,3.98 7.47,4.13 7.39,4.27 7.28,4.38 7.16,4.49 7.01,4.55 6.86,4.62 6.86,4.62 6.86,4.62 4.39,4.65 1.92,4.68 0.84,3.74 -0.23,2.79 0.56,1.61 1.36,0.43 1.77,-0.16 2.18,-0.75 2.28,-0.82 2.38,-0.89 2.49,-0.93 2.60,-0.97 2.72,-0.98 2.84,-0.99 2.96,-0.98 3.08,-0.96 3.19,-0.92 3.30,-0.87 3.40,-0.80 3.50,-0.73 3.58,-0.64 3.66,-0.55 3.71,-0.44 3.77,-0.34 3.79,-0.22 3.82,-0.10 3.82,0.01 3.82,0.13 3.79,0.25 3.76,0.36 3.70,0.47 3.64,0.57 3.56,0.66 Z" fill="#eb8b35" stroke="#eb8b35" stroke-width="1" stroke-linejoin="round" stroke-linecap="round" pointer-events="all"/></g></g><g id="4878108d-89dc-44ff-18d3-cbe79e2e8adf_svg" class="tl-centered-g" transform="translate(925.05, 388.8) rotate(0, 4.72, 9.14)"><g opacity="1"><path d="M -0.14,-0.58 Q -0.14,-0.58 0.50,-0.58 1.15,-0.59 2.62,-0.37 4.10,-0.16 5.62,1.52 7.15,3.20 7.75,4.43 8.36,5.66 8.72,7.22 9.09,8.79 9.15,10.12 9.21,11.46 9.35,14.88 9.49,18.31 9.46,18.47 9.43,18.63 9.36,18.77 9.28,18.91 9.16,19.02 9.04,19.13 8.89,19.19 8.74,19.26 8.58,19.27 8.42,19.29 8.26,19.25 8.11,19.21 7.97,19.13 7.83,19.04 7.73,18.91 7.63,18.79 7.57,18.64 7.51,18.49 7.51,18.32 7.50,18.16 7.55,18.01 7.59,17.85 7.69,17.72 7.78,17.59 7.91,17.49 8.04,17.40 8.20,17.35 8.35,17.30 8.51,17.30 8.67,17.31 8.83,17.36 8.98,17.42 9.11,17.52 9.23,17.62 9.32,17.75 9.41,17.89 9.45,18.04 9.49,18.20 9.48,18.36 9.47,18.52 9.40,18.67 9.34,18.82 9.23,18.94 9.13,19.06 8.99,19.15 8.85,19.23 8.69,19.26 8.53,19.29 8.37,19.27 8.21,19.25 8.06,19.18 7.92,19.11 7.80,18.99 7.69,18.88 7.61,18.74 7.54,18.59 7.52,18.43 7.49,18.27 7.49,18.27 7.49,18.27 7.85,16.04 8.20,13.81 7.94,11.50 7.68,9.20 7.19,7.84 6.70,6.48 5.55,4.52 4.40,2.55 2.89,1.79 1.38,1.04 0.76,1.21 0.14,1.39 0.02,1.39 -0.09,1.40 -0.21,1.37 -0.33,1.34 -0.44,1.29 -0.55,1.24 -0.64,1.16 -0.73,1.08 -0.80,0.98 -0.87,0.89 -0.92,0.77 -0.96,0.66 -0.98,0.54 -0.99,0.42 -0.98,0.30 -0.97,0.18 -0.93,0.07 -0.89,-0.03 -0.82,-0.13 -0.76,-0.24 -0.67,-0.32 -0.58,-0.40 -0.48,-0.46 -0.37,-0.52 -0.25,-0.55 Z" fill="#eb8b35" stroke="#eb8b35" stroke-width="1" stroke-linejoin="round" stroke-linecap="round" pointer-events="all"/></g></g><g id="4aa6f371-7cac-4fb3-15cb-4181c0fe38ad_svg" class="tl-centered-g" transform="translate(909, 390.02) rotate(0, 6.60, 7.92)"><g opacity="1"><path d="M 0.91,-0.39 Q 0.91,-0.39 1.53,1.06 2.16,2.52 3.42,4.50 4.69,6.49 6.20,8.28 7.72,10.08 9.25,11.64 10.78,13.20 11.96,13.22 13.15,13.23 13.31,13.24 13.47,13.26 13.62,13.32 13.77,13.39 13.88,13.50 14.00,13.61 14.08,13.75 14.16,13.89 14.19,14.05 14.21,14.21 14.19,14.37 14.17,14.53 14.09,14.68 14.02,14.82 13.90,14.93 13.79,15.05 13.64,15.12 13.49,15.18 13.33,15.20 13.17,15.22 13.01,15.19 12.86,15.16 12.72,15.08 12.58,14.99 12.47,14.87 12.36,14.75 12.30,14.60 12.24,14.45 12.23,14.29 12.22,14.13 12.26,13.97 12.30,13.82 12.39,13.68 12.48,13.55 12.61,13.45 12.74,13.35 12.89,13.29 13.04,13.24 13.20,13.24 13.36,13.24 13.52,13.29 13.67,13.34 13.80,13.43 13.93,13.53 14.02,13.66 14.12,13.79 14.16,13.95 14.21,14.10 14.20,14.27 14.19,14.43 14.14,14.58 14.08,14.73 13.97,14.85 13.87,14.98 13.73,15.06 13.60,15.15 13.44,15.19 13.28,15.22 13.28,15.22 13.28,15.22 10.50,14.42 7.72,13.61 6.79,12.64 5.87,11.67 4.98,10.59 4.09,9.51 2.89,7.64 1.68,5.76 1.03,4.53 0.37,3.30 -0.27,1.84 -0.91,0.39 -0.95,0.28 -0.98,0.16 -0.99,0.04 -0.99,-0.07 -0.97,-0.19 -0.95,-0.30 -0.90,-0.41 -0.84,-0.52 -0.77,-0.62 -0.69,-0.71 -0.60,-0.78 -0.50,-0.86 -0.39,-0.91 -0.28,-0.95 -0.16,-0.97 -0.04,-0.99 0.07,-0.99 0.19,-0.98 0.30,-0.94 0.42,-0.90 0.52,-0.84 0.62,-0.77 0.71,-0.69 0.79,-0.60 0.85,-0.50 Z" fill="#eb8b35" stroke="#eb8b35" stroke-width="1" stroke-linejoin="round" stroke-linecap="round" pointer-events="all"/></g></g><g id="f5e0703f-4eee-4fb2-01ba-0a75d8806b1a_svg" class="tl-centered-g" transform="translate(938.74, 410.75) rotate(0, 4.24, 10.97)"><g opacity="1"><path d="M 3.78,0.31 Q 3.78,0.31 3.20,1.53 2.62,2.75 2.26,4.29 1.91,5.82 1.72,7.26 1.54,8.69 2.04,11.13 2.54,13.57 3.66,15.74 4.79,17.92 6.94,19.54 9.09,21.15 9.21,21.27 9.32,21.38 9.39,21.53 9.46,21.68 9.47,21.84 9.49,22.00 9.46,22.16 9.42,22.31 9.34,22.45 9.26,22.59 9.14,22.70 9.01,22.80 8.86,22.86 8.71,22.92 8.55,22.93 8.39,22.94 8.23,22.90 8.08,22.86 7.94,22.77 7.81,22.68 7.71,22.55 7.61,22.42 7.56,22.27 7.51,22.12 7.51,21.95 7.51,21.79 7.56,21.64 7.61,21.48 7.71,21.36 7.80,21.23 7.94,21.13 8.07,21.04 8.23,21.00 8.38,20.96 8.54,20.96 8.70,20.97 8.85,21.03 9.01,21.09 9.13,21.19 9.25,21.30 9.34,21.44 9.42,21.57 9.46,21.73 9.49,21.89 9.47,22.05 9.46,22.21 9.39,22.36 9.32,22.51 9.21,22.62 9.10,22.74 8.96,22.82 8.82,22.90 8.66,22.92 8.50,22.95 8.34,22.92 8.18,22.90 8.03,22.82 7.89,22.75 7.89,22.75 7.89,22.75 5.68,20.83 3.46,18.91 2.48,17.78 1.49,16.66 0.95,15.41 0.40,14.16 0.07,12.74 -0.26,11.33 -0.29,9.86 -0.32,8.39 -0.02,6.87 0.28,5.35 0.81,3.84 1.35,2.33 1.61,1.01 1.88,-0.31 1.93,-0.42 1.98,-0.53 2.06,-0.62 2.13,-0.71 2.23,-0.79 2.33,-0.86 2.44,-0.91 2.55,-0.96 2.67,-0.97 2.79,-0.99 2.91,-0.98 3.03,-0.98 3.14,-0.94 3.25,-0.90 3.36,-0.83 3.46,-0.77 3.54,-0.68 3.63,-0.60 3.69,-0.49 3.75,-0.39 3.78,-0.27 3.81,-0.16 3.82,-0.04 3.82,0.07 3.80,0.19 Z" fill="#eb8b35" stroke="#eb8b35" stroke-width="1" stroke-linejoin="round" stroke-linecap="round" pointer-events="all"/></g></g><g id="641d3d94-91b0-421c-2268-18c2c5b95a7a_svg" class="tl-centered-g" transform="translate(945.82, 412.78) rotate(0, 5.19, 6.50)"><g opacity="1"><path d="M -0.60,2.45 Q -0.60,2.45 0.30,1.90 1.22,1.35 2.54,0.61 3.86,-0.13 5.62,0.72 7.37,1.58 8.62,3.20 9.87,4.83 10.22,6.10 10.57,7.36 9.29,7.75 8.02,8.13 6.40,7.39 4.79,6.64 3.67,7.46 2.56,8.28 3.20,9.62 3.84,10.96 4.69,9.89 5.53,8.81 6.87,7.17 8.21,5.53 8.24,5.49 8.27,5.45 8.31,5.42 8.36,5.39 8.41,5.38 8.46,5.36 8.51,5.37 8.56,5.37 8.61,5.39 8.66,5.41 8.70,5.44 8.74,5.48 8.77,5.52 8.80,5.57 8.81,5.62 8.82,5.67 8.81,5.72 8.81,5.78 8.78,5.82 8.76,5.87 8.73,5.91 8.69,5.95 8.64,5.97 8.60,6.00 8.54,6.00 8.49,6.01 8.44,6.00 8.39,6.00 8.34,5.97 8.29,5.95 8.26,5.91 8.22,5.87 8.20,5.82 8.18,5.77 8.17,5.72 8.17,5.67 8.18,5.62 8.19,5.56 8.22,5.52 8.25,5.47 8.29,5.44 8.33,5.41 8.38,5.39 8.42,5.37 8.48,5.37 8.53,5.36 8.58,5.38 8.63,5.39 8.68,5.42 8.72,5.45 8.75,5.49 8.78,5.54 8.80,5.59 8.82,5.64 8.82,5.69 8.81,5.74 8.80,5.79 8.78,5.84 8.78,5.84 8.78,5.84 7.68,8.73 6.58,11.62 4.93,12.43 3.28,13.24 2.25,12.10 1.22,10.96 1.25,9.22 1.28,7.49 2.44,6.51 3.61,5.53 5.05,5.53 6.49,5.54 7.61,6.29 8.74,7.05 7.96,5.77 7.19,4.48 6.09,3.37 5.00,2.26 3.57,2.43 2.15,2.60 1.38,3.32 0.60,4.05 0.49,4.11 0.39,4.17 0.27,4.20 0.16,4.23 0.04,4.24 -0.07,4.24 -0.19,4.22 -0.31,4.20 -0.42,4.14 -0.53,4.09 -0.62,4.02 -0.72,3.94 -0.79,3.84 -0.86,3.75 -0.91,3.64 -0.96,3.53 -0.97,3.41 -0.99,3.29 -0.98,3.17 -0.98,3.05 -0.94,2.93 -0.90,2.82 -0.83,2.72 -0.77,2.62 -0.68,2.53 Z" fill="#eb8b35" stroke="#eb8b35" stroke-width="1" stroke-linejoin="round" stroke-linecap="round" pointer-events="all"/></g></g><g id="21aeb936-5fea-4817-09bd-2f4383062c04_svg" class="tl-centered-g" transform="translate(991.15, 399.78) rotate(0, 8.02, 11.79)"><g opacity="1"><path d="M 6.26,3.23 Q 6.26,3.23 5.38,3.82 4.50,4.40 3.54,6.22 2.58,8.05 2.07,10.18 1.56,12.31 2.00,13.86 2.44,15.41 3.51,16.78 4.58,18.16 5.78,19.51 6.99,20.86 8.43,21.21 9.87,21.56 11.23,20.54 12.60,19.53 13.21,18.38 13.82,17.23 14.19,15.43 14.56,13.63 14.43,11.73 14.31,9.83 13.87,8.46 13.43,7.08 12.75,5.95 12.07,4.83 10.72,3.69 9.36,2.56 7.96,2.13 6.57,1.70 4.60,2.15 2.62,2.59 2.46,2.60 2.30,2.62 2.14,2.58 1.98,2.55 1.84,2.46 1.71,2.38 1.60,2.26 1.50,2.13 1.44,1.98 1.38,1.83 1.37,1.67 1.36,1.51 1.41,1.35 1.45,1.20 1.54,1.06 1.63,0.93 1.76,0.83 1.89,0.74 2.04,0.68 2.20,0.63 2.36,0.63 2.52,0.64 2.67,0.69 2.83,0.74 2.96,0.84 3.08,0.94 3.17,1.07 3.26,1.20 3.31,1.36 3.35,1.52 3.34,1.68 3.33,1.84 3.27,1.99 3.21,2.14 3.11,2.26 3.00,2.39 2.86,2.47 2.72,2.55 2.56,2.59 2.41,2.62 2.24,2.60 2.08,2.58 1.94,2.52 1.79,2.45 1.67,2.33 1.56,2.22 1.48,2.08 1.41,1.94 1.38,1.78 1.36,1.62 1.38,1.46 1.41,1.30 1.49,1.16 1.56,1.01 1.68,0.90 1.80,0.79 1.95,0.72 2.09,0.66 2.09,0.66 2.09,0.66 3.83,0.06 5.57,-0.52 7.13,-0.49 8.68,-0.46 10.12,0.42 11.56,1.31 12.80,2.55 14.03,3.78 14.74,5.00 15.46,6.21 15.98,7.88 16.50,9.55 16.68,11.75 16.86,13.95 16.46,15.99 16.06,18.03 15.23,19.60 14.40,21.17 13.10,22.24 11.80,23.30 10.23,23.74 8.65,24.17 6.96,23.34 5.27,22.50 4.00,21.13 2.73,19.75 1.47,18.07 0.21,16.39 -0.17,14.14 -0.55,11.90 0.08,9.59 0.73,7.29 2.08,5.15 3.44,3.01 4.25,2.32 5.06,1.64 5.16,1.58 5.27,1.51 5.38,1.48 5.50,1.45 5.62,1.44 5.74,1.44 5.86,1.46 5.98,1.49 6.09,1.54 6.19,1.59 6.29,1.66 6.38,1.74 6.45,1.84 6.53,1.93 6.57,2.04 6.62,2.15 6.64,2.27 6.66,2.39 6.65,2.51 6.64,2.63 6.60,2.75 6.56,2.86 6.50,2.96 6.44,3.07 6.35,3.15 Z" fill="#eb8b35" stroke="#eb8b35" stroke-width="1" stroke-linejoin="round" stroke-linecap="round" pointer-events="all"/></g></g><g id="8b2e0196-dda5-4c1a-25d8-3fa7ab3c1b5c_svg" class="tl-centered-g" transform="translate(881.34, 290.16) rotate(0, 8.47, 12.98)"><g opacity="1"><path d="M 10.48,26.71 Q 10.48,26.71 9.39,25.73 8.30,24.76 7.24,23.57 6.18,22.38 4.80,20.48 3.42,18.58 2.42,16.53 1.42,14.49 0.85,13.20 0.28,11.91 -0.30,9.65 -0.89,7.38 -0.59,5.32 -0.29,3.26 2.03,1.56 4.36,-0.14 6.24,-0.37 8.12,-0.61 9.63,-0.62 11.15,-0.62 12.86,0.05 14.57,0.73 16.18,2.46 17.79,4.19 17.85,4.34 17.91,4.49 17.92,4.66 17.93,4.82 17.89,4.97 17.85,5.13 17.76,5.26 17.67,5.40 17.54,5.50 17.41,5.60 17.26,5.65 17.11,5.70 16.95,5.70 16.79,5.70 16.63,5.65 16.48,5.60 16.35,5.51 16.22,5.41 16.13,5.28 16.03,5.14 15.99,4.99 15.95,4.83 15.95,4.67 15.96,4.51 16.02,4.36 16.08,4.21 16.18,4.08 16.29,3.96 16.42,3.87 16.56,3.79 16.72,3.75 16.88,3.72 17.04,3.73 17.20,3.75 17.35,3.82 17.49,3.88 17.61,3.99 17.73,4.11 17.81,4.25 17.88,4.39 17.91,4.55 17.94,4.71 17.91,4.87 17.89,5.03 17.81,5.17 17.74,5.32 17.62,5.43 17.51,5.54 17.36,5.61 17.21,5.68 17.05,5.70 16.89,5.72 16.73,5.68 16.58,5.65 16.44,5.57 16.30,5.48 16.19,5.36 16.09,5.24 16.09,5.24 16.09,5.24 15.09,3.68 14.10,2.11 12.64,2.20 11.18,2.28 9.82,2.31 8.46,2.34 6.94,2.49 5.43,2.63 3.90,3.44 2.36,4.26 2.05,5.60 1.73,6.93 2.10,8.95 2.46,10.97 3.01,12.26 3.55,13.55 4.46,15.53 5.36,17.51 6.53,19.29 7.69,21.07 8.64,22.18 9.59,23.30 10.70,24.25 11.80,25.21 11.88,25.30 11.96,25.39 12.02,25.50 12.08,25.61 12.11,25.72 12.14,25.84 12.14,25.96 12.14,26.08 12.11,26.20 12.08,26.31 12.02,26.42 11.97,26.53 11.89,26.62 11.81,26.71 11.71,26.78 11.61,26.85 11.50,26.89 11.38,26.93 11.26,26.95 11.14,26.96 11.02,26.95 10.91,26.93 10.79,26.89 10.68,26.85 10.58,26.78 Z" fill="#eb2435" stroke="#eb2435" stroke-width="1" stroke-linejoin="round" stroke-linecap="round" pointer-events="all"/></g></g><g id="f67b72ba-2b4b-4ae3-097a-492574d00add_svg" class="tl-centered-g" transform="translate(880, 304.72) rotate(0, 6.91, 1.77)"><g opacity="1"><path d="M 13.89,0.99 Q 13.89,0.99 12.69,0.98 11.48,0.97 9.31,1.58 7.14,2.18 5.42,2.83 3.71,3.47 1.88,3.60 0.05,3.72 0.02,3.73 -0.00,3.73 -0.03,3.72 -0.06,3.72 -0.09,3.70 -0.12,3.69 -0.14,3.66 -0.16,3.64 -0.17,3.61 -0.18,3.58 -0.19,3.55 -0.19,3.52 -0.18,3.49 -0.17,3.46 -0.16,3.43 -0.14,3.41 -0.11,3.39 -0.09,3.37 -0.06,3.36 -0.03,3.34 -0.00,3.34 0.02,3.34 0.05,3.35 0.08,3.36 0.11,3.38 0.13,3.40 0.15,3.43 0.17,3.45 0.18,3.48 0.19,3.51 0.19,3.54 0.19,3.57 0.17,3.60 0.16,3.63 0.14,3.66 0.12,3.68 0.10,3.70 0.07,3.72 0.04,3.72 0.01,3.73 -0.01,3.73 -0.04,3.72 -0.07,3.71 -0.10,3.70 -0.12,3.68 -0.15,3.66 -0.16,3.63 -0.18,3.60 -0.18,3.57 -0.19,3.54 -0.18,3.51 -0.18,3.48 -0.17,3.45 -0.15,3.42 -0.13,3.40 -0.11,3.38 -0.08,3.36 -0.05,3.35 -0.05,3.35 -0.05,3.35 1.45,2.37 2.97,1.39 4.74,0.72 6.51,0.06 8.94,-0.27 11.36,-0.62 12.55,-0.81 13.74,-0.99 13.87,-0.99 13.99,-0.98 14.10,-0.95 14.22,-0.91 14.32,-0.85 14.42,-0.79 14.51,-0.71 14.60,-0.62 14.66,-0.52 14.72,-0.42 14.76,-0.30 14.80,-0.19 14.81,-0.07 14.82,0.04 14.80,0.16 14.78,0.28 14.73,0.39 14.68,0.50 14.61,0.60 14.53,0.69 14.44,0.77 14.35,0.84 14.24,0.89 14.13,0.95 14.01,0.97 Z" fill="#eb2435" stroke="#eb2435" stroke-width="1" stroke-linejoin="round" stroke-linecap="round" pointer-events="all"/></g></g><g id="4551bc18-ff8e-4b0d-1f66-75e3e9a5b4b9_svg" class="tl-centered-g" transform="translate(902.74, 283.08) rotate(0, 3.34, 4.91)"><g opacity="1"><path d="M 0.74,-0.67 Q 0.74,-0.67 1.59,0.15 2.45,0.98 3.84,2.70 5.23,4.42 6.33,6.59 7.42,8.77 7.51,8.90 7.60,9.04 7.64,9.20 7.68,9.35 7.67,9.51 7.66,9.67 7.59,9.82 7.53,9.97 7.42,10.09 7.31,10.21 7.17,10.29 7.03,10.37 6.87,10.41 6.71,10.44 6.55,10.42 6.39,10.39 6.25,10.32 6.10,10.25 5.99,10.14 5.87,10.02 5.80,9.88 5.73,9.74 5.71,9.58 5.68,9.41 5.71,9.26 5.74,9.10 5.82,8.96 5.90,8.81 6.02,8.71 6.14,8.60 6.29,8.53 6.44,8.47 6.60,8.45 6.76,8.44 6.92,8.48 7.07,8.52 7.21,8.60 7.35,8.69 7.45,8.82 7.55,8.94 7.61,9.09 7.66,9.25 7.67,9.41 7.67,9.57 7.63,9.72 7.58,9.88 7.49,10.01 7.39,10.14 7.26,10.24 7.13,10.33 6.98,10.38 6.82,10.43 6.66,10.42 6.50,10.42 6.35,10.37 6.19,10.31 6.07,10.21 5.94,10.11 5.94,10.11 5.94,10.11 4.54,7.99 3.13,5.87 1.93,4.20 0.73,2.54 -0.00,1.60 -0.74,0.67 -0.81,0.57 -0.88,0.47 -0.92,0.36 -0.96,0.25 -0.98,0.13 -0.99,0.01 -0.98,-0.10 -0.97,-0.22 -0.93,-0.34 -0.89,-0.45 -0.82,-0.55 -0.75,-0.65 -0.66,-0.73 -0.57,-0.81 -0.47,-0.87 -0.36,-0.93 -0.24,-0.96 -0.13,-0.99 -0.01,-0.99 0.10,-0.99 0.22,-0.96 0.34,-0.93 0.45,-0.88 0.55,-0.82 0.64,-0.75 Z" fill="#eb2435" stroke="#eb2435" stroke-width="1" stroke-linejoin="round" stroke-linecap="round" pointer-events="all"/></g></g><g id="518bc38c-34ec-4ba5-28ac-f48cf1ee3608_svg" class="tl-centered-g" transform="translate(908.09, 285.05) rotate(0, 3.12, 1.96)"><g opacity="1"><path d="M 3.39,0.69 Q 3.39,0.69 2.66,1.18 1.92,1.66 3.95,2.12 5.98,2.57 6.14,2.55 6.30,2.54 6.46,2.57 6.61,2.61 6.75,2.69 6.89,2.78 6.99,2.90 7.10,3.03 7.16,3.18 7.22,3.33 7.22,3.49 7.23,3.65 7.19,3.81 7.14,3.96 7.05,4.09 6.96,4.23 6.83,4.33 6.70,4.42 6.55,4.47 6.39,4.52 6.23,4.52 6.07,4.52 5.92,4.47 5.76,4.42 5.64,4.32 5.51,4.22 5.42,4.08 5.33,3.95 5.29,3.79 5.24,3.64 5.25,3.48 5.26,3.31 5.32,3.16 5.38,3.01 5.49,2.89 5.60,2.77 5.73,2.69 5.87,2.60 6.03,2.57 6.19,2.54 6.35,2.56 6.51,2.57 6.66,2.64 6.80,2.71 6.92,2.82 7.04,2.94 7.11,3.08 7.19,3.22 7.21,3.38 7.24,3.54 7.21,3.70 7.18,3.86 7.11,4.00 7.03,4.15 6.91,4.26 6.79,4.37 6.65,4.43 6.50,4.50 6.50,4.50 6.50,4.50 4.64,4.62 2.78,4.75 1.50,4.09 0.21,3.42 0.62,2.11 1.02,0.79 1.49,0.04 1.95,-0.69 2.05,-0.77 2.14,-0.84 2.25,-0.89 2.36,-0.95 2.48,-0.97 2.60,-0.99 2.72,-0.99 2.84,-0.98 2.95,-0.95 3.07,-0.91 3.17,-0.85 3.28,-0.79 3.36,-0.71 3.45,-0.62 3.51,-0.52 3.58,-0.42 3.61,-0.30 3.65,-0.19 3.66,-0.07 3.67,0.04 3.65,0.16 3.63,0.28 3.58,0.39 3.53,0.50 3.46,0.60 Z" fill="#eb2435" stroke="#eb2435" stroke-width="1" stroke-linejoin="round" stroke-linecap="round" pointer-events="all"/></g></g><g id="b91b60bd-8ffa-4258-3aa3-0e5764bf46eb_svg" class="tl-centered-g" transform="translate(911.21, 276) rotate(0, 4.45, 8.85)"><g opacity="1"><path d="M 0,-0.60 Q 0,-0.60 0.90,-0.58 1.80,-0.55 3.47,0.26 5.14,1.08 6.51,3.27 7.87,5.47 8.23,6.98 8.59,8.50 8.53,10.94 8.46,13.38 8.74,15.55 9.02,17.72 8.99,17.87 8.96,18.03 8.89,18.18 8.81,18.32 8.69,18.43 8.57,18.54 8.42,18.60 8.27,18.67 8.11,18.68 7.95,18.70 7.79,18.66 7.64,18.62 7.50,18.54 7.36,18.45 7.26,18.33 7.16,18.20 7.10,18.05 7.04,17.90 7.04,17.74 7.03,17.58 7.07,17.42 7.12,17.27 7.21,17.13 7.31,17.00 7.44,16.90 7.57,16.81 7.72,16.76 7.88,16.71 8.04,16.71 8.20,16.72 8.35,16.77 8.50,16.82 8.63,16.92 8.76,17.02 8.85,17.16 8.94,17.29 8.98,17.45 9.02,17.61 9.01,17.77 8.99,17.93 8.93,18.08 8.87,18.23 8.76,18.35 8.66,18.47 8.52,18.55 8.38,18.63 8.22,18.67 8.06,18.70 7.90,18.68 7.74,18.66 7.59,18.59 7.45,18.52 7.33,18.41 7.22,18.29 7.14,18.15 7.07,18.00 7.04,17.84 7.02,17.68 7.02,17.68 7.02,17.68 7.37,15.52 7.72,13.37 7.45,11.14 7.18,8.91 6.16,6.56 5.14,4.20 3.46,2.77 1.78,1.34 0.89,1.36 0,1.39 -0.11,1.37 -0.23,1.36 -0.35,1.32 -0.46,1.27 -0.56,1.21 -0.66,1.14 -0.74,1.05 -0.82,0.96 -0.87,0.85 -0.93,0.74 -0.96,0.63 -0.99,0.51 -0.99,0.39 -0.99,0.27 -0.96,0.15 -0.93,0.03 -0.87,-0.06 -0.82,-0.17 -0.74,-0.26 -0.66,-0.35 -0.56,-0.42 -0.46,-0.49 -0.35,-0.53 -0.23,-0.57 -0.11,-0.59 Z" fill="#eb2435" stroke="#eb2435" stroke-width="1" stroke-linejoin="round" stroke-linecap="round" pointer-events="all"/></g></g><g id="48ed7bd2-f532-4089-1f34-93d04e53571a_svg" class="tl-centered-g" transform="translate(896.05, 277.18) rotate(0, 6.24, 7.67)"><g opacity="1"><path d="M 0.92,-0.39 Q 0.92,-0.39 1.50,1.02 2.09,2.43 3.29,4.35 4.49,6.27 5.92,8.01 7.35,9.74 8.79,11.25 10.23,12.75 11.32,12.76 12.41,12.77 12.57,12.78 12.73,12.80 12.88,12.86 13.03,12.93 13.15,13.04 13.27,13.15 13.35,13.29 13.42,13.43 13.45,13.59 13.48,13.75 13.46,13.91 13.43,14.07 13.36,14.22 13.28,14.36 13.17,14.47 13.05,14.59 12.91,14.66 12.76,14.73 12.60,14.75 12.44,14.76 12.28,14.73 12.12,14.70 11.98,14.62 11.84,14.54 11.74,14.41 11.63,14.29 11.57,14.14 11.51,13.99 11.50,13.83 11.48,13.67 11.53,13.51 11.57,13.36 11.66,13.22 11.75,13.09 11.87,12.99 12.00,12.89 12.15,12.83 12.31,12.78 12.47,12.78 12.63,12.78 12.78,12.83 12.94,12.88 13.07,12.97 13.20,13.07 13.29,13.20 13.38,13.33 13.43,13.49 13.47,13.64 13.47,13.81 13.46,13.97 13.40,14.12 13.34,14.27 13.24,14.39 13.14,14.52 13.00,14.60 12.86,14.69 12.71,14.73 12.55,14.76 12.55,14.76 12.55,14.76 10.64,14.68 8.73,14.59 7.10,12.95 5.48,11.31 4.64,10.26 3.81,9.21 2.67,7.40 1.53,5.59 0.91,4.39 0.30,3.19 -0.30,1.79 -0.92,0.39 -0.95,0.27 -0.98,0.15 -0.99,0.03 -0.99,-0.08 -0.97,-0.19 -0.94,-0.31 -0.89,-0.42 -0.84,-0.53 -0.76,-0.62 -0.69,-0.72 -0.59,-0.79 -0.49,-0.86 -0.38,-0.91 -0.27,-0.96 -0.15,-0.98 -0.03,-0.99 0.08,-0.98 0.20,-0.97 0.31,-0.94 0.42,-0.90 0.53,-0.83 0.63,-0.77 0.71,-0.68 0.80,-0.59 0.86,-0.49 Z" fill="#eb2435" stroke="#eb2435" stroke-width="1" stroke-linejoin="round" stroke-linecap="round" pointer-events="all"/></g></g><g id="1d1a722a-3ac8-43bf-29e4-4ec7390a4221_svg" class="tl-centered-g" transform="translate(924.14, 297.25) rotate(0, 4.01, 10.62)"><g opacity="1"><path d="M 3.62,0.30 Q 3.62,0.30 3.07,1.48 2.51,2.67 2.18,4.15 1.85,5.64 1.68,7.03 1.50,8.41 1.98,10.77 2.46,13.13 3.51,15.23 4.56,17.33 6.60,18.89 8.63,20.45 8.74,20.57 8.85,20.69 8.92,20.83 8.99,20.98 9.00,21.14 9.02,21.30 8.98,21.46 8.95,21.62 8.86,21.76 8.78,21.89 8.65,22.00 8.53,22.10 8.38,22.16 8.23,22.22 8.07,22.23 7.91,22.23 7.75,22.19 7.59,22.15 7.46,22.05 7.33,21.96 7.23,21.83 7.13,21.70 7.08,21.55 7.03,21.40 7.03,21.23 7.04,21.07 7.09,20.92 7.14,20.77 7.24,20.64 7.34,20.51 7.47,20.42 7.61,20.33 7.76,20.29 7.92,20.25 8.08,20.26 8.24,20.27 8.39,20.33 8.54,20.39 8.67,20.49 8.79,20.60 8.87,20.74 8.95,20.88 8.99,21.04 9.02,21.19 9.00,21.35 8.98,21.52 8.91,21.66 8.84,21.81 8.73,21.92 8.62,22.04 8.48,22.12 8.33,22.19 8.17,22.22 8.01,22.24 7.85,22.21 7.69,22.19 7.55,22.11 7.41,22.03 7.41,22.03 7.41,22.03 5.32,20.17 3.23,18.30 2.29,17.22 1.35,16.13 0.83,14.92 0.32,13.71 0.00,12.33 -0.30,10.96 -0.33,9.54 -0.36,8.12 -0.07,6.65 0.21,5.17 0.73,3.71 1.24,2.25 1.48,0.97 1.72,-0.30 1.77,-0.41 1.82,-0.52 1.90,-0.62 1.97,-0.71 2.07,-0.78 2.16,-0.86 2.27,-0.90 2.38,-0.95 2.50,-0.97 2.62,-0.99 2.74,-0.99 2.86,-0.98 2.98,-0.94 3.09,-0.90 3.19,-0.84 3.30,-0.78 3.38,-0.69 3.46,-0.60 3.53,-0.50 3.59,-0.40 3.62,-0.28 3.66,-0.16 3.66,-0.04 3.67,0.07 3.64,0.18 Z" fill="#eb2435" stroke="#eb2435" stroke-width="1" stroke-linejoin="round" stroke-linecap="round" pointer-events="all"/></g></g><g id="43dcc9a3-5281-4ed9-175c-8ca6627716b7_svg" class="tl-centered-g" transform="translate(930.83, 299.21) rotate(0, 4.90, 6.29)"><g opacity="1"><path d="M -0.57,2.33 Q -0.57,2.33 0.45,1.67 1.49,1.02 3.28,0.78 5.06,0.54 6.63,1.84 8.20,3.14 9.09,4.57 9.98,5.99 9.02,6.97 8.07,7.95 6.79,7.28 5.52,6.62 4.21,6.84 2.90,7.07 2.98,8.46 3.06,9.86 5.40,7.60 7.73,5.35 7.76,5.31 7.80,5.27 7.84,5.24 7.88,5.21 7.93,5.19 7.98,5.18 8.04,5.18 8.09,5.18 8.14,5.20 8.19,5.22 8.23,5.26 8.27,5.29 8.30,5.34 8.32,5.38 8.34,5.43 8.35,5.48 8.34,5.54 8.34,5.59 8.31,5.64 8.29,5.68 8.26,5.72 8.22,5.76 8.17,5.79 8.13,5.81 8.08,5.82 8.02,5.83 7.97,5.82 7.92,5.81 7.87,5.79 7.83,5.76 7.79,5.73 7.75,5.69 7.73,5.64 7.71,5.59 7.70,5.54 7.70,5.49 7.71,5.44 7.72,5.38 7.74,5.34 7.77,5.29 7.81,5.26 7.85,5.22 7.90,5.20 7.95,5.19 8.00,5.18 8.05,5.18 8.11,5.19 8.16,5.21 8.20,5.24 8.24,5.27 8.28,5.31 8.31,5.35 8.33,5.40 8.34,5.45 8.34,5.50 8.34,5.55 8.33,5.60 8.31,5.65 8.31,5.65 8.31,5.65 7.74,7.68 7.17,9.70 5.93,11.22 4.68,12.74 3.24,12.36 1.79,11.98 1.27,10.43 0.74,8.89 1.48,7.39 2.21,5.90 3.47,5.49 4.72,5.09 6.20,5.47 7.69,5.85 6.69,4.55 5.70,3.25 4.10,2.85 2.49,2.45 1.53,3.20 0.57,3.96 0.47,4.02 0.36,4.07 0.24,4.10 0.13,4.13 0.01,4.14 -0.11,4.14 -0.22,4.11 -0.34,4.08 -0.45,4.03 -0.55,3.97 -0.65,3.89 -0.74,3.81 -0.81,3.71 -0.88,3.62 -0.92,3.50 -0.96,3.39 -0.98,3.27 -0.99,3.15 -0.98,3.03 -0.97,2.91 -0.93,2.80 -0.89,2.69 -0.82,2.59 -0.75,2.49 -0.66,2.41 Z" fill="#eb2435" stroke="#eb2435" stroke-width="1" stroke-linejoin="round" stroke-linecap="round" pointer-events="all"/></g></g><g id="5c0639cb-800d-4e10-05a0-e666d5c412eb_svg" class="tl-centered-g" transform="translate(954.47, 296.85) rotate(0, 6.91, 7.27)"><g opacity="1"><path d="M 0.56,-0.82 Q 0.56,-0.82 1.64,-0.47 2.73,-0.13 4.26,0.98 5.80,2.10 6.95,2.85 8.10,3.61 9.57,4.20 11.05,4.79 12.36,5.33 13.67,5.88 14.36,7.16 15.05,8.44 14.23,9.71 13.41,10.97 12.34,11.94 11.27,12.90 8.23,14.02 5.19,15.15 5.03,15.10 4.88,15.04 4.75,14.95 4.62,14.85 4.53,14.72 4.44,14.58 4.40,14.43 4.35,14.27 4.36,14.11 4.37,13.95 4.43,13.80 4.49,13.65 4.59,13.52 4.70,13.40 4.83,13.32 4.97,13.23 5.13,13.20 5.29,13.16 5.45,13.18 5.61,13.19 5.76,13.26 5.90,13.33 6.02,13.44 6.14,13.55 6.22,13.69 6.29,13.84 6.32,14.00 6.35,14.15 6.32,14.31 6.29,14.47 6.22,14.62 6.14,14.76 6.03,14.87 5.91,14.98 5.76,15.05 5.62,15.12 5.46,15.14 5.30,15.16 5.14,15.12 4.98,15.09 4.84,15.01 4.70,14.92 4.60,14.80 4.49,14.68 4.43,14.53 4.37,14.38 4.36,14.22 4.35,14.05 4.39,13.90 4.44,13.74 4.53,13.61 4.62,13.47 4.75,13.38 4.87,13.28 5.03,13.23 5.18,13.17 5.34,13.17 5.50,13.17 5.50,13.17 5.50,13.17 7.36,11.70 9.21,10.22 10.62,9.26 12.02,8.30 10.44,7.86 8.85,7.42 7.52,6.86 6.19,6.31 5.06,5.56 3.92,4.82 2.39,3.70 0.86,2.59 0.14,1.71 -0.56,0.82 -0.65,0.74 -0.74,0.66 -0.81,0.56 -0.88,0.46 -0.92,0.35 -0.97,0.24 -0.98,0.12 -0.99,0.00 -0.98,-0.11 -0.97,-0.23 -0.92,-0.34 -0.88,-0.46 -0.81,-0.56 -0.75,-0.66 -0.66,-0.74 -0.57,-0.82 -0.46,-0.87 -0.35,-0.93 -0.24,-0.96 -0.12,-0.99 -0.00,-0.99 0.11,-0.99 0.23,-0.96 0.35,-0.93 0.45,-0.88 Z" fill="#eb2435" stroke="#eb2435" stroke-width="1" stroke-linejoin="round" stroke-linecap="round" pointer-events="all"/></g></g><g id="502565dd-9927-4d28-11f2-2d8feddacd89_svg" class="tl-centered-g" transform="translate(973.64, 286.62) rotate(0, 7.58, 11.40)"><g opacity="1"><path d="M 5.96,3.15 Q 5.96,3.15 5.12,3.71 4.29,4.28 3.39,6.03 2.49,7.79 2.01,9.85 1.53,11.92 1.95,13.41 2.37,14.91 3.38,16.23 4.39,17.56 5.52,18.86 6.66,20.17 7.98,20.50 9.30,20.83 10.57,19.86 11.84,18.88 12.63,16.91 13.43,14.94 13.54,13.11 13.65,11.27 13.39,9.66 13.14,8.05 12.24,6.36 11.34,4.68 10.07,3.59 8.79,2.49 7.50,2.09 6.20,1.69 4.35,2.11 2.49,2.53 2.33,2.55 2.17,2.57 2.01,2.53 1.86,2.50 1.72,2.42 1.58,2.33 1.47,2.21 1.37,2.09 1.31,1.94 1.25,1.79 1.24,1.62 1.23,1.46 1.27,1.31 1.32,1.15 1.41,1.02 1.50,0.88 1.63,0.78 1.75,0.69 1.91,0.63 2.06,0.58 2.22,0.58 2.38,0.58 2.54,0.63 2.69,0.68 2.82,0.78 2.95,0.88 3.04,1.01 3.13,1.15 3.17,1.30 3.22,1.46 3.21,1.62 3.20,1.78 3.14,1.93 3.08,2.08 2.98,2.21 2.87,2.33 2.74,2.41 2.60,2.50 2.44,2.53 2.28,2.57 2.12,2.55 1.96,2.53 1.81,2.47 1.67,2.40 1.55,2.29 1.43,2.18 1.35,2.03 1.28,1.89 1.25,1.73 1.22,1.57 1.25,1.41 1.28,1.25 1.35,1.11 1.43,0.97 1.54,0.85 1.66,0.74 1.81,0.67 1.95,0.61 1.95,0.61 1.95,0.61 3.60,0.03 5.25,-0.54 6.74,-0.51 8.24,-0.48 9.60,0.38 10.97,1.24 12.14,2.45 13.31,3.65 13.98,4.83 14.66,6.00 15.15,7.62 15.65,9.24 15.82,11.37 15.99,13.50 15.61,15.47 15.23,17.45 14.45,18.97 13.66,20.50 12.42,21.54 11.19,22.58 9.67,23.00 8.16,23.43 6.54,22.61 4.92,21.79 3.72,20.46 2.52,19.13 1.32,17.49 0.13,15.86 -0.22,13.69 -0.58,11.51 0.02,9.28 0.63,7.05 1.92,4.97 3.21,2.90 3.97,2.23 4.73,1.56 4.84,1.50 4.94,1.44 5.06,1.41 5.17,1.37 5.29,1.36 5.41,1.36 5.53,1.38 5.65,1.40 5.76,1.45 5.87,1.50 5.96,1.58 6.06,1.65 6.13,1.75 6.21,1.84 6.25,1.95 6.30,2.06 6.32,2.18 6.34,2.30 6.34,2.42 6.33,2.54 6.29,2.66 6.25,2.77 6.19,2.88 6.13,2.98 6.04,3.06 Z" fill="#eb2435" stroke="#eb2435" stroke-width="1" stroke-linejoin="round" stroke-linecap="round" pointer-events="all"/></g></g><g id="a692271f-4b52-454c-32c6-932547f1ebce_svg" class="tl-centered-g" transform="translate(748.79, 364.24) rotate(0, 59.74, 33.53)"><g pointer-events="none" opacity="1"><path d="M -8.11,-1.12 Q -8.11,-1.12 -5.61,-1.59 -3.11,-2.07 0.41,-2.18 3.94,-2.28 9.74,-2.06 15.53,-1.83 24.10,-0.57 32.67,0.68 44.21,4.27 55.74,7.85 68.89,15.09 82.03,22.33 91.27,30.20 100.50,38.07 106.17,44.68 111.85,51.28 115.15,56.10 118.46,60.92 120.26,63.99 122.06,67.06 123.29,69.40 124.52,71.74 124.61,72.09 124.71,72.44 124.69,72.80 124.67,73.16 124.54,73.50 124.40,73.84 124.16,74.12 123.93,74.39 123.62,74.58 123.30,74.77 122.95,74.85 122.59,74.92 122.23,74.88 121.87,74.84 121.54,74.69 121.21,74.54 120.94,74.29 120.68,74.04 120.51,73.71 120.34,73.39 120.28,73.03 120.22,72.67 120.28,72.31 120.34,71.96 120.51,71.63 120.69,71.31 120.95,71.06 121.21,70.81 121.55,70.66 121.88,70.51 122.24,70.47 122.60,70.43 122.96,70.51 123.31,70.59 123.62,70.78 123.93,70.96 124.17,71.24 124.40,71.52 124.54,71.86 124.67,72.20 124.69,72.56 124.71,72.92 124.61,73.28 124.51,73.63 124.31,73.93 124.11,74.23 123.82,74.45 123.52,74.67 123.18,74.78 122.83,74.90 122.47,74.90 122.11,74.90 121.76,74.78 121.42,74.66 121.13,74.44 120.84,74.22 120.63,73.92 120.43,73.62 120.43,73.62 120.43,73.62 119.30,71.48 118.17,69.33 116.46,66.40 114.75,63.47 111.59,58.84 108.42,54.21 103.00,47.84 97.57,41.48 88.70,33.87 79.84,26.26 67.11,19.20 54.39,12.14 43.19,8.63 32.00,5.13 23.68,3.89 15.36,2.65 9.71,2.43 4.07,2.20 0.65,2.31 -2.76,2.41 -5.31,2.32 -7.86,2.24 -8.06,2.23 -8.26,2.22 -8.46,2.16 -8.65,2.11 -8.83,2.00 -9.00,1.90 -9.15,1.76 -9.30,1.62 -9.40,1.45 -9.51,1.27 -9.58,1.08 -9.64,0.89 -9.66,0.68 -9.67,0.48 -9.64,0.28 -9.60,0.08 -9.52,-0.10 -9.44,-0.28 -9.32,-0.45 -9.20,-0.61 -9.04,-0.74 -8.88,-0.86 -8.70,-0.95 -8.51,-1.04 -8.31,-1.08 Z" fill="none" stroke="none" stroke-width="8" stroke-dasharray="none" stroke-dashoffset="none" stroke-linecap="round" stroke-linejoin="round" pointer-events="stroke"/><path d="M -8.11,-1.12 Q -8.11,-1.12 -5.61,-1.59 -3.11,-2.07 0.41,-2.18 3.94,-2.28 9.74,-2.06 15.53,-1.83 24.10,-0.57 32.67,0.68 44.21,4.27 55.74,7.85 68.89,15.09 82.03,22.33 91.27,30.20 100.50,38.07 106.17,44.68 111.85,51.28 115.15,56.10 118.46,60.92 120.26,63.99 122.06,67.06 123.29,69.40 124.52,71.74 124.61,72.09 124.71,72.44 124.69,72.80 124.67,73.16 124.54,73.50 124.40,73.84 124.16,74.12 123.93,74.39 123.62,74.58 123.30,74.77 122.95,74.85 122.59,74.92 122.23,74.88 121.87,74.84 121.54,74.69 121.21,74.54 120.94,74.29 120.68,74.04 120.51,73.71 120.34,73.39 120.28,73.03 120.22,72.67 120.28,72.31 120.34,71.96 120.51,71.63 120.69,71.31 120.95,71.06 121.21,70.81 121.55,70.66 121.88,70.51 122.24,70.47 122.60,70.43 122.96,70.51 123.31,70.59 123.62,70.78 123.93,70.96 124.17,71.24 124.40,71.52 124.54,71.86 124.67,72.20 124.69,72.56 124.71,72.92 124.61,73.28 124.51,73.63 124.31,73.93 124.11,74.23 123.82,74.45 123.52,74.67 123.18,74.78 122.83,74.90 122.47,74.90 122.11,74.90 121.76,74.78 121.42,74.66 121.13,74.44 120.84,74.22 120.63,73.92 120.43,73.62 120.43,73.62 120.43,73.62 119.30,71.48 118.17,69.33 116.46,66.40 114.75,63.47 111.59,58.84 108.42,54.21 103.00,47.84 97.57,41.48 88.70,33.87 79.84,26.26 67.11,19.20 54.39,12.14 43.19,8.63 32.00,5.13 23.68,3.89 15.36,2.65 9.71,2.43 4.07,2.20 0.65,2.31 -2.76,2.41 -5.31,2.32 -7.86,2.24 -8.06,2.23 -8.26,2.22 -8.46,2.16 -8.65,2.11 -8.83,2.00 -9.00,1.90 -9.15,1.76 -9.30,1.62 -9.40,1.45 -9.51,1.27 -9.58,1.08 -9.64,0.89 -9.66,0.68 -9.67,0.48 -9.64,0.28 -9.60,0.08 -9.52,-0.10 -9.44,-0.28 -9.32,-0.45 -9.20,-0.61 -9.04,-0.74 -8.88,-0.86 -8.70,-0.95 -8.51,-1.04 -8.31,-1.08 Z" fill="#eb8b35" stroke="#eb8b35" stroke-width="0" stroke-dasharray="none" stroke-dashoffset="none" stroke-linecap="round" stroke-linejoin="round" pointer-events="stroke"/><path d="M 123.74,58.16881264182196 L 123.21,74.16 109.62,65.70457465960945" fill="none" stroke="#eb8b35" stroke-width="4.23" stroke-dashoffset="none" stroke-dasharray="none" stroke-linecap="round" stroke-linejoin="round" pointer-events="stroke"/></g></g><g id="cdb95bb0-8918-4c13-3e8c-081d006a8cd9_svg" class="tl-centered-g" transform="translate(973.6, 408) rotate(0, 6.4, 7.6)"><g opacity="1"><path d="M 7.90,0.70 Q 7.90,0.70 7.13,1.36 6.35,2.01 5.12,3.52 3.89,5.03 2.86,6.17 1.84,7.31 3.31,8.50 4.79,9.70 6.44,10.32 8.09,10.94 10.14,13.00 12.19,15.05 12.18,15.22 12.18,15.38 12.12,15.53 12.07,15.68 11.97,15.81 11.87,15.94 11.73,16.02 11.60,16.11 11.44,16.15 11.28,16.19 11.12,16.18 10.96,16.17 10.81,16.10 10.66,16.04 10.54,15.93 10.42,15.83 10.34,15.69 10.26,15.54 10.23,15.39 10.20,15.23 10.22,15.07 10.24,14.91 10.31,14.76 10.38,14.62 10.49,14.50 10.61,14.39 10.75,14.31 10.90,14.24 11.06,14.22 11.22,14.20 11.38,14.22 11.53,14.25 11.68,14.33 11.82,14.41 11.93,14.53 12.03,14.65 12.10,14.80 12.16,14.95 12.18,15.11 12.19,15.27 12.15,15.43 12.12,15.59 12.03,15.72 11.94,15.86 11.82,15.96 11.69,16.06 11.54,16.12 11.39,16.18 11.23,16.18 11.07,16.19 10.91,16.14 10.76,16.09 10.62,16.00 10.49,15.91 10.40,15.77 10.30,15.64 10.25,15.49 10.20,15.34 10.20,15.34 10.20,15.34 7.95,13.81 5.69,12.28 3.84,11.70 1.98,11.12 0.75,10.03 -0.47,8.93 0.03,7.54 0.54,6.14 1.59,5.04 2.64,3.94 3.91,2.39 5.18,0.84 5.83,0.07 6.49,-0.70 6.58,-0.78 6.68,-0.85 6.79,-0.90 6.90,-0.95 7.02,-0.97 7.13,-0.99 7.25,-0.99 7.38,-0.98 7.49,-0.94 7.61,-0.91 7.71,-0.84 7.81,-0.78 7.90,-0.70 7.98,-0.61 8.04,-0.51 8.11,-0.41 8.14,-0.29 8.18,-0.18 8.19,-0.05 8.19,0.06 8.17,0.17 8.15,0.29 8.10,0.40 8.05,0.51 7.98,0.61 Z" fill="#eb8b35" stroke="#eb8b35" stroke-width="1" stroke-linejoin="round" stroke-linecap="round" pointer-events="all"/></g></g><g id="9811882e-d17f-4086-27d7-66db18d92229_svg" class="tl-centered-g" transform="translate(956, 400.8) rotate(0, 4.4, 14.8)"><g opacity="1"><path d="M 0.44,-0.89 Q 0.44,-0.89 1.08,-0.37 1.72,0.13 2.85,0.92 3.98,1.71 5.15,2.48 6.32,3.25 7.17,4.66 8.02,6.07 8.36,8.51 8.71,10.94 8.72,12.25 8.73,13.56 8.55,16.11 8.36,18.65 8.09,20.07 7.82,21.49 7.31,23.60 6.79,25.72 5.04,27.73 3.29,29.74 3.27,29.75 3.24,29.76 3.21,29.76 3.19,29.77 3.16,29.76 3.13,29.76 3.11,29.74 3.08,29.73 3.07,29.71 3.05,29.69 3.04,29.66 3.03,29.63 3.03,29.61 3.02,29.58 3.03,29.55 3.04,29.52 3.05,29.50 3.07,29.48 3.09,29.46 3.11,29.44 3.14,29.43 3.17,29.43 3.19,29.43 3.22,29.42 3.25,29.43 3.27,29.44 3.30,29.46 3.32,29.48 3.33,29.50 3.35,29.52 3.36,29.55 3.37,29.57 3.36,29.60 3.36,29.63 3.35,29.66 3.34,29.68 3.33,29.70 3.31,29.73 3.28,29.74 3.26,29.75 3.23,29.76 3.21,29.77 3.18,29.76 3.15,29.76 3.13,29.75 3.10,29.74 3.08,29.72 3.06,29.70 3.05,29.68 3.03,29.65 3.03,29.62 3.02,29.60 3.03,29.57 3.03,29.54 3.04,29.52 3.06,29.49 3.08,29.47 3.10,29.45 3.10,29.45 3.10,29.45 4.20,27.44 5.31,25.42 5.82,23.31 6.34,21.20 6.62,19.82 6.91,18.44 7.09,16.00 7.26,13.56 7.27,12.25 7.28,10.94 6.99,8.76 6.69,6.58 5.58,5.10 4.47,3.61 2.80,2.45 1.14,1.29 0.34,1.09 -0.44,0.89 -0.54,0.82 -0.64,0.76 -0.72,0.67 -0.81,0.58 -0.86,0.47 -0.92,0.37 -0.95,0.25 -0.99,0.14 -0.99,0.01 -0.99,-0.10 -0.96,-0.21 -0.94,-0.33 -0.88,-0.44 -0.83,-0.55 -0.75,-0.64 -0.67,-0.73 -0.57,-0.80 -0.48,-0.87 -0.37,-0.92 -0.25,-0.96 -0.13,-0.98 -0.01,-0.99 0.10,-0.98 0.22,-0.97 0.33,-0.93 Z" fill="#eb8b35" stroke="#eb8b35" stroke-width="1" stroke-linejoin="round" stroke-linecap="round" pointer-events="all"/></g></g><g id="a8078a31-fd9d-479e-1262-9208aeb06e2b_svg" class="tl-centered-g" transform="translate(939.7, 289.68) rotate(0, 4.19, 15.37)"><g opacity="1"><path d="M 0.63,-0.76 Q 0.63,-0.76 1.22,0.05 1.81,0.87 2.81,1.87 3.81,2.88 4.61,4.70 5.40,6.52 5.65,7.93 5.89,9.34 6.16,10.91 6.42,12.48 6.82,13.96 7.22,15.43 7.73,16.63 8.25,17.84 8.54,19.20 8.82,20.55 8.67,22.28 8.51,24.00 8.21,25.32 7.91,26.64 7.39,27.96 6.86,29.27 4.96,30.48 3.06,31.70 2.90,31.71 2.74,31.73 2.58,31.70 2.43,31.67 2.29,31.59 2.15,31.50 2.04,31.38 1.93,31.26 1.87,31.11 1.81,30.96 1.80,30.80 1.79,30.64 1.83,30.48 1.87,30.33 1.96,30.19 2.05,30.06 2.18,29.96 2.31,29.86 2.46,29.80 2.61,29.75 2.77,29.75 2.93,29.75 3.09,29.80 3.24,29.85 3.37,29.94 3.50,30.04 3.60,30.17 3.69,30.30 3.73,30.46 3.78,30.61 3.77,30.78 3.76,30.94 3.71,31.09 3.65,31.24 3.54,31.36 3.44,31.49 3.30,31.57 3.17,31.66 3.01,31.70 2.85,31.73 2.69,31.72 2.53,31.70 2.38,31.64 2.23,31.57 2.11,31.46 2.00,31.35 1.92,31.21 1.84,31.07 1.81,30.91 1.79,30.75 1.81,30.59 1.83,30.43 1.91,30.28 1.98,30.14 2.10,30.03 2.21,29.91 2.36,29.84 2.51,29.77 2.51,29.77 2.51,29.77 4.09,29.32 5.68,28.87 6.26,27.68 6.83,26.50 7.13,25.18 7.43,23.86 7.58,22.25 7.73,20.64 7.30,19.15 6.86,17.65 6.32,15.97 5.77,14.29 5.50,12.67 5.23,11.05 4.84,8.97 4.45,6.90 3.74,5.21 3.02,3.53 2.10,2.57 1.18,1.62 0.27,1.19 -0.63,0.76 -0.72,0.68 -0.80,0.59 -0.86,0.48 -0.92,0.38 -0.95,0.26 -0.98,0.15 -0.99,0.03 -0.99,-0.09 -0.97,-0.20 -0.94,-0.32 -0.89,-0.43 -0.83,-0.54 -0.76,-0.63 -0.68,-0.72 -0.58,-0.79 -0.49,-0.87 -0.38,-0.91 -0.26,-0.96 -0.14,-0.98 -0.03,-0.99 0.08,-0.98 0.20,-0.97 0.32,-0.93 0.43,-0.89 0.53,-0.83 Z" fill="#eb2435" stroke="#eb2435" stroke-width="1" stroke-linejoin="round" stroke-linecap="round" pointer-events="all"/></g></g><g id="5a8a0998-1f78-4e7e-02ab-711706ac1d70_svg" class="tl-centered-g" transform="translate(525.56, 365.69) rotate(0, 3.91, 5.03)"><g opacity="1"><path d="M 1.82,-0.98 Q 1.82,-0.98 2.67,-0.74 3.53,-0.49 5.12,0.21 6.70,0.93 7.35,2.31 8.01,3.69 8.23,5.22 8.45,6.76 7.42,7.67 6.39,8.58 5.42,7.30 4.46,6.01 3.19,6.74 1.93,7.47 3.01,8.39 4.09,9.31 4.39,8.06 4.69,6.82 4.78,6.69 4.88,6.56 5.01,6.46 5.14,6.37 5.30,6.32 5.45,6.27 5.61,6.28 5.77,6.28 5.93,6.34 6.08,6.39 6.20,6.50 6.33,6.60 6.42,6.73 6.50,6.87 6.54,7.03 6.58,7.18 6.57,7.35 6.56,7.51 6.49,7.66 6.43,7.80 6.32,7.92 6.21,8.04 6.07,8.12 5.93,8.20 5.77,8.23 5.61,8.26 5.45,8.24 5.29,8.22 5.15,8.15 5.00,8.08 4.89,7.96 4.77,7.85 4.70,7.70 4.63,7.56 4.61,7.40 4.59,7.24 4.62,7.08 4.65,6.92 4.73,6.78 4.81,6.64 4.93,6.53 5.05,6.42 5.20,6.36 5.34,6.29 5.51,6.28 5.67,6.27 5.82,6.31 5.98,6.35 6.12,6.43 6.25,6.52 6.35,6.65 6.46,6.77 6.51,6.93 6.57,7.08 6.57,7.24 6.58,7.40 6.53,7.56 6.48,7.71 6.48,7.71 6.48,7.71 4.87,9.20 3.26,10.69 1.61,10.10 -0.03,9.51 0.51,8.16 1.06,6.81 2.47,5.67 3.89,4.54 5.41,5.03 6.93,5.51 6.43,4.09 5.94,2.67 4.63,1.83 3.32,0.99 2.43,0.99 1.53,0.98 1.42,0.95 1.30,0.92 1.19,0.86 1.09,0.81 1.00,0.72 0.91,0.64 0.85,0.54 0.78,0.44 0.74,0.33 0.70,0.21 0.69,0.09 0.68,-0.02 0.69,-0.14 0.71,-0.26 0.75,-0.37 0.80,-0.48 0.87,-0.58 0.94,-0.67 1.03,-0.75 1.12,-0.83 1.23,-0.88 1.34,-0.94 1.46,-0.96 1.58,-0.99 1.70,-0.99 Z" fill="#cecece" stroke="#cecece" stroke-width="1" stroke-linejoin="round" stroke-linecap="round" pointer-events="all"/></g></g><g id="3030f440-aec0-4b8e-222f-71d1c3561420_svg" class="tl-centered-g" transform="translate(532.82, 355.07) rotate(0, 6.42, 13.97)"><g opacity="1"><path d="M -0.14,-0.42 Q -0.14,-0.42 0.75,-0.37 1.66,-0.31 3.01,-0.17 4.37,-0.03 5.63,0.99 6.90,2.01 7.95,3.74 9.01,5.47 9.64,6.81 10.28,8.15 11.36,10.38 12.44,12.61 12.85,14.87 13.26,17.14 13.07,18.74 12.89,20.35 12.53,21.63 12.18,22.90 10.58,25.36 8.99,27.82 8.83,27.81 8.67,27.79 8.52,27.72 8.38,27.65 8.26,27.54 8.14,27.43 8.06,27.29 7.99,27.15 7.96,26.99 7.94,26.83 7.96,26.67 7.99,26.51 8.06,26.37 8.14,26.22 8.25,26.11 8.37,26.00 8.52,25.93 8.66,25.86 8.82,25.84 8.99,25.83 9.14,25.86 9.30,25.89 9.44,25.98 9.58,26.06 9.68,26.18 9.79,26.31 9.85,26.46 9.91,26.61 9.92,26.77 9.93,26.93 9.89,27.09 9.84,27.24 9.75,27.38 9.66,27.51 9.53,27.61 9.41,27.71 9.25,27.76 9.10,27.81 8.94,27.81 8.78,27.81 8.62,27.76 8.47,27.71 8.34,27.61 8.21,27.52 8.12,27.38 8.03,27.25 7.99,27.09 7.94,26.94 7.95,26.77 7.96,26.61 8.02,26.46 8.08,26.31 8.18,26.19 8.29,26.07 8.42,25.98 8.56,25.90 8.72,25.86 8.88,25.83 8.88,25.83 8.88,25.83 9.52,25.07 10.16,24.31 10.80,22.25 11.43,20.18 11.59,18.74 11.75,17.30 11.39,15.24 11.03,13.18 10.03,10.95 9.02,8.73 8.01,6.62 6.99,4.50 5.96,3.19 4.92,1.89 3.38,1.41 1.83,0.93 0.99,1.24 0.14,1.54 0.02,1.55 -0.09,1.55 -0.21,1.52 -0.33,1.50 -0.44,1.44 -0.55,1.39 -0.64,1.31 -0.73,1.23 -0.80,1.14 -0.87,1.04 -0.92,0.93 -0.96,0.82 -0.98,0.70 -0.99,0.58 -0.98,0.46 -0.97,0.34 -0.93,0.22 -0.89,0.11 -0.82,0.01 -0.76,-0.08 -0.67,-0.16 -0.58,-0.25 -0.47,-0.30 -0.37,-0.36 -0.25,-0.39 Z" fill="#cecece" stroke="#cecece" stroke-width="1" stroke-linejoin="round" stroke-linecap="round" pointer-events="all"/></g></g></svg>
