<?xml version="1.0" encoding="UTF-8"?>
<!-- Created with Inkscape (http://www.inkscape.org/) -->
<svg width="341.03" height="210.42" inkscape:version="1.1 (c4e8f9ed74, 2021-05-24)" sodipodi:docname="parallel.svg" version="1.1" viewBox="0 0 90.231 55.674" xmlns="http://www.w3.org/2000/svg" xmlns:inkscape="http://www.inkscape.org/namespaces/inkscape" xmlns:sodipodi="http://sodipodi.sourceforge.net/DTD/sodipodi-0.dtd" xmlns:xlink="http://www.w3.org/1999/xlink">
 <sodipodi:namedview bordercolor="#666666" borderopacity="1.0" fit-margin-bottom="0" fit-margin-left="0" fit-margin-right="0" fit-margin-top="0" inkscape:current-layer="layer1" inkscape:cx="-483.87613" inkscape:cy="204.43766" inkscape:document-units="px" inkscape:pagecheckerboard="0" inkscape:pageopacity="0.0" inkscape:pageshadow="2" inkscape:window-height="1200" inkscape:window-maximized="0" inkscape:window-width="1920" inkscape:window-x="0" inkscape:window-y="0" inkscape:zoom="0.82665785" pagecolor="#ffffff" showgrid="false"/>
 <defs>
  <marker id="Arrow1Lend" overflow="visible" inkscape:isstock="true" inkscape:stockid="Arrow1Lend" orient="auto">
   <path transform="matrix(-.8 0 0 -.8 -10 0)" d="m0 0 5-5-17.5 5 17.5 5z" fill="context-stroke" fill-rule="evenodd" stroke="context-stroke" stroke-width="1pt"/>
  </marker>
  <symbol id="symbol5364" overflow="visible">
   <path d="m5.3594-5.9375c-0.14062 0.14062-0.46875 0.42188-0.46875 0.59375 0 0.09375 0.09375 0.20312 0.1875 0.20312s0.14062-0.078125 0.20312-0.14062c0.10938-0.14062 0.34375-0.42188 0.78125-0.64062 0.0625-0.046875 0.17188-0.09375 0.17188-0.20312s-0.078125-0.15625-0.14062-0.20312c-0.21875-0.15625-0.32812-0.32812-0.40625-0.5625-0.03125-0.09375-0.0625-0.23438-0.20312-0.23438s-0.20312 0.14062-0.20312 0.21875c0 0.046875 0.078125 0.35938 0.23438 0.57812h-3.3594c-0.15625 0-0.34375 0-0.34375 0.20312 0 0.1875 0.1875 0.1875 0.34375 0.1875z"/>
  </symbol>
  <symbol id="symbol2203" overflow="visible">
   <path d="m4.6719-3.7031c0-0.54688-0.26562-0.70312-0.4375-0.70312-0.25 0-0.5 0.26562-0.5 0.48438 0 0.125 0.046875 0.1875 0.15625 0.29688 0.21875 0.20312 0.34375 0.45312 0.34375 0.8125 0 0.42188-0.60938 2.7031-1.7656 2.7031-0.51562 0-0.75-0.34375-0.75-0.875 0-0.54688 0.28125-1.2812 0.57812-2.1094 0.078125-0.17188 0.125-0.3125 0.125-0.5 0-0.4375-0.3125-0.8125-0.8125-0.8125-0.9375 0-1.3125 1.4531-1.3125 1.5312 0 0.10938 0.09375 0.10938 0.10938 0.10938 0.10938 0 0.10938-0.03125 0.15625-0.1875 0.29688-1 0.71875-1.2344 1.0156-1.2344 0.078125 0 0.25 0 0.25 0.3125 0 0.25-0.10938 0.53125-0.17188 0.70312-0.4375 1.1562-0.5625 1.6094-0.5625 2.0469 0 1.0781 0.875 1.2344 1.3281 1.2344 1.6719 0 2.25-3.2969 2.25-3.8125z"/>
  </symbol>
  <symbol id="symbol1794" overflow="visible">
   <path d="m2.0312-0.015625c0-0.65625-0.25-1.0469-0.64062-1.0469-0.32812 0-0.53125 0.25-0.53125 0.53125 0 0.26562 0.20312 0.53125 0.53125 0.53125 0.10938 0 0.25-0.046875 0.34375-0.125 0.03125-0.03125 0.046875-0.03125 0.046875-0.03125 0.015625 0 0.015625 0 0.015625 0.14062 0 0.75-0.34375 1.3438-0.67188 1.6719-0.10938 0.10938-0.10938 0.125-0.10938 0.15625 0 0.078125 0.046875 0.10938 0.09375 0.10938 0.10938 0 0.92188-0.76562 0.92188-1.9375z"/>
  </symbol>
  <symbol id="symbol8410" overflow="visible">
   <path d="m6.8438-3.2656c0.15625 0 0.34375 0 0.34375-0.1875 0-0.20312-0.1875-0.20312-0.32812-0.20312h-5.9688c-0.14062 0-0.32812 0-0.32812 0.20312 0 0.1875 0.1875 0.1875 0.32812 0.1875zm0.015625 1.9375c0.14062 0 0.32812 0 0.32812-0.20312 0-0.1875-0.1875-0.1875-0.34375-0.1875h-5.9531c-0.14062 0-0.32812 0-0.32812 0.1875 0 0.20312 0.1875 0.20312 0.32812 0.20312z"/>
  </symbol>
  <symbol id="symbol7174" overflow="visible">
   <path d="m3.2969 2.3906c0-0.03125 0-0.046875-0.17188-0.21875-1.2344-1.25-1.5625-3.1406-1.5625-4.6719 0-1.7344 0.375-3.4688 1.6094-4.7031 0.125-0.125 0.125-0.14062 0.125-0.17188 0-0.078125-0.03125-0.10938-0.09375-0.10938-0.10938 0-1 0.6875-1.5938 1.9531-0.5 1.0938-0.625 2.2031-0.625 3.0312 0 0.78125 0.10938 1.9844 0.65625 3.125 0.60938 1.2188 1.4531 1.875 1.5625 1.875 0.0625 0 0.09375-0.03125 0.09375-0.10938z"/>
  </symbol>
  <symbol id="symbol5955" overflow="visible">
   <path d="m2.875-2.5c0-0.76562-0.10938-1.9688-0.65625-3.1094-0.59375-1.2188-1.4531-1.875-1.5469-1.875-0.0625 0-0.10938 0.046875-0.10938 0.10938 0 0.03125 0 0.046875 0.1875 0.23438 0.98438 0.98438 1.5469 2.5625 1.5469 4.6406 0 1.7188-0.35938 3.4688-1.5938 4.7188-0.14062 0.125-0.14062 0.14062-0.14062 0.17188 0 0.0625 0.046875 0.10938 0.10938 0.10938 0.09375 0 1-0.6875 1.5781-1.9531 0.51562-1.0938 0.625-2.2031 0.625-3.0469z"/>
  </symbol>
  <symbol id="symbol5964" overflow="visible">
   <path d="m2.3281-4.4375c0-0.1875 0-0.1875-0.20312-0.1875-0.45312 0.4375-1.0781 0.4375-1.3594 0.4375v0.25c0.15625 0 0.625 0 1-0.1875v3.5469c0 0.23438 0 0.32812-0.6875 0.32812h-0.26562v0.25c0.125 0 0.98438-0.03125 1.2344-0.03125 0.21875 0 1.0938 0.03125 1.25 0.03125v-0.25h-0.26562c-0.70312 0-0.70312-0.09375-0.70312-0.32812z"/>
  </symbol>
  <symbol id="symbol3134" overflow="visible">
   <path d="m3.5156-1.2656h-0.23438c-0.015625 0.15625-0.09375 0.5625-0.1875 0.625-0.046875 0.046875-0.57812 0.046875-0.6875 0.046875h-1.2812c0.73438-0.64062 0.98438-0.84375 1.3906-1.1719 0.51562-0.40625 1-0.84375 1-1.5 0-0.84375-0.73438-1.3594-1.625-1.3594-0.85938 0-1.4531 0.60938-1.4531 1.25 0 0.34375 0.29688 0.39062 0.375 0.39062 0.15625 0 0.35938-0.125 0.35938-0.375 0-0.125-0.046875-0.375-0.40625-0.375 0.21875-0.48438 0.6875-0.64062 1.0156-0.64062 0.70312 0 1.0625 0.54688 1.0625 1.1094 0 0.60938-0.4375 1.0781-0.65625 1.3281l-1.6719 1.6719c-0.078125 0.0625-0.078125 0.078125-0.078125 0.26562h2.875z"/>
  </symbol>
  <symbol id="symbol143" overflow="visible">
   <path d="m1.9062-2.3281c0.54688 0 0.9375 0.375 0.9375 1.125 0 0.85938-0.51562 1.125-0.90625 1.125-0.28125 0-0.90625-0.078125-1.1875-0.5 0.32812 0 0.40625-0.23438 0.40625-0.39062 0-0.21875-0.17188-0.375-0.39062-0.375-0.1875 0-0.39062 0.125-0.39062 0.40625 0 0.65625 0.71875 1.0781 1.5625 1.0781 0.96875 0 1.6406-0.65625 1.6406-1.3438 0-0.54688-0.4375-1.0938-1.2031-1.25 0.71875-0.26562 0.98438-0.78125 0.98438-1.2188 0-0.54688-0.625-0.95312-1.4062-0.95312-0.76562 0-1.3594 0.375-1.3594 0.9375 0 0.23438 0.15625 0.35938 0.35938 0.35938 0.21875 0 0.35938-0.15625 0.35938-0.34375 0-0.20312-0.14062-0.35938-0.35938-0.375 0.25-0.29688 0.71875-0.375 0.98438-0.375 0.3125 0 0.75 0.15625 0.75 0.75 0 0.29688-0.09375 0.625-0.28125 0.82812-0.21875 0.26562-0.42188 0.28125-0.76562 0.3125-0.17188 0.015625-0.1875 0.015625-0.21875 0.015625-0.015625 0-0.078125 0.015625-0.078125 0.09375 0 0.09375 0.0625 0.09375 0.1875 0.09375z"/>
  </symbol>
  <symbol id="symbol2555" overflow="visible">
   <path d="m5.3594-5.9375c-0.14062 0.14062-0.46875 0.42188-0.46875 0.59375 0 0.09375 0.09375 0.20312 0.1875 0.20312s0.14062-0.078125 0.20312-0.14062c0.10938-0.14062 0.34375-0.42188 0.78125-0.64062 0.0625-0.046875 0.17188-0.09375 0.17188-0.20312s-0.078125-0.15625-0.14062-0.20312c-0.21875-0.15625-0.32812-0.32812-0.40625-0.5625-0.03125-0.09375-0.0625-0.23438-0.20312-0.23438s-0.20312 0.14062-0.20312 0.21875c0 0.046875 0.078125 0.35938 0.23438 0.57812h-3.3594c-0.15625 0-0.34375 0-0.34375 0.20312 0 0.1875 0.1875 0.1875 0.34375 0.1875z"/>
  </symbol>
  <symbol id="symbol1835" overflow="visible">
   <path d="m2.2969-3.5c0.0625-0.20312 0.15625-0.59375 0.15625-0.64062 0-0.17188-0.125-0.26562-0.29688-0.26562-0.015625 0-0.29688 0.015625-0.39062 0.35938l-1.4375 5.7656c-0.03125 0.125-0.03125 0.14062-0.03125 0.17188 0 0.14062 0.10938 0.26562 0.28125 0.26562 0.20312 0 0.32812-0.1875 0.34375-0.21875 0.046875-0.078125 0.17188-0.60938 0.54688-2.1406 0.32812 0.26562 0.78125 0.3125 0.96875 0.3125 0.70312 0 1.0938-0.45312 1.3281-0.73438 0.09375 0.45312 0.46875 0.73438 0.90625 0.73438 0.34375 0 0.57812-0.23438 0.73438-0.54688 0.17188-0.35938 0.29688-0.96875 0.29688-0.98438 0-0.10938-0.09375-0.10938-0.125-0.10938-0.09375 0-0.10938 0.046875-0.14062 0.1875-0.15625 0.64062-0.34375 1.2344-0.75 1.2344-0.26562 0-0.29688-0.26562-0.29688-0.45312 0-0.21875 0.10938-0.6875 0.1875-1.0469l0.28125-1.0781c0.03125-0.14062 0.14062-0.51562 0.17188-0.67188 0.046875-0.23438 0.15625-0.60938 0.15625-0.67188 0-0.17188-0.14062-0.26562-0.29688-0.26562-0.046875 0-0.3125 0.015625-0.39062 0.34375l-0.46875 1.875c-0.10938 0.5-0.21875 0.90625-0.25 1.0156-0.015625 0.046875-0.48438 0.95312-1.2969 0.95312-0.5 0-0.73438-0.32812-0.73438-0.875 0-0.28125 0.0625-0.5625 0.14062-0.84375z"/>
  </symbol>
  <symbol id="symbol8909" overflow="visible">
   <path d="m3.3281-3.0156c0.0625-0.25 0.29688-1.1719 0.98438-1.1719 0.046875 0 0.29688 0 0.5 0.125-0.28125 0.0625-0.46875 0.29688-0.46875 0.54688 0 0.15625 0.10938 0.34375 0.375 0.34375 0.21875 0 0.53125-0.17188 0.53125-0.57812 0-0.51562-0.57812-0.65625-0.92188-0.65625-0.57812 0-0.92188 0.53125-1.0469 0.75-0.25-0.65625-0.78125-0.75-1.0781-0.75-1.0312 0-1.6094 1.2812-1.6094 1.5312 0 0.10938 0.10938 0.10938 0.125 0.10938 0.078125 0 0.10938-0.03125 0.125-0.10938 0.34375-1.0625 1-1.3125 1.3438-1.3125 0.1875 0 0.53125 0.09375 0.53125 0.67188 0 0.3125-0.17188 0.96875-0.53125 2.375-0.15625 0.60938-0.51562 1.0312-0.95312 1.0312-0.0625 0-0.28125 0-0.5-0.125 0.25-0.0625 0.46875-0.26562 0.46875-0.54688 0-0.26562-0.21875-0.34375-0.35938-0.34375-0.3125 0-0.54688 0.25-0.54688 0.57812 0 0.45312 0.48438 0.65625 0.92188 0.65625 0.67188 0 1.0312-0.70312 1.0469-0.75 0.125 0.35938 0.48438 0.75 1.0781 0.75 1.0312 0 1.5938-1.2812 1.5938-1.5312 0-0.10938-0.078125-0.10938-0.10938-0.10938-0.09375 0-0.10938 0.046875-0.14062 0.10938-0.32812 1.0781-1 1.3125-1.3125 1.3125-0.39062 0-0.54688-0.3125-0.54688-0.65625 0-0.21875 0.046875-0.4375 0.15625-0.875z"/>
  </symbol>
  <symbol id="symbol358" overflow="visible">
   <path d="m2.0312-0.015625c0-0.65625-0.25-1.0469-0.64062-1.0469-0.32812 0-0.53125 0.25-0.53125 0.53125 0 0.26562 0.20312 0.53125 0.53125 0.53125 0.10938 0 0.25-0.046875 0.34375-0.125 0.03125-0.03125 0.046875-0.03125 0.046875-0.03125 0.015625 0 0.015625 0 0.015625 0.14062 0 0.75-0.34375 1.3438-0.67188 1.6719-0.10938 0.10938-0.10938 0.125-0.10938 0.15625 0 0.078125 0.046875 0.10938 0.09375 0.10938 0.10938 0 0.92188-0.76562 0.92188-1.9375z"/>
  </symbol>
  <symbol id="symbol1396" overflow="visible">
   <path d="m4.8438-3.7969c0.046875-0.14062 0.046875-0.15625 0.046875-0.23438 0-0.17188-0.14062-0.26562-0.29688-0.26562-0.09375 0-0.25 0.0625-0.34375 0.20312-0.015625 0.0625-0.10938 0.35938-0.14062 0.54688-0.078125 0.25-0.14062 0.53125-0.20312 0.79688l-0.45312 1.7969c-0.03125 0.14062-0.46875 0.84375-1.125 0.84375-0.5 0-0.60938-0.4375-0.60938-0.8125 0-0.45312 0.17188-1.0781 0.5-1.9531 0.15625-0.40625 0.20312-0.51562 0.20312-0.71875 0-0.4375-0.3125-0.8125-0.8125-0.8125-0.95312 0-1.3125 1.4531-1.3125 1.5312 0 0.10938 0.09375 0.10938 0.10938 0.10938 0.10938 0 0.10938-0.03125 0.15625-0.1875 0.28125-0.9375 0.67188-1.2344 1.0156-1.2344 0.078125 0 0.25 0 0.25 0.3125 0 0.25-0.10938 0.51562-0.17188 0.70312-0.40625 1.0625-0.57812 1.625-0.57812 2.0938 0 0.89062 0.625 1.1875 1.2188 1.1875 0.39062 0 0.71875-0.17188 1-0.45312-0.125 0.51562-0.25 1.0156-0.64062 1.5469-0.26562 0.32812-0.64062 0.625-1.0938 0.625-0.14062 0-0.59375-0.03125-0.76562-0.42188 0.15625 0 0.29688 0 0.42188-0.125 0.10938-0.078125 0.20312-0.21875 0.20312-0.40625 0-0.3125-0.26562-0.34375-0.35938-0.34375-0.23438 0-0.5625 0.15625-0.5625 0.64062 0 0.5 0.4375 0.875 1.0625 0.875 1.0156 0 2.0469-0.90625 2.3281-2.0312z"/>
  </symbol>
  <symbol id="symbol4104" overflow="visible">
   <path d="m1.3281-0.82812c0.53125-0.57812 0.82812-0.82812 1.1875-1.1406 0 0 0.60938-0.53125 0.96875-0.89062 0.95312-0.92188 1.1719-1.4062 1.1719-1.4531 0-0.09375-0.09375-0.09375-0.10938-0.09375-0.078125 0-0.09375 0.015625-0.15625 0.10938-0.29688 0.48438-0.5 0.64062-0.73438 0.64062-0.25 0-0.35938-0.15625-0.51562-0.32812-0.1875-0.21875-0.35938-0.42188-0.6875-0.42188-0.75 0-1.2031 0.92188-1.2031 1.1406 0 0.046875 0.03125 0.10938 0.10938 0.10938 0.09375 0 0.10938-0.046875 0.14062-0.10938 0.1875-0.46875 0.76562-0.46875 0.84375-0.46875 0.20312 0 0.39062 0.0625 0.625 0.14062 0.40625 0.15625 0.51562 0.15625 0.76562 0.15625-0.35938 0.42188-1.1875 1.1406-1.375 1.2969l-0.90625 0.84375c-0.67188 0.67188-1.0312 1.2344-1.0312 1.3125 0 0.09375 0.10938 0.09375 0.125 0.09375 0.078125 0 0.09375-0.015625 0.15625-0.125 0.23438-0.35938 0.53125-0.625 0.85938-0.625 0.21875 0 0.32812 0.09375 0.57812 0.375 0.15625 0.21875 0.34375 0.375 0.625 0.375 1 0 1.5781-1.2656 1.5781-1.5312 0-0.046875-0.046875-0.10938-0.125-0.10938-0.09375 0-0.10938 0.0625-0.14062 0.14062-0.23438 0.64062-0.875 0.82812-1.2031 0.82812-0.1875 0-0.375-0.0625-0.57812-0.125-0.34375-0.125-0.5-0.17188-0.70312-0.17188-0.015625 0-0.17188 0-0.26562 0.03125z"/>
  </symbol>
  <symbol id="symbol6355" overflow="visible">
   <path d="m6.8438-3.2656c0.15625 0 0.34375 0 0.34375-0.1875 0-0.20312-0.1875-0.20312-0.32812-0.20312h-5.9688c-0.14062 0-0.32812 0-0.32812 0.20312 0 0.1875 0.1875 0.1875 0.32812 0.1875zm0.015625 1.9375c0.14062 0 0.32812 0 0.32812-0.20312 0-0.1875-0.1875-0.1875-0.34375-0.1875h-5.9531c-0.14062 0-0.32812 0-0.32812 0.1875 0 0.20312 0.1875 0.20312 0.32812 0.20312z"/>
  </symbol>
  <symbol id="symbol1420" overflow="visible">
   <path d="m3.2969 2.3906c0-0.03125 0-0.046875-0.17188-0.21875-1.2344-1.25-1.5625-3.1406-1.5625-4.6719 0-1.7344 0.375-3.4688 1.6094-4.7031 0.125-0.125 0.125-0.14062 0.125-0.17188 0-0.078125-0.03125-0.10938-0.09375-0.10938-0.10938 0-1 0.6875-1.5938 1.9531-0.5 1.0938-0.625 2.2031-0.625 3.0312 0 0.78125 0.10938 1.9844 0.65625 3.125 0.60938 1.2188 1.4531 1.875 1.5625 1.875 0.0625 0 0.09375-0.03125 0.09375-0.10938z"/>
  </symbol>
  <symbol id="symbol1053" overflow="visible">
   <path d="m2.875-2.5c0-0.76562-0.10938-1.9688-0.65625-3.1094-0.59375-1.2188-1.4531-1.875-1.5469-1.875-0.0625 0-0.10938 0.046875-0.10938 0.10938 0 0.03125 0 0.046875 0.1875 0.23438 0.98438 0.98438 1.5469 2.5625 1.5469 4.6406 0 1.7188-0.35938 3.4688-1.5938 4.7188-0.14062 0.125-0.14062 0.14062-0.14062 0.17188 0 0.0625 0.046875 0.10938 0.10938 0.10938 0.09375 0 1-0.6875 1.5781-1.9531 0.51562-1.0938 0.625-2.2031 0.625-3.0469z"/>
  </symbol>
  <symbol id="symbol4229" overflow="visible">
   <path d="m5.3594-5.9375c-0.14062 0.14062-0.46875 0.42188-0.46875 0.59375 0 0.09375 0.09375 0.20312 0.1875 0.20312s0.14062-0.078125 0.20312-0.14062c0.10938-0.14062 0.34375-0.42188 0.78125-0.64062 0.0625-0.046875 0.17188-0.09375 0.17188-0.20312s-0.078125-0.15625-0.14062-0.20312c-0.21875-0.15625-0.32812-0.32812-0.40625-0.5625-0.03125-0.09375-0.0625-0.23438-0.20312-0.23438s-0.20312 0.14062-0.20312 0.21875c0 0.046875 0.078125 0.35938 0.23438 0.57812h-3.3594c-0.15625 0-0.34375 0-0.34375 0.20312 0 0.1875 0.1875 0.1875 0.34375 0.1875z"/>
  </symbol>
  <symbol id="symbol5400" overflow="visible">
   <path d="m2.2969-3.5c0.0625-0.20312 0.15625-0.59375 0.15625-0.64062 0-0.17188-0.125-0.26562-0.29688-0.26562-0.015625 0-0.29688 0.015625-0.39062 0.35938l-1.4375 5.7656c-0.03125 0.125-0.03125 0.14062-0.03125 0.17188 0 0.14062 0.10938 0.26562 0.28125 0.26562 0.20312 0 0.32812-0.1875 0.34375-0.21875 0.046875-0.078125 0.17188-0.60938 0.54688-2.1406 0.32812 0.26562 0.78125 0.3125 0.96875 0.3125 0.70312 0 1.0938-0.45312 1.3281-0.73438 0.09375 0.45312 0.46875 0.73438 0.90625 0.73438 0.34375 0 0.57812-0.23438 0.73438-0.54688 0.17188-0.35938 0.29688-0.96875 0.29688-0.98438 0-0.10938-0.09375-0.10938-0.125-0.10938-0.09375 0-0.10938 0.046875-0.14062 0.1875-0.15625 0.64062-0.34375 1.2344-0.75 1.2344-0.26562 0-0.29688-0.26562-0.29688-0.45312 0-0.21875 0.10938-0.6875 0.1875-1.0469l0.28125-1.0781c0.03125-0.14062 0.14062-0.51562 0.17188-0.67188 0.046875-0.23438 0.15625-0.60938 0.15625-0.67188 0-0.17188-0.14062-0.26562-0.29688-0.26562-0.046875 0-0.3125 0.015625-0.39062 0.34375l-0.46875 1.875c-0.10938 0.5-0.21875 0.90625-0.25 1.0156-0.015625 0.046875-0.48438 0.95312-1.2969 0.95312-0.5 0-0.73438-0.32812-0.73438-0.875 0-0.28125 0.0625-0.5625 0.14062-0.84375z"/>
  </symbol>
  <symbol id="symbol3153" overflow="visible">
   <path d="m3.3281-3.0156c0.0625-0.25 0.29688-1.1719 0.98438-1.1719 0.046875 0 0.29688 0 0.5 0.125-0.28125 0.0625-0.46875 0.29688-0.46875 0.54688 0 0.15625 0.10938 0.34375 0.375 0.34375 0.21875 0 0.53125-0.17188 0.53125-0.57812 0-0.51562-0.57812-0.65625-0.92188-0.65625-0.57812 0-0.92188 0.53125-1.0469 0.75-0.25-0.65625-0.78125-0.75-1.0781-0.75-1.0312 0-1.6094 1.2812-1.6094 1.5312 0 0.10938 0.10938 0.10938 0.125 0.10938 0.078125 0 0.10938-0.03125 0.125-0.10938 0.34375-1.0625 1-1.3125 1.3438-1.3125 0.1875 0 0.53125 0.09375 0.53125 0.67188 0 0.3125-0.17188 0.96875-0.53125 2.375-0.15625 0.60938-0.51562 1.0312-0.95312 1.0312-0.0625 0-0.28125 0-0.5-0.125 0.25-0.0625 0.46875-0.26562 0.46875-0.54688 0-0.26562-0.21875-0.34375-0.35938-0.34375-0.3125 0-0.54688 0.25-0.54688 0.57812 0 0.45312 0.48438 0.65625 0.92188 0.65625 0.67188 0 1.0312-0.70312 1.0469-0.75 0.125 0.35938 0.48438 0.75 1.0781 0.75 1.0312 0 1.5938-1.2812 1.5938-1.5312 0-0.10938-0.078125-0.10938-0.10938-0.10938-0.09375 0-0.10938 0.046875-0.14062 0.10938-0.32812 1.0781-1 1.3125-1.3125 1.3125-0.39062 0-0.54688-0.3125-0.54688-0.65625 0-0.21875 0.046875-0.4375 0.15625-0.875z"/>
  </symbol>
  <symbol id="symbol2724" overflow="visible">
   <path d="m2.0312-0.015625c0-0.65625-0.25-1.0469-0.64062-1.0469-0.32812 0-0.53125 0.25-0.53125 0.53125 0 0.26562 0.20312 0.53125 0.53125 0.53125 0.10938 0 0.25-0.046875 0.34375-0.125 0.03125-0.03125 0.046875-0.03125 0.046875-0.03125 0.015625 0 0.015625 0 0.015625 0.14062 0 0.75-0.34375 1.3438-0.67188 1.6719-0.10938 0.10938-0.10938 0.125-0.10938 0.15625 0 0.078125 0.046875 0.10938 0.09375 0.10938 0.10938 0 0.92188-0.76562 0.92188-1.9375z"/>
  </symbol>
  <symbol id="symbol5403" overflow="visible">
   <path d="m4.8438-3.7969c0.046875-0.14062 0.046875-0.15625 0.046875-0.23438 0-0.17188-0.14062-0.26562-0.29688-0.26562-0.09375 0-0.25 0.0625-0.34375 0.20312-0.015625 0.0625-0.10938 0.35938-0.14062 0.54688-0.078125 0.25-0.14062 0.53125-0.20312 0.79688l-0.45312 1.7969c-0.03125 0.14062-0.46875 0.84375-1.125 0.84375-0.5 0-0.60938-0.4375-0.60938-0.8125 0-0.45312 0.17188-1.0781 0.5-1.9531 0.15625-0.40625 0.20312-0.51562 0.20312-0.71875 0-0.4375-0.3125-0.8125-0.8125-0.8125-0.95312 0-1.3125 1.4531-1.3125 1.5312 0 0.10938 0.09375 0.10938 0.10938 0.10938 0.10938 0 0.10938-0.03125 0.15625-0.1875 0.28125-0.9375 0.67188-1.2344 1.0156-1.2344 0.078125 0 0.25 0 0.25 0.3125 0 0.25-0.10938 0.51562-0.17188 0.70312-0.40625 1.0625-0.57812 1.625-0.57812 2.0938 0 0.89062 0.625 1.1875 1.2188 1.1875 0.39062 0 0.71875-0.17188 1-0.45312-0.125 0.51562-0.25 1.0156-0.64062 1.5469-0.26562 0.32812-0.64062 0.625-1.0938 0.625-0.14062 0-0.59375-0.03125-0.76562-0.42188 0.15625 0 0.29688 0 0.42188-0.125 0.10938-0.078125 0.20312-0.21875 0.20312-0.40625 0-0.3125-0.26562-0.34375-0.35938-0.34375-0.23438 0-0.5625 0.15625-0.5625 0.64062 0 0.5 0.4375 0.875 1.0625 0.875 1.0156 0 2.0469-0.90625 2.3281-2.0312z"/>
  </symbol>
  <symbol id="symbol6459" overflow="visible">
   <path d="m1.3281-0.82812c0.53125-0.57812 0.82812-0.82812 1.1875-1.1406 0 0 0.60938-0.53125 0.96875-0.89062 0.95312-0.92188 1.1719-1.4062 1.1719-1.4531 0-0.09375-0.09375-0.09375-0.10938-0.09375-0.078125 0-0.09375 0.015625-0.15625 0.10938-0.29688 0.48438-0.5 0.64062-0.73438 0.64062-0.25 0-0.35938-0.15625-0.51562-0.32812-0.1875-0.21875-0.35938-0.42188-0.6875-0.42188-0.75 0-1.2031 0.92188-1.2031 1.1406 0 0.046875 0.03125 0.10938 0.10938 0.10938 0.09375 0 0.10938-0.046875 0.14062-0.10938 0.1875-0.46875 0.76562-0.46875 0.84375-0.46875 0.20312 0 0.39062 0.0625 0.625 0.14062 0.40625 0.15625 0.51562 0.15625 0.76562 0.15625-0.35938 0.42188-1.1875 1.1406-1.375 1.2969l-0.90625 0.84375c-0.67188 0.67188-1.0312 1.2344-1.0312 1.3125 0 0.09375 0.10938 0.09375 0.125 0.09375 0.078125 0 0.09375-0.015625 0.15625-0.125 0.23438-0.35938 0.53125-0.625 0.85938-0.625 0.21875 0 0.32812 0.09375 0.57812 0.375 0.15625 0.21875 0.34375 0.375 0.625 0.375 1 0 1.5781-1.2656 1.5781-1.5312 0-0.046875-0.046875-0.10938-0.125-0.10938-0.09375 0-0.10938 0.0625-0.14062 0.14062-0.23438 0.64062-0.875 0.82812-1.2031 0.82812-0.1875 0-0.375-0.0625-0.57812-0.125-0.34375-0.125-0.5-0.17188-0.70312-0.17188-0.015625 0-0.17188 0-0.26562 0.03125z"/>
  </symbol>
  <symbol id="symbol1921" overflow="visible">
   <path d="m3.5938-2.2188c0-0.76562-0.09375-1.3281-0.40625-1.8125-0.21875-0.3125-0.65625-0.59375-1.2031-0.59375-1.625 0-1.625 1.9062-1.625 2.4062s0 2.3594 1.625 2.3594c1.6094 0 1.6094-1.8594 1.6094-2.3594zm-1.6094 2.1562c-0.32812 0-0.75-0.1875-0.89062-0.75-0.09375-0.40625-0.09375-0.98438-0.09375-1.5s0-1.0469 0.09375-1.4219c0.15625-0.54688 0.59375-0.70312 0.89062-0.70312 0.375 0 0.73438 0.23438 0.85938 0.64062 0.10938 0.375 0.125 0.875 0.125 1.4844 0 0.51562 0 1.0312-0.09375 1.4688-0.14062 0.64062-0.60938 0.78125-0.89062 0.78125z"/>
  </symbol>
  <symbol id="symbol5762" overflow="visible">
   <path d="m6.8438-3.2656c0.15625 0 0.34375 0 0.34375-0.1875 0-0.20312-0.1875-0.20312-0.32812-0.20312h-5.9688c-0.14062 0-0.32812 0-0.32812 0.20312 0 0.1875 0.1875 0.1875 0.32812 0.1875zm0.015625 1.9375c0.14062 0 0.32812 0 0.32812-0.20312 0-0.1875-0.1875-0.1875-0.34375-0.1875h-5.9531c-0.14062 0-0.32812 0-0.32812 0.1875 0 0.20312 0.1875 0.20312 0.32812 0.20312z"/>
  </symbol>
  <symbol id="symbol8000" overflow="visible">
   <path d="m3.2969 2.3906c0-0.03125 0-0.046875-0.17188-0.21875-1.2344-1.25-1.5625-3.1406-1.5625-4.6719 0-1.7344 0.375-3.4688 1.6094-4.7031 0.125-0.125 0.125-0.14062 0.125-0.17188 0-0.078125-0.03125-0.10938-0.09375-0.10938-0.10938 0-1 0.6875-1.5938 1.9531-0.5 1.0938-0.625 2.2031-0.625 3.0312 0 0.78125 0.10938 1.9844 0.65625 3.125 0.60938 1.2188 1.4531 1.875 1.5625 1.875 0.0625 0 0.09375-0.03125 0.09375-0.10938z"/>
  </symbol>
  <symbol id="symbol8712" overflow="visible">
   <path d="m2.875-2.5c0-0.76562-0.10938-1.9688-0.65625-3.1094-0.59375-1.2188-1.4531-1.875-1.5469-1.875-0.0625 0-0.10938 0.046875-0.10938 0.10938 0 0.03125 0 0.046875 0.1875 0.23438 0.98438 0.98438 1.5469 2.5625 1.5469 4.6406 0 1.7188-0.35938 3.4688-1.5938 4.7188-0.14062 0.125-0.14062 0.14062-0.14062 0.17188 0 0.0625 0.046875 0.10938 0.10938 0.10938 0.09375 0 1-0.6875 1.5781-1.9531 0.51562-1.0938 0.625-2.2031 0.625-3.0469z"/>
  </symbol>
  <symbol id="symbol4353" overflow="visible">
   <path d="m3.7344-6.0312c0.078125-0.35938 0.10938-0.46875 1.0469-0.46875 0.29688 0 0.375 0 0.375-0.1875 0-0.125-0.10938-0.125-0.15625-0.125-0.32812 0-1.1406 0.03125-1.4688 0.03125-0.29688 0-1.0312-0.03125-1.3281-0.03125-0.0625 0-0.1875 0-0.1875 0.20312 0 0.10938 0.09375 0.10938 0.28125 0.10938 0.015625 0 0.20312 0 0.375 0.015625 0.17188 0.03125 0.26562 0.03125 0.26562 0.17188 0 0.03125 0 0.0625-0.03125 0.1875l-1.3438 5.3438c-0.09375 0.39062-0.10938 0.46875-0.90625 0.46875-0.17188 0-0.26562 0-0.26562 0.20312 0 0.10938 0.09375 0.10938 0.26562 0.10938h4.625c0.23438 0 0.23438 0 0.29688-0.17188l0.79688-2.1562c0.03125-0.10938 0.03125-0.125 0.03125-0.14062 0-0.03125-0.03125-0.10938-0.10938-0.10938-0.09375 0-0.10938 0.0625-0.17188 0.21875-0.34375 0.90625-0.78125 2.0469-2.5 2.0469h-0.9375-0.21875c-0.10938-0.015625-0.14062-0.03125-0.14062-0.10938 0-0.03125 0-0.046875 0.046875-0.21875z"/>
  </symbol>
 </defs>
 <g transform="translate(-26.382 -35.451)" inkscape:groupmode="layer" inkscape:label="Layer 1">
  <path d="m26.492 84.935c1.2839-1.895 69.83-40.316 69.83-40.316" fill="none" marker-end="url(#Arrow1Lend)" stroke="#000" stroke-width=".26458px"/>
  <path d="m58.654 90.319 26.543-15.325" fill="none" marker-end="url(#Arrow1Lend)" stroke="#000" stroke-width=".26458px"/>
  <g transform="matrix(.57081 0 0 .57081 21.567 42.719)" inkscape:label="">
   <g>
    <use x="91.538002" y="82.301003" width="100%" height="100%" xlink:href="#symbol5364"/>
    <use x="91.926544" y="82.301003" width="100%" height="100%" xlink:href="#symbol2203"/>
    <use x="99.878998" y="82.301003" width="100%" height="100%" xlink:href="#symbol8410"/>
    <use x="129.388" y="79.117996" width="100%" height="100%" xlink:href="#symbol5364"/>
    <use x="110.395" y="82.301003" width="100%" height="100%" xlink:href="#symbol7174"/>
    <use x="114.27" y="82.301003" width="100%" height="100%" xlink:href="#symbol2203"/>
    <use x="119.099" y="83.794998" width="100%" height="100%" xlink:href="#symbol5964"/>
    <use x="123.568" y="82.301003" width="100%" height="100%" xlink:href="#symbol1794"/>
    <use x="127.99937" y="82.301003" width="100%" height="100%" xlink:href="#symbol2203"/>
    <use x="132.825" y="83.794998" width="100%" height="100%" xlink:href="#symbol3134"/>
    <use x="137.29401" y="82.301003" width="100%" height="100%" xlink:href="#symbol1794"/>
    <use x="141.72536" y="82.301003" width="100%" height="100%" xlink:href="#symbol2203"/>
    <use x="146.55099" y="83.794998" width="100%" height="100%" xlink:href="#symbol143"/>
    <use x="151.021" y="82.301003" width="100%" height="100%" xlink:href="#symbol5955"/>
   </g>
  </g>
  <g transform="matrix(.5906 0 0 .5906 32.261 -7.0677)" inkscape:label="">
   <g>
    <use x="91.946999" y="82.301003" width="100%" height="100%" xlink:href="#symbol2555"/>
    <use x="91.927078" y="82.301003" width="100%" height="100%" xlink:href="#symbol1835"/>
    <use x="100.696" y="82.301003" width="100%" height="100%" xlink:href="#symbol6355"/>
    <use x="124.261" y="79.117996" width="100%" height="100%" xlink:href="#symbol2555"/>
    <use x="111.212" y="82.301003" width="100%" height="100%" xlink:href="#symbol1420"/>
    <use x="115.086" y="82.301003" width="100%" height="100%" xlink:href="#symbol8909"/>
    <use x="120.77962" y="82.301003" width="100%" height="100%" xlink:href="#symbol358"/>
    <use x="125.21099" y="82.301003" width="100%" height="100%" xlink:href="#symbol1396"/>
    <use x="130.4543" y="82.301003" width="100%" height="100%" xlink:href="#symbol358"/>
    <use x="134.8757" y="82.301003" width="100%" height="100%" xlink:href="#symbol4104"/>
    <use x="139.94901" y="82.301003" width="100%" height="100%" xlink:href="#symbol1053"/>
   </g>
  </g>
  <g transform="matrix(.50512 0 0 .50512 -19.151 21.009)" inkscape:label="">
   <g>
    <use x="91.946999" y="82.301003" width="100%" height="100%" xlink:href="#symbol4229"/>
    <use x="91.927078" y="82.301003" width="100%" height="100%" xlink:href="#symbol5400"/>
    <use x="97.928001" y="83.794998" width="100%" height="100%" xlink:href="#symbol1921"/>
    <use x="105.165" y="82.301003" width="100%" height="100%" xlink:href="#symbol5762"/>
    <use x="135.036" y="79.117996" width="100%" height="100%" xlink:href="#symbol4229"/>
    <use x="115.681" y="82.301003" width="100%" height="100%" xlink:href="#symbol8000"/>
    <use x="119.555" y="82.301003" width="100%" height="100%" xlink:href="#symbol3153"/>
    <use x="125.249" y="83.794998" width="100%" height="100%" xlink:href="#symbol1921"/>
    <use x="129.71899" y="82.301003" width="100%" height="100%" xlink:href="#symbol2724"/>
    <use x="134.15036" y="82.301003" width="100%" height="100%" xlink:href="#symbol5403"/>
    <use x="139.03101" y="83.794998" width="100%" height="100%" xlink:href="#symbol1921"/>
    <use x="143.5" y="82.301003" width="100%" height="100%" xlink:href="#symbol2724"/>
    <use x="147.93137" y="82.301003" width="100%" height="100%" xlink:href="#symbol6459"/>
    <use x="152.561" y="83.794998" width="100%" height="100%" xlink:href="#symbol1921"/>
    <use x="157.03101" y="82.301003" width="100%" height="100%" xlink:href="#symbol8712"/>
   </g>
  </g>
  <circle cx="56.54" cy="67.11" r=".71389" stroke-width=".37501"/>
  <g transform="matrix(1.7804 0 0 1.7804 -106.16 -96.685)" inkscape:label="">
   <g>
    <use x="91.925003" y="81.962997" width="100%" height="100%" xlink:href="#symbol4353"/>
   </g>
  </g>
 </g>
</svg>
