<?xml version="1.0" encoding="UTF-8" standalone="no"?>
<!-- Created with Inkscape (http://www.inkscape.org/) -->

<svg
   width="87.59166mm"
   height="43.168182mm"
   viewBox="0 0 87.591659 43.168182"
   version="1.1"
   id="svg5"
   xmlns="http://www.w3.org/2000/svg"
   xmlns:svg="http://www.w3.org/2000/svg">
  <defs
     id="defs2" />
  <g
     id="layer1"
     transform="translate(-51.733203,-86.136061)">
    <path
       style="fill:#000000;stroke-width:0.264999"
       id="path742"
       d="m 58.992142,126.11125 c -0.148624,-0.11469 -0.314219,-0.26308 -0.500248,-0.31718 -0.502531,-0.14615 -0.960905,0.18898 -1.342614,0.46082 -0.0929,0.10078 -0.204174,0.18731 -0.278699,0.30234 -0.223372,0.34479 -0.275558,0.79606 -0.157372,1.18579 0.03693,0.12176 0.07767,0.2503 0.161862,0.3457 0.331192,0.37533 0.714359,0.70136 1.071538,1.05204 0.123095,0.0454 0.240679,0.11022 0.369285,0.13613 0.831657,0.16757 1.434174,-0.46662 1.923113,-1.0337 0.293783,-0.41081 0.609068,-0.9589 0.374957,-1.47522 -0.03196,-0.0705 -0.08189,-0.13133 -0.12283,-0.19699 -0.385654,-0.3669 -0.193432,-0.19553 -0.574609,-0.51643 0,0 -0.03234,-0.0236 -0.03234,-0.0236 v 0 c -0.126444,-0.0593 -0.06158,-0.0344 -0.194553,-0.075 0.04231,0.0837 0.124867,0.24003 0.146637,0.32076 0.119811,0.4443 -0.1427,0.84508 -0.377608,1.19856 -0.468558,0.55811 -1.020551,1.16007 -1.835346,0.9224 -0.121909,-0.0356 -0.229661,-0.10845 -0.34449,-0.16267 0.169381,0.18743 0.306737,0.40978 0.508138,0.56229 0.08987,0.068 -0.123677,-0.19135 -0.159441,-0.29826 -0.169931,-0.50797 0.0412,-1.02011 0.316804,-1.44088 0.08321,-0.0961 0.154649,-0.20381 0.24964,-0.28829 0.307515,-0.27347 0.752353,-0.39964 1.130025,-0.21253 0,0 -0.331854,-0.44609 -0.331854,-0.44609 z" />
    <path
       style="fill:#000000;stroke-width:0.264999"
       id="path744"
       d="m 88.655947,125.49787 c -0.529455,0.18588 -0.986554,0.60289 -1.281792,1.07809 -0.05965,0.096 -0.09857,0.20342 -0.147847,0.30512 -0.01572,0.10044 -0.04852,0.19966 -0.04718,0.30131 0.0024,0.17102 0.07524,0.39024 0.19485,0.51744 0.220646,0.23467 0.705368,0.88404 1.187871,1.01802 0.08752,0.0243 0.180395,0.0214 0.270594,0.0322 0.642662,-0.0258 1.112748,-0.36303 1.372119,-0.95729 0.04937,-0.11312 0.06993,-0.23672 0.104899,-0.35509 5.29e-4,-0.11184 0.01701,-0.22475 0.0016,-0.33552 -0.0737,-0.53005 -0.53815,-0.81728 -0.929431,-1.11572 0,0 0.02402,0.032 0.02402,0.032 v 0 c 0.0307,0.02 0.116872,0.0331 0.0921,0.0602 -0.02638,0.0288 -0.115118,-0.0795 -0.10985,-0.0408 0.01111,0.0817 0.09582,0.13494 0.132699,0.20865 0.145145,0.29008 0.111588,0.27677 0.135906,0.60309 -0.0279,0.11474 -0.03997,0.23454 -0.08371,0.34422 -0.16895,0.42373 -0.553371,0.81517 -1.030071,0.8464 -0.10451,0.007 -0.208496,-0.0202 -0.312748,-0.0302 -0.09978,-0.035 -0.202747,-0.062 -0.299352,-0.10504 -0.32303,-0.14385 -0.689395,-0.52491 0.276106,0.42548 0.06132,0.0604 -0.116771,-0.12907 -0.156083,-0.20561 -0.112382,-0.21881 -0.07776,-0.3047 -0.07049,-0.54514 0.169485,-0.4547 0.391676,-0.91691 0.775764,-1.23416 0.154101,-0.12728 0.276066,-0.16018 0.45243,-0.22765 0,0 -0.5524,-0.6199 -0.5524,-0.6199 z" />
    <path
       style="fill:#000000;stroke-width:0.264999"
       id="path746"
       d="m 114.95184,124.30228 c -0.64677,0.16067 -1.15974,0.58835 -1.50234,1.15515 -0.0777,0.12859 -0.13398,0.26899 -0.20097,0.40348 -0.15642,0.43024 -0.24362,0.91873 0.0107,1.33309 0.044,0.0717 0.0995,0.13673 0.16069,0.1944 0.29849,0.28145 0.61108,0.54757 0.91661,0.82135 0.48764,0.1444 0.95072,-0.0287 1.27729,-0.41121 0.0823,-0.0964 0.14712,-0.20632 0.22069,-0.30949 0.29818,-0.51638 0.50765,-1.12624 0.34793,-1.7261 -0.0252,-0.0947 -0.0723,-0.18216 -0.10843,-0.27325 -0.38296,-0.43883 -0.19136,-0.24076 -0.56866,-0.60008 0,0 -0.0322,-0.0237 -0.0322,-0.0237 v 0 c 0.009,0.0803 0.0173,0.04 -0.0392,0.11682 0.27821,0.73561 0.1757,1.24029 -0.20372,1.92136 -0.14833,0.20532 -0.23973,0.37337 -0.45454,0.51667 -0.32227,0.215 -0.71032,0.16246 -1.03821,0.003 0.1633,0.18542 0.33418,0.36444 0.48992,0.55627 0.0531,0.0654 -0.12963,-0.10942 -0.18118,-0.17598 -0.0552,-0.0713 -0.10383,-0.14952 -0.13615,-0.23369 -0.13275,-0.34571 -0.0484,-0.69901 0.061,-1.03647 0.0577,-0.13695 0.10709,-0.27767 0.17304,-0.41083 0.28171,-0.5688 0.71468,-1.01569 1.28081,-1.30241 0,0 -0.473,-0.51831 -0.473,-0.51831 z" />
    <path
       style="fill:#000000;stroke-width:0.264999"
       id="path750"
       d="m 52.764594,125.11235 c -0.459044,0.16292 -0.924277,0.51392 -0.991253,1.03382 -0.01249,0.097 0.01198,0.19523 0.01796,0.29284 0.267295,0.47893 0.251862,0.5122 0.994338,0.96476 0.07999,0.0488 0.18872,-0.0132 0.277884,-0.042 0.174334,-0.0562 0.351769,-0.17405 0.45697,-0.32708 0.04617,-0.0672 0.06217,-0.15068 0.09326,-0.22602 -0.104116,-0.48227 -0.06621,-0.52266 -0.934926,-0.81432 -0.10899,-0.0366 -0.681543,0.47831 -0.703443,0.50546 -0.243281,0.30171 -0.207597,0.40529 -0.242181,0.75244 0.03957,0.0811 0.05082,0.18382 0.118721,0.24322 0.297387,0.26015 0.592029,0.54883 0.957721,0.69846 0.105812,0.0433 0.199392,-0.11477 0.285752,-0.18968 0.13797,-0.11969 0.313939,-0.3095 0.329938,-0.51179 0.0049,-0.0627 -0.03909,-0.11957 -0.05863,-0.17935 -0.281498,-0.22687 -0.531254,-0.50008 -0.844497,-0.6806 -0.11675,-0.0673 -0.306882,0.10422 -0.349271,0.1926 -0.0176,0.0367 -0.03526,0.0943 -0.0054,0.12193 0.255371,0.23617 0.512525,0.48718 0.82632,0.63726 0.07815,0.0374 0.147535,-0.0908 0.221303,-0.13624 0.09467,-0.084 0.28593,-0.22869 0.342329,-0.36089 0.125187,-0.29345 -0.749131,-0.69904 -0.777645,-0.71086 -0.114496,-0.0475 -0.44877,0.31969 -0.494435,0.36437 -0.03199,0.0681 -0.08163,0.13036 -0.09597,0.20418 -0.0079,0.0404 2.65e-4,0.0942 0.03321,0.11896 0.267779,0.20107 0.529503,0.43269 0.846233,0.54139 0.04589,0.0158 0.345823,-0.31099 0.372769,-0.34997 0.02154,-0.0312 0.02453,-0.0717 0.03677,-0.10752 -0.213966,-0.15629 -0.389493,-0.38824 -0.641897,-0.46886 -0.09743,-0.0311 -0.166365,0.11944 -0.24416,0.18584 -0.233371,0.19919 -0.341138,0.27259 -0.427496,0.57272 -0.02265,0.0787 -0.06063,0.18004 -0.01135,0.24546 0.199403,0.26474 0.477292,0.45997 0.715938,0.68996 0.101701,-0.0156 0.206942,-0.016 0.305107,-0.0468 0.126804,-0.0398 0.96283,-0.44126 0.761548,-0.68074 -0.192749,-0.22933 -0.441786,-0.40472 -0.662678,-0.60709 -0.140528,-0.0186 -0.343416,-0.0597 -0.487667,-0.024 -0.01482,0.004 -0.225639,0.10617 -0.111982,0.18955 0.257291,0.18876 0.513667,0.40323 0.819176,0.4954 0.106484,0.0321 0.195244,-0.1066 0.292865,-0.15991 0.102243,-0.0611 0.206473,-0.1189 0.306729,-0.18317 0.09862,-0.0632 0.345911,-0.20513 0.393514,-0.35043 0.0911,-0.27805 -0.65678,-0.69316 -0.73003,-0.72931 -0.08929,-0.0441 -0.19249,0.051 -0.288734,0.0765 -0.266986,0.0931 -0.683567,0.23942 -0.638152,0.61284 0.01066,0.0876 0.05654,0.17479 0.120335,0.23573 0.924822,0.88359 0.617758,0.77018 1.359364,0.89271 0.223538,-0.001 0.847849,0.0221 0.765418,-0.38589 -0.04264,-0.21106 -0.235622,-0.39761 -0.363067,-0.55018 -0.141478,0.0796 -0.989689,-1.24973 -1.365919,-1.09327 -0.09452,0.0393 -0.0684,0.14962 -0.06881,0.21972 0.204716,0.34008 0.169537,0.31031 0.745979,0.70111 0.101719,0.069 0.404532,-0.0669 0.471633,-0.15307 0.02653,-0.0341 0.03056,-0.0808 0.04583,-0.12117 -0.227116,-0.584 -0.673629,-0.82388 -1.16277,-0.52816 -0.071,0.0429 -0.140512,0.0935 -0.19168,0.15879 -0.04282,0.0546 -0.05503,0.12749 -0.08254,0.19123 0.09028,0.39946 0.04316,0.35543 0.712702,0.68913 0.07456,0.0372 0.162267,-0.0389 0.241102,-0.0658 0.103116,-0.0352 0.324152,-0.12109 0.409461,-0.21047 0.03079,-0.0323 0.03571,-0.0817 0.05356,-0.12261 -0.60879,-0.67348 -0.42182,-0.6877 -1.071486,-0.61865 -0.03613,0.004 -0.312951,0.0324 -0.371234,0.0752 -0.02408,0.0177 -0.01963,0.0565 -0.02944,0.0847 0.590865,0.51389 0.586002,0.68804 1.080781,0.40963 0.04645,-0.0261 0.181872,-0.0881 0.08981,-0.18107 -0.197588,-0.19956 -0.427688,-0.36407 -0.641532,-0.5461 -0.105548,-0.0181 -0.229897,-0.0298 -0.32412,-0.0881 -0.04889,-0.0302 -0.16964,-0.15489 -0.124579,-0.11921 0.54147,0.42879 0.332475,0.46177 0.447217,0.0453 0.10509,-0.38138 -0.01344,-0.42788 -0.472321,-0.72274 -0.02617,-0.0168 -0.362243,0.15122 -0.405431,0.17261 -0.02891,0.0198 -0.06504,0.0319 -0.08673,0.0595 -0.01622,0.0206 -0.03816,0.0571 -0.02003,0.0761 0.197808,0.20702 0.397571,0.42063 0.640098,0.57283 0.08857,0.0556 0.536517,-0.19677 0.620282,-0.24524 0.04697,-0.0341 0.102796,-0.0585 0.140909,-0.10227 0.191137,-0.21949 -0.294214,-0.51796 -0.52042,-0.7011 -0.08386,-0.0679 -0.515016,0.14179 -0.589081,0.17775 -0.05416,0.0495 -0.122672,0.0869 -0.162491,0.14849 -0.254715,0.3942 0.686794,0.96067 0.723995,0.99001 0.02756,0.0217 0.255812,0.0365 0.300225,0.0402 0.02627,0.0166 0.101394,0.071 0.07883,0.0497 -0.184362,-0.17444 -0.35487,-0.36823 -0.56538,-0.51002 -0.03038,-0.0205 -0.02342,0.0696 -0.0397,0.10246 -0.02299,0.0463 -0.06063,0.0854 -0.07776,0.13425 -0.01937,0.0552 -0.02862,0.11442 -0.03003,0.1729 -0.0013,0.0559 0.01455,0.11091 0.02186,0.16636 0.024,0.0441 0.03615,0.0971 0.07197,0.13229 0.24125,0.23689 0.483169,0.47605 0.753875,0.67862 0.05905,0.0442 0.259093,-0.10663 0.28498,-0.15524 0.01378,-0.0259 0.0065,-0.0584 0.0097,-0.0875 -0.204396,-0.16693 -0.387644,-0.36377 -0.613193,-0.50078 -0.05148,-0.0313 -0.11956,0.0154 -0.179668,0.0192 -0.06979,0.004 -0.140436,-0.004 -0.209722,0.005 -0.05318,0.007 -0.10587,0.0223 -0.154768,0.0445 -0.02691,0.0122 -0.0886,0.0351 -0.06826,0.0565 0.177792,0.18745 0.396044,0.33189 0.594069,0.49783 0.150193,-0.0671 0.277172,-0.16296 0.368734,-0.30113 0.019,-0.0287 0.06454,-0.0654 0.04427,-0.0932 -0.414645,-0.5684 -0.279056,-0.53766 -0.63848,-0.52766 -0.537725,0.0853 -0.263554,0.30302 0.30806,0.62562 0.03711,0.0209 0.05119,-0.0681 0.07775,-0.10145 0.01937,-0.0243 0.03999,-0.0475 0.05999,-0.0713 0.196799,-0.21692 0.12529,-0.11622 -0.582449,-0.49555 -0.03924,-0.021 -0.08141,0.0416 -0.110061,0.0756 -0.09385,0.11158 -0.0831,0.2479 -0.05307,0.37604 -1.527643,-0.41742 0.685279,0.93378 0.788639,0.6239 0.0081,-0.0243 -0.01114,-0.0501 -0.0167,-0.0751 0,0 -0.434697,-0.44911 -0.434697,-0.44911 v 0 c -0.232288,-0.21749 -0.843436,-0.22547 0.346829,0.44742 -0.01267,-0.0262 -0.03282,-0.0499 -0.03805,-0.0786 -0.01286,-0.0703 0.08181,-0.33332 0.0679,-0.3524 -0.145373,-0.1995 -0.345482,-0.35317 -0.506175,-0.54055 -0.01413,-0.0165 0.0409,0.0146 0.06135,0.0219 -0.0055,0.0277 2.33e-4,0.0604 -0.01646,0.0832 -0.02029,0.0277 -0.102881,0.0269 -0.08598,0.0568 0.513403,0.9078 0.247629,0.5664 0.607203,0.4034 0.256379,-0.0209 0.181221,0.005 -0.311758,-0.44836 -0.02199,-0.0202 0.01669,0.0641 0.0011,0.0896 -0.07612,0.12533 -0.273211,0.16632 -0.393938,0.22292 0.127518,0.18364 0.23667,0.38151 0.382558,0.55094 0.01556,0.0181 0.04185,-0.023 0.06356,-0.0329 0.04293,-0.0195 0.08687,-0.0367 0.130228,-0.0553 0.04927,-0.0211 0.09532,-0.0521 0.147645,-0.0637 0.316852,-0.0705 0.362654,0.2336 -0.200644,-0.46071 0.01746,0.008 0.0521,0.004 0.05239,0.0233 7.94e-4,0.0606 -0.120449,0.0404 -0.17967,0.0276 -0.04759,-0.0103 -0.167119,-0.0867 -0.13811,-0.0476 0.0541,0.0729 0.774975,0.83247 0.444431,0.48386 -0.108961,-0.56098 0.439272,-1.07215 -0.63821,-1.34526 -0.442862,-0.0944 -0.43508,-0.2465 0.162907,0.42305 0.02977,0.0333 -0.07789,-0.0558 -0.0909,-0.0985 -0.03596,-0.11812 0.07644,-0.23231 0.129241,-0.3117 0.11974,-0.11023 0.155953,-0.18302 0.328215,-0.19628 0.0475,-0.004 0.165026,0.0721 0.139296,0.032 -0.113165,-0.17634 -0.279535,-0.3122 -0.419301,-0.4683 0.0039,0.0248 0.02394,0.0525 0.01156,0.0743 -0.02614,0.046 -0.07708,0.0726 -0.115615,0.10893 -0.145907,0.0734 -0.247182,0.13802 -0.412909,0.16414 -0.06395,0.0101 -0.220617,-0.0607 -0.194223,-0.002 0.08505,0.19048 0.275231,0.3137 0.406099,0.47614 0.02093,0.026 -0.06449,-0.0343 -0.0755,-0.0658 -0.01021,-0.0292 0.01394,-0.0603 0.0209,-0.0905 0.09972,-0.0803 0.103894,-0.0994 0.235593,-0.13542 0.0382,-0.0104 0.136636,0.0206 0.117932,-0.0143 -0.08237,-0.15372 -0.226057,-0.26563 -0.339084,-0.39844 0.0085,0.029 0.02922,0.057 0.0254,0.087 -0.0064,0.05 -0.0364,0.094 -0.05459,0.14107 -0.01143,0.0288 -0.118793,0.26827 -0.0901,0.31377 0.310335,0.49219 0.513082,0.62198 0.981043,0.80737 -0.125151,-0.14642 -0.263004,-0.28287 -0.375452,-0.43926 -0.01283,-0.0178 0.06939,-0.0136 0.06538,0.008 -0.01169,0.0631 -0.243033,0.11601 -0.245665,0.11665 -0.06111,0.0149 -0.212572,-0.0246 -0.18591,0.0323 0.104294,0.22285 0.312087,0.38048 0.468133,0.57072 -0.03043,0.003 -0.09428,0.0387 -0.09129,0.008 0.0053,-0.0538 0.203779,-0.1071 0.292621,-0.11968 0.480788,-0.0681 0.707255,0.32485 0.03095,-0.43872 -0.0013,0.0342 0.01339,0.0732 -0.004,0.10268 -0.06224,0.10565 -0.240569,0.19994 -0.343479,0.23509 -0.07216,0.0247 -0.239768,-0.033 -0.22492,0.0418 0.02843,0.14323 0.477161,0.70183 0.269166,0.3456 0.08489,-0.20562 0.191381,-0.36565 0.422143,-0.43077 0.06368,-0.018 0.218427,0.0515 0.198149,-0.0114 -0.05592,-0.17364 -0.234511,-0.28003 -0.339947,-0.4289 -0.02405,-0.034 0.0628,0.0546 0.0942,0.0819 -0.0011,0.0303 0.01521,0.0668 -0.0032,0.0909 -0.04832,0.0631 -0.215006,0.0959 -0.278937,0.0965 -0.05693,5.3e-4 -0.194339,-0.0773 -0.16874,-0.0265 0.100332,0.19933 0.581533,0.62512 0.293102,0.36588 -0.04857,-0.1027 0.09523,-0.0391 0.14214,-0.0185 0.202848,0.0888 0.737079,0.57944 0.08384,-0.0573 0.07859,0.0882 0.453144,0.41124 0.347575,0.59254 -0.126971,0.21807 -0.598104,0.0376 -0.755065,0.0399 -0.613177,-0.14795 -0.351322,-0.16341 0.06924,0.47425 0.04646,0.0704 -0.141258,-0.10669 -0.172881,-0.18492 -0.11937,-0.29532 0.172378,-0.57605 0.37139,-0.72774 0.440738,-0.0913 0.330467,0.0143 -0.07637,-0.52266 -0.02186,-0.0288 0.06072,0.059 0.05348,0.0945 -0.01288,0.0631 -0.05931,0.11706 -0.105786,0.16162 -0.122909,0.11787 -0.416261,0.27785 -0.554479,0.35913 -0.09944,0.0431 -0.312282,0.0218 -0.298318,0.12923 0.03076,0.23665 0.28502,0.38562 0.392893,0.59849 0.01508,0.0297 -0.0854,0.0132 -0.09847,-0.0175 -0.01624,-0.0381 0.116898,-0.13769 0.210471,-0.14883 0.06983,-0.008 0.139557,0.0175 0.209336,0.0262 -0.107535,-0.13701 -0.197575,-0.28977 -0.322604,-0.41103 -0.03172,-0.0308 0.04574,0.0869 0.03156,0.12877 -0.02315,0.0684 -0.07742,0.12483 -0.133038,0.17083 -0.247007,0.20425 -0.563504,0.2923 -0.878403,0.2669 0.124566,0.15424 0.208952,0.35243 0.373698,0.46274 0.06515,0.0436 -0.04605,-0.15626 -0.03085,-0.23318 0.02122,-0.10734 0.08418,-0.20238 0.13598,-0.29876 0.05902,-0.10981 0.114329,-0.22429 0.195837,-0.31861 0.06119,-0.0708 0.244705,-0.0767 0.224827,-0.16819 -0.04653,-0.21412 -0.252148,-0.35842 -0.378225,-0.53763 -7.94e-4,0.13189 0.019,0.11334 -0.16292,0.22035 -0.07858,0.0462 -0.278312,0.0156 -0.253267,0.10326 0.07292,0.25523 0.329496,0.41797 0.467045,0.64499 0.03894,0.0643 -0.46836,-0.24428 -0.02564,-0.22399 0.06412,-0.0719 0.121433,-0.15057 0.19236,-0.2158 0.06298,-0.0579 0.232733,-0.07 0.207124,-0.15163 -0.07385,-0.23542 -0.294637,-0.39584 -0.441134,-0.59438 -0.02008,-0.0272 0.06749,0.047 0.06185,0.0804 -0.02747,0.1623 -0.225864,0.2377 -0.335907,0.30551 -0.495245,0.1838 -0.250452,0.0123 0.305205,0.74511 0.0127,0.0168 -0.06037,-0.0145 -0.05304,-0.0342 0.01506,-0.0405 0.06068,-0.0628 0.09749,-0.0854 0.04896,-0.0301 0.182078,-0.0193 0.15708,-0.071 -0.113541,-0.23499 -0.324951,-0.40847 -0.487426,-0.61271 0.03779,0.0439 0.102455,0.0748 0.113369,0.1317 0.03923,0.20446 -0.126773,0.36414 -0.275577,0.46146 -0.08497,0.0556 -0.307221,0.011 -0.284073,0.10988 0.06073,0.25937 0.31382,0.4307 0.462421,0.65179 0.04473,0.0666 -0.100322,-0.12513 -0.150482,-0.18769 0.0037,-0.11108 -0.0155,-0.22531 0.01095,-0.33326 0.06113,-0.24946 0.250348,-0.56219 0.438353,-0.7339 0.08759,-0.08 0.320649,-0.0631 0.306496,-0.18083 -0.02249,-0.18705 -0.631444,-0.95292 -0.310393,-0.47235 -0.02114,0.0667 -0.02593,0.14108 -0.06344,0.20016 -0.08533,0.13437 -0.258611,0.24799 -0.411742,0.28275 -0.08102,0.0184 -0.275627,-0.0764 -0.249224,0.002 0.07291,0.2175 0.287396,0.35762 0.430101,0.53722 0.05012,0.0631 -0.101555,-0.1251 -0.152333,-0.18765 -0.01336,-0.0891 -0.04475,-0.1773 -0.04008,-0.26726 0.02529,-0.48697 0.441719,-0.8468 0.789049,-1.13217 0,0 -0.482862,-0.51871 -0.482862,-0.51871 z" />
    <path
       d="m 84.019251,125.84608 c -0.08394,0.0466 -0.170082,0.0888 -0.315135,0.15683 -0.09403,0.0441 -0.234711,0.10913 -0.36376,0.17777 -0.146001,0.077 -0.325387,0.17587 -0.498128,0.29613 -0.160269,0.11157 -0.330119,0.25172 -0.479921,0.43154 -0.103345,0.12289 -0.194984,0.27414 -0.253673,0.44578 -0.0556,0.16258 -0.08311,0.34859 -0.05689,0.54421 0.0083,0.0793 0.02938,0.15429 0.06004,0.22281 0.03222,0.072 0.07475,0.13637 0.123865,0.19206 0.09715,0.11019 0.224899,0.19199 0.366715,0.23385 0.170973,0.0531 0.341853,0.0603 0.488573,0.0508 0.148249,-0.01 0.288266,-0.0378 0.396837,-0.0615 0.0038,-8.3e-4 0.0076,-0.002 0.01139,-0.003 0.584315,-0.14265 1.095793,-0.40445 1.510169,-0.67853 0.110932,-0.0762 0.212345,-0.15024 0.309927,-0.22952 0.05631,-0.0457 0.11158,-0.0935 0.165242,-0.14357 0.158089,-0.14754 0.301683,-0.31502 0.415311,-0.50976 0.07525,-0.13036 0.132766,-0.28348 0.153011,-0.4464 0.01058,-0.0851 0.01123,-0.1747 -0.0024,-0.26621 -0.01392,-0.0933 -0.04255,-0.18708 -0.08911,-0.27707 -0.0395,-0.0779 -0.08978,-0.14812 -0.142862,-0.20824 -0.05298,-0.06 -0.109207,-0.11044 -0.163284,-0.15313 -0.103711,-0.0819 -0.216138,-0.1474 -0.295631,-0.19458 -0.0034,-0.002 -0.0068,-0.004 -0.01022,-0.006 -0.129744,-0.0736 -0.289868,-0.14587 -0.467652,-0.18411 -0.08721,-0.0187 -0.182095,-0.0301 -0.281869,-0.0277 -0.09755,0.002 -0.20017,0.0177 -0.303935,0.0521 -0.09303,0.0306 -0.179258,0.0746 -0.257164,0.12843 -0.006,0.004 -0.01201,0.008 -0.01792,0.0126 -0.08054,0.0581 -0.149954,0.12524 -0.20924,0.1962 -0.116285,0.13919 -0.198552,0.29888 -0.252762,0.45293 -0.08453,0.24787 -0.120655,0.50646 -0.114217,0.7633 0.0063,0.25248 0.05386,0.50572 0.139781,0.74577 0.07509,0.21102 0.190998,0.42033 0.34948,0.60133 0.156027,0.1782 0.358595,0.33455 0.607539,0.42913 0.220017,0.0848 0.451735,0.11639 0.677124,0.10782 0.220768,-0.008 0.438405,-0.0554 0.640303,-0.13082 0.239437,-0.0913 0.460418,-0.23942 0.637125,-0.43344 0.173503,-0.19051 0.310427,-0.43251 0.367407,-0.71241 0.03794,-0.17222 0.04066,-0.36968 -0.0072,-0.56238 -0.02373,-0.0955 -0.06053,-0.19229 -0.11354,-0.28502 -0.05381,-0.0939 -0.122827,-0.18179 -0.209034,-0.25855 -0.07976,-0.0723 -0.170453,-0.12993 -0.26334,-0.17284 -0.0926,-0.0428 -0.186713,-0.0707 -0.277813,-0.0877 -0.180257,-0.0337 -0.358129,-0.0268 -0.51368,-4.7e-4 -0.351967,0.0625 -0.689401,0.20219 -0.982092,0.4108 -0.0027,0.002 -0.0055,0.004 -0.0082,0.006 -0.09961,0.075 -0.212043,0.17229 -0.309631,0.29446 -0.04881,0.0611 -0.09557,0.13048 -0.135224,0.20847 -0.03944,0.0776 -0.07186,0.16368 -0.09198,0.25798 -0.01488,0.0647 -0.02009,0.13977 -0.01459,0.21293 0.0054,0.0724 0.02162,0.14618 0.05013,0.21761 0.02822,0.0707 0.06958,0.1416 0.126892,0.2056 0.05712,0.0638 0.128974,0.11934 0.2149,0.15878 0.0833,0.0384 0.168321,0.0601 0.25025,0.0695 0.0802,0.009 0.156107,0.007 0.224837,-0.002 0.132062,-0.0166 0.250333,-0.0573 0.339594,-0.093 0.0034,-0.001 0.0069,-0.003 0.01028,-0.004 0.209836,-0.0866 0.397779,-0.20274 0.568341,-0.33132 0.165356,-0.12465 0.315923,-0.26221 0.455379,-0.39791 0.0019,-0.002 0.004,-0.004 0.006,-0.006 0.002,-0.002 0.0039,-0.004 0.0056,-0.006 0.0087,-0.0102 0.03111,-0.0352 0.05187,-0.0615 0.02062,-0.0261 0.05102,-0.0672 0.07701,-0.11931 0.01329,-0.0266 0.0272,-0.0596 0.03782,-0.098 0.01061,-0.0384 0.01851,-0.0843 0.01805,-0.13591 -4.62e-4,-0.052 -0.0094,-0.10663 -0.02971,-0.16099 -0.0201,-0.0539 -0.04892,-0.10106 -0.08276,-0.14115 -0.01769,-0.0209 -0.03696,-0.0406 -0.05861,-0.0574 -0.05669,-0.0441 -0.11587,-0.0737 -0.171992,-0.0936 -0.05435,-0.0192 -0.105317,-0.029 -0.147861,-0.0344 -0.07274,-0.009 -0.155765,-0.008 -0.175715,-0.008 -0.0081,-9e-5 -0.01627,-5.5e-4 -0.0244,-3.9e-4 -0.10969,0.002 -0.21819,0.01 -0.325525,0.0214 -0.276312,0.0297 -0.542458,0.0849 -0.815999,0.1444 -0.307621,0.0731 -0.682782,0.16255 -1.035755,0.31081 -0.0183,0.008 -0.03595,0.0169 -0.05296,0.0271 0.01203,-0.007 0.01603,-0.009 0.01537,-0.008 -6.57e-4,4.5e-4 -0.0059,0.003 -0.01448,0.007 -0.01245,0.006 -0.05052,0.0227 -0.08734,0.0446 -0.0197,0.0117 -0.04533,0.0285 -0.07209,0.0511 -0.02639,0.0223 -0.05915,0.0546 -0.08836,0.0991 -0.02992,0.0455 -0.05571,0.1032 -0.06619,0.17176 -0.01045,0.0684 -0.0035,0.13355 0.01397,0.19117 0.01458,0.0481 0.03193,0.0966 0.06362,0.13559 0.03169,0.039 0.07565,0.0658 0.119964,0.0896 0.05244,0.0281 0.103991,0.0454 0.150692,0.0562 0.04539,0.0105 0.08704,0.0151 0.120966,0.0174 0.06758,0.004 0.113462,0.002 0.131217,0.003 0.0039,1.3e-4 0.0079,3.4e-4 0.01181,4e-4 0.140039,0.002 0.304781,-0.009 0.473525,-0.0602 0.295673,-0.0824 0.634462,-0.2118 0.929903,-0.43866 0.09623,-0.0752 0.198867,-0.17352 0.279233,-0.29804 0.04034,-0.0625 0.07656,-0.13393 0.102301,-0.21391 0.02574,-0.08 0.04062,-0.16743 0.03899,-0.26052 -0.003,-0.14926 -0.04559,-0.28194 -0.102567,-0.39316 -0.05606,-0.10941 -0.128563,-0.20321 -0.201391,-0.28003 -0.02841,-0.03 -0.05856,-0.0592 -0.09509,-0.0784 -0.03653,-0.0193 -0.07765,-0.0276 -0.118436,-0.0341 -0.0984,-0.0156 -0.186924,-0.009 -0.251893,-3e-4 -0.06645,0.009 -0.116691,0.019 -0.149488,0.0237 -0.0056,8.1e-4 -0.01128,0.002 -0.01688,0.003 -0.422965,0.0809 -0.850603,0.20375 -1.258952,0.38942 -0.102195,0.0494 -0.215627,0.10581 -0.324836,0.17718 -0.111125,0.0726 -0.22607,0.16547 -0.323643,0.29146 -0.07475,0.0938 -0.126581,0.2133 -0.143133,0.3398 -0.0084,0.0639 -0.0079,0.13147 0.0041,0.19988 0.01169,0.0665 0.03426,0.13334 0.06951,0.19689 0.06635,0.12392 0.163474,0.23861 0.286163,0.32437 0.06272,0.0438 0.133663,0.0811 0.211907,0.10736 0.07863,0.0263 0.163873,0.0412 0.25335,0.0402 0.181532,-0.001 0.346173,-0.053 0.484834,-0.12286 0.138371,-0.0697 0.257805,-0.16071 0.355972,-0.25016 0.0042,-0.004 0.0082,-0.008 0.01225,-0.0117 0.01999,-0.0198 0.06358,-0.0615 0.102011,-0.10731 0.04213,-0.0502 0.091,-0.11876 0.12441,-0.21037 0.01347,-0.037 0.02557,-0.075 0.02707,-0.11428 0.0015,-0.0393 -0.0076,-0.0782 -0.01803,-0.11607 -0.008,-0.029 -0.02024,-0.0619 -0.03925,-0.0959 -0.01928,-0.0344 -0.04507,-0.069 -0.07877,-0.10034 -0.07122,-0.0662 -0.15389,-0.0964 -0.225368,-0.10581 -0.06603,-0.009 -0.121135,5e-5 -0.154619,0.008 -0.03497,0.008 -0.06394,0.0186 -0.08291,0.0263 -0.04125,0.0167 -0.06402,0.0293 -0.0729,0.0335 -0.0045,0.002 -0.005,0.002 0.0024,-9.6e-4 0.0043,-0.002 0.0259,-0.0104 0.0582,-0.0156 l -0.08773,0.0252 c -0.148108,0.0625 -0.302507,0.1341 -0.452404,0.22135 -0.151968,0.0885 -0.301615,0.1943 -0.437461,0.32547 -0.0063,0.006 -0.01237,0.0125 -0.01832,0.019 -0.0049,0.005 -0.05833,0.0602 -0.09417,0.10712 -0.02206,0.0289 -0.04743,0.0663 -0.06947,0.11198 -0.02261,0.0468 -0.04188,0.10249 -0.05066,0.16635 -0.0067,0.0487 -0.0109,0.0988 0.0012,0.14654 0.01207,0.0477 0.03945,0.0898 0.06823,0.12974 0.04836,0.0671 0.103785,0.11308 0.139949,0.14068 0.03954,0.0302 0.06815,0.0484 0.08164,0.0582 0.0494,0.0337 0.09795,0.0603 0.150008,0.0817 0.05254,0.0216 0.111791,0.0391 0.175926,0.0479 0.06507,0.009 0.138027,0.009 0.214266,-0.007 0.07838,-0.0164 0.156067,-0.0491 0.226795,-0.10116 0.06705,-0.0503 0.118172,-0.10438 0.159287,-0.15833 0.04131,-0.0542 0.07298,-0.1089 0.09779,-0.15822 0.04417,-0.0878 0.08081,-0.19053 0.100611,-0.24237 0.02595,-0.062 0.0368,-0.0995 0.042,-0.1119 0.0031,-0.007 0.0028,-0.005 -8.94e-4,0.001 -0.0042,0.007 -0.01307,0.0203 -0.02791,0.0346 -0.02172,0.0209 -0.04433,0.0413 -0.0704,0.0565 -0.02607,0.0152 -0.05489,0.0249 -0.08373,0.0338 -0.03579,0.011 -0.07964,0.0174 -0.128288,0.0125 -0.04924,-0.005 -0.09176,-0.0201 -0.125642,-0.0385 -0.03289,-0.0178 -0.05562,-0.0375 -0.06903,-0.0507 -0.01349,-0.0132 -0.02172,-0.024 -0.02458,-0.0279 -0.0023,-0.003 -0.005,-0.007 0.01163,0.0199 0.0061,0.01 0.01605,0.0258 0.02838,0.043 0.0067,0.009 0.01526,0.0208 0.02577,0.0333 0.02051,0.0297 0.05453,0.0834 0.107581,0.14651 0.03152,0.0375 0.07164,0.0793 0.122375,0.11788 0.04892,0.0372 0.105552,0.0699 0.17047,0.0934 0.07273,0.0309 0.129659,0.0543 0.173881,0.0741 a 0.39057618,0.39057618 90 0 0 0.320052,-0.71258 c -0.07009,-0.0315 -0.125718,-0.0534 -0.201516,-0.085 -0.01047,-0.004 -0.02111,-0.008 -0.0319,-0.0119 0.01832,0.006 0.03223,0.0144 0.0406,0.0209 0.007,0.005 0.0077,0.008 0.0017,5.6e-4 -0.01061,-0.0123 -0.03677,-0.0529 -0.08617,-0.11898 -0.01169,-0.0156 -0.02451,-0.0304 -0.03836,-0.0442 0.01541,0.0153 0.02446,0.0277 0.02727,0.0317 0.0027,0.004 0.0038,0.006 4.21e-4,5.5e-4 -7.3e-5,-1.1e-4 -0.02409,-0.0399 -0.04545,-0.0689 -0.01292,-0.0175 -0.03171,-0.0412 -0.05658,-0.0656 -0.02463,-0.0242 -0.05935,-0.0534 -0.105268,-0.0783 -0.04674,-0.0254 -0.103149,-0.0453 -0.167559,-0.0517 -0.06364,-0.006 -0.123742,0.001 -0.177331,0.018 -0.02883,0.009 -0.05763,0.0186 -0.08368,0.0339 -0.02605,0.0152 -0.04866,0.0356 -0.07045,0.0564 -0.04371,0.0418 -0.07639,0.0862 -0.101144,0.12768 -0.02383,0.0399 -0.04071,0.0778 -0.05284,0.10815 -0.02402,0.0601 -0.03562,0.0992 -0.03889,0.10755 -0.0015,0.004 -0.0031,0.007 -0.0045,0.0113 -0.03302,0.0868 -0.04791,0.13248 -0.07109,0.17937 -0.0094,0.019 -0.01671,0.0305 -0.02172,0.0373 -0.0047,0.006 -0.006,0.007 -0.0056,0.007 0.02612,-0.0191 0.05163,-0.0296 0.07537,-0.0345 0.02226,-0.005 0.03867,-0.004 0.04781,-0.002 0.009,0.001 0.01156,0.003 0.01137,0.003 -1.93e-4,4e-5 -0.0029,-0.001 -0.0044,-0.002 -0.02677,-0.0186 -0.04799,-0.0323 -0.05539,-0.0376 -0.0073,-0.005 7.87e-4,-0.002 0.01734,0.0216 0.02857,0.04 0.05591,0.0822 0.06812,0.12981 0.01221,0.0476 0.0081,0.0978 0.0013,0.14647 -0.0038,0.027 -0.01171,0.0481 -0.01852,0.062 -0.0066,0.0135 -0.01128,0.0191 -0.01122,0.0188 1.06e-4,-4.5e-4 0.01527,-0.017 0.04382,-0.049 0.07982,-0.0758 0.173679,-0.14364 0.281344,-0.20669 0.104855,-0.0614 0.219271,-0.11625 0.34264,-0.1693 0.01399,-0.004 0.02548,-0.009 0.03384,-0.0121 0.02088,-0.008 0.03894,-0.0169 0.04977,-0.0222 0.03029,-0.0148 0.02841,-0.0143 0.02831,-0.0143 -0.0023,9.1e-4 -0.01535,0.006 -0.03509,0.0106 -0.01836,0.004 -0.05931,0.0116 -0.112646,0.005 -0.05881,-0.008 -0.130271,-0.0333 -0.192259,-0.0909 -0.02909,-0.0271 -0.05076,-0.0564 -0.06648,-0.0844 -0.01545,-0.0276 -0.02469,-0.0531 -0.03029,-0.0734 -0.01044,-0.0379 -0.01965,-0.0768 -0.01826,-0.1161 0.0014,-0.0393 0.01358,-0.0774 0.02729,-0.11425 0.0074,-0.0199 0.01425,-0.0253 0.0074,-0.0168 -0.0064,0.008 -0.02339,0.0255 -0.04969,0.052 -0.0607,0.0548 -0.121547,0.0987 -0.179869,0.1283 -0.05941,0.0302 -0.109169,0.0421 -0.1509,0.0425 -0.0027,10e-5 -0.0035,3.2e-4 -0.0073,-9.1e-4 -0.0039,-0.001 -0.01059,-0.004 -0.01941,-0.0102 -0.0189,-0.013 -0.03942,-0.0353 -0.05415,-0.0628 -0.0018,-0.003 -0.0037,-0.007 -0.0056,-0.0102 0.0077,0.0137 0.01217,0.0274 0.01425,0.0395 0.002,0.0118 0.0017,0.0213 7.76e-4,0.0281 -0.0017,0.012 -0.0058,0.0203 -0.01157,0.0275 0.03444,-0.0446 0.08004,-0.0851 0.143395,-0.12667 0.06567,-0.043 0.141443,-0.0819 0.232706,-0.12623 0.331989,-0.15105 0.697535,-0.25803 1.072764,-0.33039 0.05809,-0.009 0.101188,-0.0173 0.129474,-0.0209 0.02997,-0.004 0.04123,-0.002 0.03738,-0.003 -0.04083,-0.006 -0.08201,-0.0146 -0.118522,-0.0339 -0.03651,-0.0193 -0.0666,-0.0486 -0.095,-0.0786 0.03547,0.0375 0.06151,0.0738 0.07782,0.10573 0.01616,0.0317 0.01967,0.0527 0.01985,0.0647 2.1e-5,0.003 -5.08e-4,0.008 -0.0031,0.016 -0.0028,0.008 -0.0082,0.0206 -0.0184,0.0364 -0.02182,0.0336 -0.05836,0.0722 -0.108044,0.1108 -0.18549,0.1419 -0.42108,0.23802 -0.679751,0.30947 -0.0737,0.0218 -0.150686,0.0295 -0.242251,0.0277 -0.06054,-0.003 -0.09718,-0.002 -0.110352,-0.004 -0.0078,-7.3e-4 -0.0061,-0.001 -2.07e-4,2e-5 0.0069,0.001 0.02028,0.005 0.03661,0.0138 0.04452,0.0234 0.0886,0.0502 0.120181,0.0893 0.03158,0.0392 0.04879,0.0877 0.06341,0.13583 0.01236,0.0407 0.01828,0.0904 0.01003,0.14449 -0.0083,0.0542 -0.02854,0.0988 -0.05048,0.13217 -0.02116,0.0322 -0.04334,0.0534 -0.05744,0.0654 -0.01431,0.0122 -0.02587,0.0194 -0.0304,0.0222 -0.0075,0.005 -0.0082,0.005 0.01063,-0.004 0.0071,-0.003 0.01978,-0.008 0.03291,-0.0146 0.005,-0.002 0.01121,-0.005 0.01817,-0.009 0.282161,-0.11451 0.591256,-0.1875 0.89418,-0.2568 0.265977,-0.0555 0.496504,-0.10036 0.72709,-0.1227 0.08256,-0.008 0.162991,-0.0128 0.241849,-0.0139 0.05482,0.004 0.08634,0.006 0.09193,0.008 0.0011,4.2e-4 -9.8e-5,0.002 -0.01468,-0.002 -0.01319,-0.004 -0.03212,-0.0123 -0.05224,-0.0272 -0.01102,-0.008 -0.02172,-0.0168 -0.03132,-0.0266 -0.0096,-0.01 -0.01839,-0.0204 -0.02729,-0.0308 -0.02135,-0.025 -0.04142,-0.0569 -0.05588,-0.0953 -0.0146,-0.0388 -0.02103,-0.0777 -0.02149,-0.11394 -4.55e-4,-0.0357 0.0049,-0.0659 0.01097,-0.0886 0.0061,-0.0226 0.01344,-0.04 0.0188,-0.0513 0.01134,-0.0239 0.01689,-0.0305 0.01657,-0.0316 -2.77e-4,-0.001 -0.0061,0.004 -0.01605,0.0125 l 0.01158,-0.0115 c -0.130797,0.12148 -0.255915,0.22916 -0.38399,0.32062 -0.131133,0.0936 -0.259002,0.16559 -0.388394,0.21473 l 0.01028,-0.004 c -0.0626,0.0204 -0.10719,0.0293 -0.135902,0.0295 -0.01323,8e-5 -0.01925,-0.002 -0.01864,-0.003 6.86e-4,-0.001 0.0079,-0.001 0.01613,0.001 0.0308,0.0131 0.05712,0.0327 0.07729,0.0539 0.01987,0.0209 0.03263,0.0419 0.04064,0.0594 0.0081,0.0176 0.01259,0.0342 0.01471,0.0492 0.0022,0.0152 0.0023,0.032 -0.001,0.0507 0.0052,-0.0172 0.01034,-0.0277 0.0183,-0.0402 0.0083,-0.0131 0.02005,-0.0289 0.03667,-0.0471 0.03492,-0.0384 0.08364,-0.0795 0.146888,-0.1228 l -0.0082,0.006 c 0.181798,-0.12113 0.390291,-0.20105 0.601658,-0.23453 0.06531,-0.009 0.127151,-0.008 0.17429,0.002 0.02267,0.005 0.03922,0.0107 0.05081,0.0163 0.01116,0.005 0.01812,0.0106 0.02282,0.0148 0.0065,0.006 0.01104,0.0107 0.01605,0.0191 0.0053,0.009 0.01118,0.0217 0.01606,0.0393 0.01046,0.0378 0.01277,0.0854 0.0046,0.13284 -0.01744,0.0969 -0.06176,0.18864 -0.132826,0.27179 -0.07277,0.0851 -0.167612,0.15397 -0.269966,0.19761 -0.113325,0.0475 -0.23315,0.0776 -0.348411,0.0871 -0.116946,0.01 -0.225552,-0.002 -0.321713,-0.0334 -0.09615,-0.0311 -0.186758,-0.0895 -0.268302,-0.17445 -0.08336,-0.0868 -0.152086,-0.19618 -0.199945,-0.31484 -0.06104,-0.15377 -0.097,-0.31709 -0.105753,-0.47927 -0.0089,-0.16473 0.01039,-0.32569 0.05758,-0.47418 0.02394,-0.0775 0.06,-0.14717 0.101013,-0.19824 0.02026,-0.0252 0.04038,-0.0443 0.05938,-0.0582 0.0014,-0.001 0.0028,-0.002 0.0042,-0.003 0.01751,-0.0122 0.03431,-0.0203 0.05076,-0.0255 0.02084,-0.007 0.04274,-0.01 0.06778,-0.01 0.02611,2e-5 0.0561,0.004 0.0899,0.0121 0.07138,0.0176 0.149751,0.0535 0.227451,0.10212 l -0.01022,-0.006 c 0.08796,0.0584 0.149811,0.10051 0.199001,0.14539 0.02312,0.0211 0.03935,0.0393 0.05053,0.055 0.01099,0.0154 0.01647,0.0273 0.01964,0.0375 7.22e-4,0.007 2.5e-4,0.006 -7.41e-4,0.0125 -7.92e-4,0.005 -0.0019,0.0153 -0.0054,0.0296 -0.0073,0.0298 -0.02308,0.0698 -0.0511,0.11182 -0.06406,0.10306 -0.150063,0.20236 -0.26116,0.30265 -0.03768,0.034 -0.07794,0.0679 -0.12089,0.10189 -0.07473,0.0592 -0.156471,0.11787 -0.248464,0.17997 -0.346696,0.22607 -0.76042,0.4325 -1.214067,0.54323 -0.09853,0.0209 -0.181674,0.0358 -0.257017,0.0406 -0.07307,0.005 -0.125098,-0.001 -0.164207,-0.0136 0.01811,0.005 0.03833,0.0184 0.05465,0.0371 0.0087,0.01 0.01762,0.023 0.02498,0.0396 0.0075,0.0169 0.01316,0.0371 0.01499,0.0596 l -0.0032,-0.0274 c -0.0054,-0.0356 -0.0022,-0.079 0.0147,-0.12957 0.01779,-0.053 0.04865,-0.10718 0.08893,-0.1557 0.08346,-0.10091 0.185212,-0.18848 0.300748,-0.26955 0.125716,-0.0882 0.265326,-0.16693 0.403533,-0.24043 0.105498,-0.0568 0.221181,-0.11104 0.323809,-0.1597 0.149228,-0.0708 0.256184,-0.12299 0.367906,-0.185 a 0.45305503,0.45305503 90 0 0 -0.439734,-0.79226 z"
       id="path-1"
       style="fill:#000000;fill-rule:nonzero;stroke:none;stroke-width:1px;stroke-linecap:butt;stroke-linejoin:miter;stroke-opacity:1" />
    <path
       d="m 109.88879,124.76782 c 1.4e-4,-0.004 0.004,-0.0296 0.0252,-0.11189 0.012,-0.0455 0.0442,-0.15898 0.0466,-0.28651 0.003,-0.052 -0.002,-0.10421 -0.0165,-0.1547 -0.0172,-0.0613 -0.0456,-0.11463 -0.0794,-0.15886 -0.0326,-0.0427 -0.0704,-0.0773 -0.10964,-0.1045 -0.0383,-0.0265 -0.0801,-0.0474 -0.12421,-0.0622 -0.0429,-0.0144 -0.0913,-0.024 -0.14336,-0.0252 -0.051,-0.001 -0.10934,0.006 -0.16973,0.0272 -0.0602,0.0215 -0.12063,0.0572 -0.17282,0.10998 -0.0515,0.0521 -0.0876,0.1133 -0.1094,0.17669 -0.0104,0.0301 -0.017,0.0614 -0.0203,0.093 -0.006,0.0613 -0.003,0.11696 0.004,0.16473 0.007,0.0456 0.0175,0.0852 0.0264,0.11495 0.0177,0.0591 0.0289,0.0915 0.0283,0.0903 0.0161,0.0651 0.0127,0.0512 0.0125,0.0494 -0.001,-0.008 -0.003,-0.0306 0.002,-0.0611 0.005,-0.0324 0.0181,-0.0708 0.0425,-0.10851 0.0105,-0.0162 0.0223,-0.0314 0.0348,-0.0461 0.005,-0.006 0.0104,-0.01 0.01,-0.009 -7.1e-4,3.5e-4 -0.008,0.004 -0.0222,0.01 -0.0398,0.0148 -0.0772,0.0225 -0.16599,0.045 -0.0631,0.0154 -0.16949,0.0415 -0.27405,0.0896 -0.0556,0.0256 -0.11553,0.0594 -0.17373,0.10513 -0.0577,0.0454 -0.11195,0.10115 -0.15783,0.16917 -0.0932,0.13058 -0.14589,0.27491 -0.16817,0.41363 -0.0245,0.15235 -0.0133,0.30298 0.0243,0.43923 0.0515,0.192 0.14308,0.35436 0.23927,0.48301 0.009,0.0123 0.0184,0.0243 0.0277,0.036 0.0998,0.12607 0.21285,0.23093 0.32347,0.31582 0.11239,0.0832 0.23193,0.15579 0.36206,0.21077 0.13815,0.0584 0.29023,0.0973 0.45025,0.10206 0.0774,0.002 0.14686,-0.008 0.20981,-0.0237 0.0636,-0.0159 0.12097,-0.0382 0.17158,-0.0624 0.10001,-0.0477 0.18494,-0.10844 0.24882,-0.15762 0.10611,-0.0828 0.20528,-0.17471 0.29299,-0.28217 0.0848,-0.10385 0.16304,-0.22735 0.21708,-0.37112 0.0329,-0.0872 0.054,-0.18894 0.053,-0.29558 -1.3e-4,-0.0136 -6.1e-4,-0.0274 -0.001,-0.0412 -0.004,-0.0602 -0.0149,-0.12248 -0.0357,-0.18427 -0.0209,-0.0623 -0.0516,-0.12374 -0.0937,-0.18114 -0.0437,-0.0603 -0.0949,-0.11224 -0.14845,-0.15597 -0.0533,-0.0435 -0.10901,-0.0788 -0.1634,-0.10793 -0.10661,-0.057 -0.21643,-0.0943 -0.30736,-0.12172 -0.15489,-0.0457 -0.32057,-0.0541 -0.48086,-0.0295 -0.15598,0.0239 -0.30983,0.0797 -0.44871,0.16569 -0.17628,0.10975 -0.32649,0.25535 -0.44726,0.42144 -0.11641,0.16009 -0.20664,0.34085 -0.26787,0.53063 -0.0436,0.13695 -0.0765,0.29158 -0.0803,0.45652 -0.004,0.15997 0.0195,0.33672 0.0959,0.51294 0.0318,0.0739 0.0748,0.14007 0.12539,0.19743 0.0373,0.0423 0.0783,0.0794 0.12155,0.11143 0.0139,0.0103 0.0281,0.0201 0.0425,0.0294 0.11111,0.0718 0.23985,0.11684 0.37248,0.1315 0.15964,0.0188 0.31585,0.004 0.4608,-0.0277 0.13678,-0.0301 0.26432,-0.0759 0.37887,-0.1239 0.28881,-0.1261 0.58923,-0.3072 0.83488,-0.57397 0.0164,-0.0178 0.0312,-0.0371 0.0451,-0.057 -0.02,0.0286 -0.0291,0.0341 -0.0263,0.0298 0.003,-0.004 0.0163,-0.0185 0.0387,-0.046 0.0193,-0.0238 0.0566,-0.0717 0.0843,-0.13814 0.0145,-0.0348 0.0272,-0.0764 0.0334,-0.12383 0.006,-0.0478 0.005,-0.0973 -0.004,-0.1468 -0.002,-0.0121 -0.005,-0.0242 -0.008,-0.036 -0.0537,-0.19097 -0.15876,-0.35975 -0.29457,-0.49204 -0.13457,-0.13107 -0.30442,-0.23129 -0.4948,-0.28033 -0.18994,-0.0507 -0.37957,-0.0529 -0.55255,-0.0312 -0.17219,0.0216 -0.33438,0.0676 -0.47695,0.11792 -0.005,0.002 -0.01,0.004 -0.0148,0.006 -0.005,0.002 -0.01,0.004 -0.0149,0.006 0.0211,-0.007 -0.004,0.004 -0.0135,0.008 -0.0145,0.006 -0.0544,0.0201 -0.0922,0.0386 -0.04,0.0196 -0.0997,0.0538 -0.15432,0.11241 -0.0282,0.0302 -0.0541,0.066 -0.0751,0.10774 -0.0211,0.0419 -0.0351,0.0859 -0.0426,0.13031 -0.002,0.0119 -0.004,0.0238 -0.005,0.0359 -0.005,0.0692 0.005,0.13248 0.0208,0.18763 0.0159,0.0547 0.0384,0.10081 0.0599,0.13754 0.0411,0.07 0.092,0.12651 0.11512,0.15208 0.002,0.002 0.004,0.004 0.006,0.007 0.002,0.002 0.004,0.005 0.006,0.007 0.1726,0.18546 0.3878,0.33343 0.62911,0.41361 0.0719,0.0224 0.15343,0.0389 0.24115,0.0383 0.0461,-3.2e-4 0.0948,-0.005 0.14446,-0.0174 0.047,-0.0114 0.0939,-0.0288 0.13912,-0.0534 0.22537,-0.10575 0.41635,-0.2486 0.57423,-0.40213 0.17668,-0.17182 0.31735,-0.36213 0.42645,-0.54618 l -0.0146,0.0227 c 0.002,-0.003 0.004,-0.006 0.006,-0.009 0.0249,-0.0362 0.0456,-0.0751 0.0615,-0.11561 0.0177,-0.0451 0.0305,-0.0946 0.0355,-0.14691 0.005,-0.0543 0.002,-0.11326 -0.0132,-0.17343 -0.0162,-0.063 -0.0454,-0.12395 -0.0881,-0.17859 -0.0386,-0.0507 -0.0838,-0.0935 -0.12865,-0.12823 -0.046,-0.0356 -0.0925,-0.0633 -0.13438,-0.0851 -0.0826,-0.043 -0.17167,-0.0745 -0.22085,-0.0929 -0.002,-8.2e-4 -0.004,-0.001 -0.007,-0.002 -0.002,-4.4e-4 -0.005,-8.8e-4 -0.007,-0.001 -0.37409,-0.0982 -0.74544,-0.0982 -1.06089,-0.0611 -0.12884,0.0172 -0.26031,0.041 -0.39228,0.0836 -0.15725,0.0509 -0.29112,0.1211 -0.40569,0.2106 -0.0832,0.0684 -0.15798,0.16186 -0.20902,0.27166 -0.0241,0.0517 -0.0458,0.11371 -0.0576,0.18356 -0.0104,0.0619 -0.0136,0.13262 -9.5e-4,0.20946 0.009,0.0562 0.0257,0.11202 0.0481,0.16661 9e-4,0.002 0.002,0.004 0.003,0.007 0.0195,0.0465 0.0426,0.0894 0.0672,0.12889 0.0473,0.0758 0.10165,0.14102 0.14839,0.19504 0.10568,0.11998 0.23376,0.21497 0.37967,0.28188 0.13511,0.0619 0.28749,0.1006 0.44735,0.10649 0.19231,0.008 0.38501,-0.0233 0.56951,-0.0854 0.1743,-0.0586 0.34118,-0.14489 0.49394,-0.25139 0.12996,-0.0909 0.27667,-0.21215 0.39322,-0.37671 l -0.009,0.0125 c 0.024,-0.0313 0.0441,-0.0667 0.0589,-0.10571 0.0146,-0.0387 0.023,-0.0788 0.0255,-0.11894 0.005,-0.0794 -0.0135,-0.15154 -0.0422,-0.21057 -0.028,-0.0575 -0.0673,-0.10615 -0.11223,-0.14436 -0.0442,-0.0376 -0.0986,-0.0691 -0.16142,-0.0879 l 0.0291,0.01 c -0.10365,-0.0415 -0.20491,-0.0599 -0.29495,-0.0694 -0.0836,-0.009 -0.16897,-0.0108 -0.23019,-0.0134 -0.004,-1.5e-4 -0.007,-4e-5 -0.0111,-2e-5 -0.38469,0.002 -0.77229,0.0455 -1.16142,0.11947 -0.004,6.7e-4 -0.007,0.002 -0.0105,0.002 -0.0475,0.01 -0.12399,0.0241 -0.19353,0.0416 -0.0722,0.0182 -0.15864,0.0447 -0.24685,0.0887 -0.004,0.002 -0.007,0.004 -0.0106,0.006 -0.0395,0.0214 -0.0925,0.0576 -0.13769,0.11723 -0.023,0.0304 -0.0433,0.0658 -0.0579,0.10617 -0.008,0.0228 -0.0145,0.0461 -0.0185,0.0697 -0.003,0.0176 -0.005,0.0349 -0.005,0.0519 -0.002,0.0395 0.003,0.0754 0.01,0.10656 0.007,0.0306 0.0165,0.0569 0.026,0.0785 0.0183,0.0412 0.04,0.0727 0.0552,0.0927 0.027,0.0356 0.0587,0.0665 0.0645,0.0724 0.004,0.004 0.008,0.009 0.004,0.005 -8.2e-4,-8.4e-4 -0.0121,-0.0122 -0.0257,-0.0324 l 0.0405,0.0502 c 0.10156,0.10647 0.22717,0.18593 0.36359,0.23533 0.12882,0.0466 0.26988,0.0675 0.41227,0.0581 0.17221,-0.0105 0.33655,-0.055 0.48789,-0.11889 0.14506,-0.0613 0.27877,-0.14058 0.39976,-0.22588 0.0847,-0.062 0.17195,-0.13097 0.25499,-0.21223 0.0809,-0.0792 0.16221,-0.17419 0.22999,-0.28827 0.0167,-0.0286 0.033,-0.0603 0.0473,-0.0968 0.0138,-0.0352 0.0286,-0.0824 0.0354,-0.13777 0.007,-0.0545 0.007,-0.129 -0.0196,-0.21037 -0.0134,-0.0409 -0.0333,-0.0821 -0.0608,-0.12111 -0.0274,-0.0389 -0.0602,-0.0725 -0.0967,-0.10051 -0.009,-0.007 -0.0185,-0.0135 -0.0282,-0.0197 -0.0562,-0.0357 -0.11362,-0.0583 -0.1676,-0.0721 -0.0526,-0.0135 -0.10143,-0.0187 -0.14242,-0.0203 -0.0728,-0.003 -0.14884,0.006 -0.17395,0.008 -0.006,5.3e-4 -0.0125,0.001 -0.0187,0.002 -0.30279,0.0412 -0.58477,0.1374 -0.83914,0.22944 -0.15584,0.0598 -0.34992,0.13195 -0.53061,0.23566 l 0.57233,0.40176 c -0.007,0.041 -0.0202,0.0717 -0.0287,0.0893 -0.009,0.0179 -0.0168,0.0301 -0.0201,0.035 -0.004,0.006 -0.009,0.0115 0.006,-0.006 0.008,-0.0107 0.0297,-0.0373 0.0499,-0.0703 0.02,-0.0327 0.05,-0.0892 0.064,-0.16401 0.005,-0.0243 0.007,-0.0491 0.007,-0.0738 -7.4e-4,-0.0932 -0.0177,-0.17527 -0.0335,-0.2376 -0.0161,-0.0633 -0.0321,-0.11267 -0.0416,-0.14784 -0.0252,-0.089 -0.0455,-0.14519 -0.0521,-0.17462 l -0.67064,0.33462 c -0.003,-0.004 -0.005,-0.006 0.005,0.007 0.007,0.009 0.0196,0.026 0.0346,0.0439 0.015,0.018 0.0363,0.0421 0.0632,0.0666 0.0227,0.0208 0.0538,0.0459 0.0932,0.0687 0.10781,0.0679 0.22083,0.11509 0.33196,0.14791 0.11416,0.0337 0.22819,0.0528 0.3356,0.063 0.005,4.7e-4 0.01,8.6e-4 0.0149,0.001 0.0595,0.003 0.15074,0.007 0.24733,-0.006 0.0499,-0.007 0.10559,-0.0184 0.16326,-0.039 0.0581,-0.0208 0.11815,-0.0507 0.17574,-0.0931 0.0541,-0.0396 0.0977,-0.0884 0.13044,-0.14054 0.0322,-0.0513 0.0523,-0.10317 0.0647,-0.15022 0.0123,-0.0468 0.0176,-0.0912 0.0192,-0.13028 0.001,-0.0333 2e-5,-0.0649 -0.003,-0.0938 -0.005,-0.086 -0.0177,-0.19388 -0.055,-0.30327 -0.02,-0.0586 -0.048,-0.12087 -0.0877,-0.18164 -0.0401,-0.0613 -0.0916,-0.12026 -0.15679,-0.17113 -0.0696,-0.053 -0.13995,-0.0876 -0.20997,-0.11031 -0.0695,-0.0225 -0.13739,-0.0329 -0.1998,-0.0361 -0.12268,-0.006 -0.23632,0.0143 -0.3249,0.0381 -0.31609,0.0892 -0.57986,0.25958 -0.7944,0.43341 -0.003,0.003 -0.006,0.005 -0.01,0.008 -0.0408,0.0353 -0.0998,0.0857 -0.15492,0.14271 -0.0571,0.0591 -0.12002,0.13497 -0.16985,0.23101 -0.002,0.004 -0.004,0.008 -0.006,0.012 -0.0216,0.0454 -0.0365,0.0954 -0.0422,0.14867 -0.006,0.0533 -0.002,0.10366 0.009,0.14925 0.0201,0.0885 0.0622,0.15324 0.092,0.19185 0.0303,0.0394 0.0619,0.0694 0.0801,0.0861 0.0203,0.0186 0.0338,0.0303 0.0337,0.0302 l 0.0335,0.0282 c 0.069,0.0515 0.14205,0.0883 0.21496,0.11374 0.0728,0.0254 0.14469,0.0393 0.21214,0.0459 0.13374,0.0131 0.26051,-0.001 0.36302,-0.021 0.28518,-0.0587 0.54915,-0.17731 0.77446,-0.34326 0.0478,-0.036 0.0998,-0.0798 0.14847,-0.13526 0.0477,-0.0543 0.0945,-0.12281 0.12755,-0.20526 0.0218,-0.0487 0.0546,-0.12363 0.0762,-0.20677 0.0122,-0.0467 0.0222,-0.10047 0.0251,-0.15944 0.003,-0.0601 -0.002,-0.12511 -0.0183,-0.19267 -0.0226,-0.0874 -0.0631,-0.15957 -0.11483,-0.21802 -0.051,-0.0577 -0.10856,-0.0975 -0.16314,-0.12529 -0.0545,-0.0277 -0.10883,-0.0446 -0.15804,-0.0546 -0.05,-0.0102 -0.0993,-0.0143 -0.14581,-0.0137 -0.14167,0.001 -0.27202,0.0302 -0.38425,0.0663 -0.11406,0.0367 -0.21884,0.0842 -0.30554,0.1259 -0.32084,0.1634 -0.61911,0.37837 -0.84346,0.66913 -0.0675,0.0905 -0.13308,0.19557 -0.17857,0.31618 -0.0237,0.0627 -0.0425,0.13116 -0.0523,0.20434 -0.0101,0.0751 -0.0105,0.15417 0.002,0.23528 0.012,0.075 0.0381,0.14211 0.0724,0.20001 0.0349,0.0588 0.0775,0.10698 0.12152,0.14545 0.09,0.0786 0.19487,0.12519 0.29258,0.14701 0.13502,0.0316 0.26584,0.034 0.37485,0.0278 0.11461,-0.007 0.22694,-0.0243 0.30859,-0.0372 0.21625,-0.0367 0.50955,-0.1094 0.63687,-0.13765 a 0.3769706,0.3769706 90 0 0 -0.16328,-0.73604 c -0.16708,0.0371 -0.40678,0.0974 -0.59527,0.12927 -0.0815,0.0127 -0.15789,0.0242 -0.22922,0.0281 -0.0655,0.004 -0.11884,3.3e-4 -0.16386,-0.0103 0.006,0.001 0.0195,0.006 0.0364,0.0204 0.009,0.008 0.0206,0.02 0.0313,0.0381 0.0108,0.0181 0.0198,0.0406 0.0239,0.0662 -3.5e-4,-0.002 -7.2e-4,-0.007 4.4e-4,-0.0156 0.001,-0.008 0.004,-0.0209 0.0104,-0.0377 0.013,-0.0342 0.0369,-0.0765 0.0738,-0.1257 0.13339,-0.17228 0.3315,-0.32278 0.57655,-0.44724 0.0685,-0.0327 0.13669,-0.0623 0.2013,-0.083 0.0624,-0.0199 0.11473,-0.0291 0.16045,-0.0294 -0.003,9e-5 -0.009,-2.1e-4 -0.0152,-0.002 -0.006,-0.001 -0.0183,-0.004 -0.0341,-0.0123 -0.0163,-0.008 -0.039,-0.0228 -0.0619,-0.0487 -0.0238,-0.0269 -0.043,-0.061 -0.0529,-0.0992 -0.004,-0.0166 -0.004,-0.0265 -0.004,-0.0314 1.6e-4,-0.004 5.6e-4,-0.003 -0.001,0.004 -0.005,0.0191 -0.0151,0.044 -0.0386,0.0959 -0.003,0.007 -0.006,0.014 -0.009,0.0212 0.005,-0.013 0.0103,-0.019 0.008,-0.016 -0.003,0.004 -0.0121,0.0122 -0.031,0.0263 -0.1342,0.0984 -0.29641,0.17107 -0.46761,0.20601 -0.0549,0.0103 -0.1034,0.0132 -0.13924,0.01 -0.0168,-0.002 -0.0279,-0.005 -0.0345,-0.007 -9.8e-4,-3.5e-4 -0.002,-6.9e-4 -0.003,-0.001 -0.006,-0.005 -0.0102,-0.009 -0.0129,-0.0115 -0.005,-0.005 -0.003,-0.005 0.008,0.01 0.009,0.0115 0.0348,0.0475 0.048,0.10542 0.007,0.0304 0.01,0.0651 0.006,0.10231 -0.004,0.0372 -0.0143,0.0708 -0.0278,0.0993 -0.002,0.004 -0.004,0.008 -0.006,0.012 0.005,-0.009 0.0153,-0.0248 0.0405,-0.0506 0.0259,-0.0266 0.0557,-0.0525 0.10077,-0.0913 0.16943,-0.1363 0.33883,-0.23717 0.51059,-0.28544 0.0364,-0.01 0.0654,-0.0121 0.0811,-0.0112 0.007,3.9e-4 0.007,0.001 0.002,-2.1e-4 -0.005,-0.002 -0.0136,-0.005 -0.0227,-0.0122 -0.0114,-0.009 -0.016,-0.0147 -0.0177,-0.0173 -0.001,-0.002 3.9e-4,2.4e-4 0.003,0.009 0.007,0.0197 0.0128,0.053 0.015,0.10311 4.1e-4,0.009 0.001,0.0185 0.002,0.0277 -2.4e-4,-0.002 -6.9e-4,-0.006 -4.4e-4,-0.013 2.5e-4,-0.007 0.001,-0.0189 0.005,-0.035 0.004,-0.0165 0.0124,-0.0387 0.0278,-0.0634 0.016,-0.0255 0.038,-0.0504 0.0663,-0.0711 0.008,-0.006 0.0168,-0.01 0.0207,-0.0113 0.003,-0.001 0.002,-4.2e-4 -0.006,6.1e-4 -0.0183,0.002 -0.0453,0.003 -0.094,1.6e-4 -0.0667,-0.007 -0.12815,-0.0181 -0.18315,-0.0344 -0.0566,-0.0168 -0.10431,-0.0383 -0.14308,-0.0634 -0.0103,-0.007 -0.0209,-0.0128 -0.0318,-0.0185 0.0274,0.0142 0.0446,0.0289 0.0518,0.0355 0.008,0.008 0.0102,0.0103 0.009,0.009 -0.002,-0.002 -0.004,-0.006 -0.012,-0.0156 -0.004,-0.006 -0.0187,-0.0251 -0.0337,-0.0426 -0.0658,-0.077 -0.13556,-0.15461 -0.22678,-0.19862 -0.0456,-0.022 -0.0957,-0.0353 -0.14627,-0.0365 -0.0506,-0.001 -0.10159,0.01 -0.1469,0.0323 -0.0453,0.0226 -0.0847,0.0567 -0.11415,0.0979 -0.0294,0.0412 -0.0489,0.0892 -0.0588,0.13884 -0.0197,0.0994 2.6e-4,0.20178 0.0222,0.30064 0.0225,0.10125 0.0494,0.17021 0.0615,0.21286 0.0148,0.0549 0.0293,0.10026 0.0375,0.1322 0.009,0.0339 0.01,0.0484 0.01,0.0535 l 0.007,-0.0738 c 0.01,-0.0517 0.0293,-0.0858 0.0361,-0.0969 0.007,-0.0112 0.012,-0.0169 0.005,-0.007 -0.002,0.002 -0.0223,0.0274 -0.0387,0.0514 -0.01,0.0141 -0.0232,0.0353 -0.0361,0.0619 -0.0128,0.0264 -0.0288,0.0655 -0.0375,0.1147 -0.0142,0.0806 -0.027,0.16334 -0.0124,0.24389 0.0146,0.0806 0.0583,0.15685 0.1253,0.2039 0.067,0.047 0.1536,0.0623 0.23432,0.0486 0.0807,-0.0136 0.15415,-0.0538 0.22511,-0.0947 0.11867,-0.0683 0.25211,-0.11927 0.41604,-0.18251 0.24085,-0.0873 0.45325,-0.15724 0.66498,-0.18745 0.0425,-0.004 0.0661,-0.005 0.0674,-0.005 7.2e-4,-2e-5 -0.006,-1e-4 -0.019,-0.004 -0.0138,-0.004 -0.0326,-0.0105 -0.0529,-0.0234 -0.01,-0.006 -0.0191,-0.0127 -0.0282,-0.0197 -0.0231,-0.0177 -0.045,-0.0399 -0.0638,-0.0666 -0.0189,-0.0268 -0.0323,-0.0548 -0.0412,-0.082 -0.0177,-0.0541 -0.0161,-0.0965 -0.0129,-0.12277 0.003,-0.025 0.009,-0.0413 0.0116,-0.0476 0.003,-0.007 0.005,-0.0111 0.006,-0.0129 -0.0238,0.0406 -0.0591,0.0843 -0.10483,0.12949 -0.0474,0.0468 -0.10302,0.0922 -0.16568,0.13856 -0.0816,0.0579 -0.16719,0.10773 -0.25041,0.1433 -0.0861,0.0368 -0.16556,0.0566 -0.23941,0.0615 -0.0383,0.003 -0.0742,-0.002 -0.10543,-0.0131 -0.0285,-0.01 -0.0507,-0.0237 -0.0669,-0.0383 -0.006,-0.007 -0.0112,-0.0126 -0.015,-0.0165 -0.0109,-0.0115 -0.0213,-0.0216 -0.0259,-0.026 -0.0154,-0.0148 -0.008,-0.008 0.003,0.006 0.006,0.009 0.021,0.0289 0.0344,0.0591 0.007,0.016 0.0148,0.0368 0.0204,0.062 0.006,0.0256 0.01,0.0562 0.008,0.0904 -6e-4,0.0147 -0.002,0.0298 -0.005,0.0451 -0.004,0.0206 -0.009,0.0409 -0.0162,0.0607 -0.0128,0.0351 -0.0302,0.0655 -0.0495,0.0909 -0.0377,0.0496 -0.0791,0.0763 -0.10232,0.0888 -0.004,0.002 -0.007,0.004 -0.0106,0.006 0.0227,-0.0122 0.0534,-0.0242 0.0985,-0.0371 0.0496,-0.0142 0.0951,-0.024 0.16358,-0.0407 0.34973,-0.0706 0.68942,-0.11298 1.02024,-0.12059 l -0.0111,-2e-5 c 0.0793,-4e-4 0.12728,-0.002 0.18104,8.2e-4 0.0498,0.002 0.0823,0.008 0.10572,0.015 0.01,0.003 0.0194,0.007 0.0291,0.01 -0.0365,-0.0113 -0.0664,-0.0295 -0.0899,-0.0501 -0.0238,-0.0208 -0.0459,-0.0483 -0.0622,-0.0826 -0.0168,-0.0355 -0.0292,-0.0822 -0.0255,-0.13604 0.002,-0.0272 0.008,-0.0544 0.0177,-0.0803 0.005,-0.0135 0.0113,-0.0262 0.018,-0.0379 -0.0491,0.0734 -0.1193,0.142 -0.20347,0.20727 -0.1004,0.0735 -0.21049,0.13265 -0.32057,0.17207 -0.11608,0.0416 -0.22943,0.0604 -0.33665,0.0575 -0.073,-0.001 -0.14239,-0.0178 -0.20355,-0.0455 -0.0654,-0.0296 -0.11947,-0.0712 -0.15922,-0.11801 -0.035,-0.0431 -0.0595,-0.0779 -0.0739,-0.10754 -0.007,-0.0145 -0.0107,-0.0258 -0.0121,-0.0341 -0.001,-0.0104 4.3e-4,-0.0151 0.003,-0.0176 0.005,0.0107 0.007,0.023 0.01,0.0319 0.003,0.0107 0.005,0.0168 0.009,0.0217 0.008,0.0101 0.0224,0.0121 0.032,0.0175 0.0475,-0.023 0.11129,-0.0475 0.19715,-0.0713 0.0788,-0.0218 0.16343,-0.0393 0.26681,-0.0579 0.24405,-0.0371 0.51344,-0.0539 0.77165,-0.008 l -0.0137,-0.003 c 0.0531,0.008 0.0953,0.0148 0.11899,0.0188 0.0113,0.002 0.018,0.003 0.0208,0.002 0.003,-0.001 0.002,-0.005 2.6e-4,-0.0103 -0.0161,-0.0229 -0.0282,-0.0508 -0.0342,-0.0786 -0.006,-0.0261 -0.005,-0.0487 -0.002,-0.0661 0.003,-0.0166 0.007,-0.0297 0.012,-0.0396 5.6e-4,-0.001 0.001,-0.002 0.002,-0.004 -0.0819,0.14171 -0.18614,0.28278 -0.31312,0.40619 -0.11578,0.11253 -0.2497,0.20954 -0.40065,0.2775 -0.009,0.004 -0.0179,0.008 -0.0263,0.0134 0.01,-0.006 0.0192,-0.01 0.0268,-0.0121 0.007,-0.002 0.0114,-0.003 0.0123,-0.003 0.002,-0.001 -0.009,-0.004 -0.0248,-0.0105 -0.10826,-0.0408 -0.2185,-0.11845 -0.31261,-0.22595 -0.0235,-0.0324 -0.0355,-0.0541 -0.0325,-0.0536 0.001,2.8e-4 0.007,0.007 0.0118,0.0216 0.005,0.0151 0.01,0.0367 0.009,0.0624 -2e-4,0.006 -7e-4,0.0121 -0.002,0.018 -9.9e-4,0.006 -0.002,0.0119 -0.003,0.0179 -0.004,0.0249 -0.0119,0.0514 -0.0249,0.0778 -0.0129,0.0262 -0.0288,0.0484 -0.0453,0.0664 -0.0309,0.0338 -0.0619,0.0509 -0.0689,0.0551 -0.009,0.005 -0.007,0.005 0.0104,0.001 0.012,-0.003 0.0471,-0.0115 0.0853,-0.0267 l -0.0298,0.0114 c 0.11304,-0.0352 0.2201,-0.0595 0.31978,-0.068 0.099,-0.008 0.18307,-5.5e-4 0.25527,0.0222 0.0503,0.0162 0.0964,0.0457 0.13387,0.0866 0.038,0.0414 0.0618,0.0884 0.0714,0.13296 l -0.008,-0.036 c -0.007,-0.0372 -0.008,-0.0748 -0.003,-0.11132 0.005,-0.0361 0.014,-0.0667 0.0239,-0.0909 0.018,-0.0438 0.0417,-0.0746 0.0441,-0.078 0.004,-0.006 0.002,-0.005 -0.0142,0.01 -0.0119,0.0113 -0.0433,0.0419 -0.0733,0.0858 l 0.045,-0.057 c -0.14769,0.15139 -0.34081,0.2675 -0.55084,0.35482 -0.0814,0.0316 -0.15824,0.0561 -0.2282,0.0704 -0.0726,0.0148 -0.13006,0.0169 -0.17726,0.0112 -0.006,-0.001 -0.006,-0.001 -0.002,0.002 0.005,0.005 0.009,0.009 0.014,0.0144 0.006,0.008 0.0128,0.0188 0.0176,0.0319 -0.0198,-0.0397 -0.0329,-0.0905 -0.0354,-0.15588 -0.003,-0.0686 0.007,-0.14538 0.0258,-0.22518 0.0288,-0.10897 0.0748,-0.2149 0.13305,-0.30667 0.0601,-0.0947 0.13209,-0.17267 0.21247,-0.23105 0.0471,-0.0371 0.10077,-0.064 0.15654,-0.0793 0.0567,-0.0155 0.11296,-0.0182 0.16419,-0.009 0.0759,0.0144 0.13198,0.0291 0.17685,0.0474 0.0216,0.009 0.0383,0.0176 0.0512,0.0258 0.0126,0.008 0.0217,0.0157 0.0284,0.0229 -3.5e-4,-0.002 -8.7e-4,-0.005 -3.1e-4,-0.006 5e-4,-5.5e-4 0.002,0.002 0.002,0.007 4.2e-4,0.0161 -0.003,0.0324 -0.0103,0.0473 -0.0248,0.06 -0.0627,0.116 -0.11183,0.16903 -0.051,0.055 -0.11308,0.10564 -0.18172,0.15093 -0.0467,0.0271 -0.0907,0.0484 -0.12609,0.0582 -0.0168,0.005 -0.0292,0.006 -0.0375,0.005 -0.008,-6.4e-4 -0.0114,-0.003 -0.0125,-0.005 -0.0479,-0.007 -0.10259,-0.0251 -0.16487,-0.0576 -0.0595,-0.031 -0.12266,-0.0738 -0.18911,-0.12857 -0.0621,-0.0525 -0.12351,-0.11502 -0.17369,-0.1821 -0.005,-0.006 -0.009,-0.0124 -0.0136,-0.0186 -0.0474,-0.067 -0.0824,-0.13733 -0.1004,-0.20983 -0.007,-0.03 -0.008,-0.0607 -0.003,-0.09 0.005,-0.0265 0.015,-0.0481 0.0262,-0.0626 0.004,-0.006 0.009,-0.0119 0.0126,-0.0181 -0.007,0.0111 -0.0147,0.0184 -0.0192,0.0222 -0.004,0.003 -0.003,0.002 0.006,-0.002 0.0233,-0.0104 0.0566,-0.0204 0.12712,-0.0376 0.0522,-0.0132 0.1619,-0.0375 0.25935,-0.0743 0.0532,-0.0201 0.11288,-0.0472 0.17298,-0.0851 0.0608,-0.0383 0.12156,-0.0875 0.17646,-0.15088 0.0126,-0.0146 0.0243,-0.0299 0.0348,-0.0461 0.0448,-0.069 0.0693,-0.14067 0.0806,-0.20735 0.011,-0.065 0.009,-0.12272 0.004,-0.16676 -0.008,-0.077 -0.0326,-0.15729 -0.0347,-0.16511 -0.0182,-0.0734 -0.0369,-0.11628 -0.0421,-0.13181 -0.003,-0.009 -0.002,-0.008 -0.001,-3e-5 0.001,0.008 0.003,0.025 1.9e-4,0.0469 -0.003,0.0316 -0.01,0.0629 -0.0203,0.093 -0.0162,0.0468 -0.0438,0.0948 -0.0853,0.13674 -0.042,0.0424 -0.0903,0.0708 -0.13764,0.0877 -0.0472,0.0169 -0.0914,0.0217 -0.12813,0.0208 -0.0375,-9e-4 -0.0712,-0.008 -0.10009,-0.0175 -0.0297,-0.01 -0.058,-0.0241 -0.084,-0.0422 -0.0267,-0.0185 -0.0535,-0.0428 -0.0772,-0.0739 -0.0246,-0.0323 -0.0462,-0.0723 -0.0594,-0.11947 -0.0138,-0.0494 -0.0168,-0.1006 -0.009,-0.14991 l -0.004,0.0685 c 4.4e-4,-8.9e-4 -0.004,0.0344 -0.0182,0.092 -0.0206,0.0814 -0.0463,0.17761 -0.0498,0.29262 a 0.41082103,0.41082103 90 0 0 0.82124,0.0255 z"
       id="path-1-4"
       style="fill:#000000;fill-rule:nonzero;stroke:none;stroke-width:1px;stroke-linecap:butt;stroke-linejoin:miter;stroke-opacity:1" />
    <path
       d="m 138.5968,124.17168 c -0.0769,0.0228 -0.19027,0.0467 -0.35386,0.0891 -0.11714,0.0304 -0.29046,0.0798 -0.46204,0.17249 -0.33278,0.17118 -0.69949,0.44973 -0.96921,0.85604 -0.0683,0.10609 -0.13705,0.2351 -0.18014,0.38464 -0.0212,0.0735 -0.037,0.1548 -0.0419,0.24207 -0.005,0.0863 9.2e-4,0.17816 0.0226,0.27268 0.0192,0.087 0.0527,0.17064 0.0957,0.24598 0.0424,0.0744 0.0934,0.13991 0.14926,0.19684 0.10968,0.11174 0.2417,0.19402 0.37744,0.2463 0.23151,0.0898 0.47619,0.1098 0.70487,0.078 0.23103,-0.0321 0.45279,-0.11772 0.64291,-0.24705 0.17817,-0.11946 0.31907,-0.27597 0.42254,-0.44316 0.0767,-0.12397 0.13396,-0.25546 0.17321,-0.38774 0.0157,-0.0528 0.0287,-0.10665 0.039,-0.16126 6.7e-4,-0.004 0.001,-0.007 0.002,-0.0107 0.0142,-0.089 0.0403,-0.19883 0.0651,-0.33174 0.0234,-0.12532 0.0471,-0.28329 0.0391,-0.45551 -0.005,-0.10571 -0.0277,-0.22366 -0.0777,-0.33884 -0.0495,-0.1139 -0.12882,-0.23142 -0.24949,-0.32461 -0.15262,-0.12412 -0.32506,-0.19486 -0.49127,-0.23052 -0.16828,-0.0361 -0.33626,-0.0378 -0.48805,-0.0203 -0.4475,0.0517 -0.85902,0.24951 -1.18214,0.5286 -0.13062,0.11484 -0.25329,0.25131 -0.35074,0.40963 -0.0988,0.16048 -0.17363,0.34684 -0.19813,0.55395 -0.023,0.18207 0.002,0.36015 0.0541,0.5184 0.0532,0.16106 0.13612,0.30633 0.2342,0.42912 l -0.009,-0.0119 c 0.12113,0.16187 0.28134,0.29951 0.47399,0.385 0.17953,0.0815 0.3729,0.12131 0.55993,0.12443 0.11099,0.002 0.22096,-0.009 0.32725,-0.0324 0.083,-0.0182 0.16436,-0.0439 0.24278,-0.0772 0.14072,-0.0587 0.26882,-0.14624 0.37376,-0.25371 0.10947,-0.1121 0.19704,-0.24925 0.24863,-0.4052 0.0741,-0.21693 0.0919,-0.45779 0.0361,-0.68804 -0.0328,-0.13472 -0.0989,-0.25654 -0.1856,-0.35595 -0.088,-0.10088 -0.201,-0.18312 -0.3319,-0.23452 -0.15033,-0.06 -0.30314,-0.0808 -0.43886,-0.0829 -0.13426,-0.002 -0.2603,0.0138 -0.36577,0.0319 -0.0887,0.0169 -0.16882,0.0356 -0.24816,0.0578 -0.21266,0.0593 -0.40723,0.1393 -0.58194,0.22984 l 0.009,-0.004 c -0.0241,0.0133 -0.0538,0.0306 -0.0853,0.0524 -0.0317,0.022 -0.069,0.0509 -0.1058,0.088 -0.0372,0.0375 -0.0771,0.0864 -0.10959,0.1482 -0.0331,0.0628 -0.0565,0.13508 -0.0633,0.21449 -0.006,0.0864 0.004,0.15968 0.0235,0.22513 0.019,0.0631 0.0462,0.11695 0.0746,0.16147 0.0527,0.0826 0.1165,0.14372 0.16382,0.18404 0.001,0.001 0.003,0.003 0.004,0.004 0.001,0.001 0.003,0.003 0.004,0.004 0.10785,0.096 0.23553,0.17684 0.37804,0.23487 0.12954,0.0528 0.27596,0.0884 0.43199,0.0952 0.0539,0.002 0.11064,3.4e-4 0.1675,-0.007 0.0773,-0.01 0.15708,-0.0293 0.23597,-0.0605 0.1213,-0.048 0.24562,-0.12618 0.34831,-0.24305 0.097,-0.1083 0.16762,-0.2347 0.2172,-0.36571 0.0462,-0.12203 0.0739,-0.24759 0.0903,-0.36832 0.0132,-0.10793 -0.004,-0.21688 -0.0549,-0.31438 -0.0248,-0.048 -0.0587,-0.0953 -0.1031,-0.13724 -0.0439,-0.0415 -0.0974,-0.0771 -0.15979,-0.10171 -0.053,-0.0217 -0.10961,-0.0358 -0.16365,-0.0436 -0.0529,-0.008 -0.10307,-0.009 -0.14857,-0.008 -0.0865,0.003 -0.16724,0.0173 -0.22258,0.0273 -0.004,6.9e-4 -0.008,0.002 -0.0114,0.003 -0.30623,0.0699 -0.58845,0.20169 -0.8431,0.35781 -0.0867,0.0549 -0.17848,0.11613 -0.26705,0.1893 -0.0887,0.0732 -0.17958,0.16292 -0.25731,0.27453 -0.0235,0.0348 -0.0439,0.0675 -0.0631,0.10509 -0.0191,0.0373 -0.039,0.083 -0.0537,0.1356 -0.0148,0.0527 -0.0256,0.11686 -0.0226,0.1887 0.003,0.0735 0.0206,0.15141 0.0586,0.22734 0.003,0.005 0.006,0.0108 0.009,0.0161 0.038,0.0681 0.0861,0.12277 0.13709,0.16587 0.0503,0.0426 0.10213,0.0728 0.14828,0.0947 0.0888,0.0421 0.17697,0.0622 0.22766,0.0731 0.005,10e-4 0.009,0.002 0.0139,0.002 0.15732,0.0257 0.30938,0.0274 0.44958,0.0183 0.14193,-0.009 0.27827,-0.0299 0.39953,-0.0512 0.34242,-0.0675 0.68496,-0.16833 1.00024,-0.34712 0.004,-0.002 0.008,-0.004 0.0113,-0.007 0.0592,-0.0353 0.1413,-0.0863 0.21928,-0.15445 0.0413,-0.0361 0.0837,-0.0789 0.12296,-0.1296 0.0406,-0.0524 0.0773,-0.11254 0.10586,-0.18114 0.0292,-0.0689 0.0435,-0.1409 0.0463,-0.20915 0.003,-0.0701 -0.006,-0.13551 -0.0224,-0.19376 -0.0336,-0.12166 -0.0996,-0.2234 -0.17676,-0.29888 -0.10077,-0.10053 -0.21349,-0.16821 -0.30781,-0.21372 -0.0857,-0.0414 -0.16845,-0.0701 -0.23404,-0.0903 -0.0183,-0.006 -0.036,-0.0108 -0.0529,-0.0155 -0.41377,-0.11546 -0.77892,-0.11191 -1.06451,-0.0668 -0.11302,0.0231 -0.22586,0.0537 -0.33682,0.10016 -0.10805,0.0453 -0.22895,0.11167 -0.33786,0.21272 -0.0737,0.0692 -0.13902,0.16046 -0.18248,0.26857 -0.009,0.0216 -0.0166,0.0441 -0.0235,0.0673 -0.0219,0.0738 -0.0346,0.1583 -0.0292,0.24912 l -2.4e-4,-0.0153 c 0.001,0.0637 0.009,0.15567 0.0418,0.2495 0.0161,0.0454 0.0396,0.0953 0.0748,0.14385 0.0345,0.0477 0.0796,0.093 0.13724,0.12968 0.0574,0.0351 0.11183,0.0562 0.16516,0.0692 0.0519,0.0127 0.10182,0.0174 0.14712,0.018 0.0869,0.001 0.16749,-0.0133 0.22404,-0.0247 0.10464,-0.0218 0.20023,-0.0544 0.27877,-0.0821 0.0866,-0.0305 0.14895,-0.0534 0.21452,-0.0709 0.0192,-0.005 0.0378,-0.0124 0.0554,-0.0215 -0.038,0.0196 -0.0758,0.0267 -0.10889,0.0267 -0.0176,1e-5 -0.0367,-0.002 -0.0566,-0.007 -0.0201,-0.005 -0.0436,-0.0133 -0.0681,-0.0276 -0.0251,-0.0147 -0.0532,-0.0367 -0.0779,-0.0687 -0.026,-0.0336 -0.0453,-0.0746 -0.0538,-0.1204 -0.009,-0.0465 -0.004,-0.0886 0.004,-0.12207 0.009,-0.0335 0.0224,-0.0583 0.0326,-0.0738 l -0.0197,0.0338 c -0.0159,0.0294 -0.0383,0.0606 -0.0662,0.0954 -0.0365,0.0456 -0.0778,0.0926 -0.10949,0.13195 a 0.31518947,0.31518947 90 0 0 0.49104,0.3953 c 0.007,-0.009 0.0798,-0.0974 0.11423,-0.14292 0.0351,-0.0464 0.083,-0.11345 0.12326,-0.19406 0.0128,-0.0233 0.0248,-0.0507 0.0332,-0.0821 0.0119,-0.0443 0.0165,-0.0963 0.006,-0.15196 -0.0101,-0.0546 -0.0331,-0.10369 -0.0645,-0.14439 -0.03,-0.0389 -0.065,-0.0669 -0.0983,-0.0864 -0.0325,-0.0191 -0.0653,-0.0312 -0.0955,-0.0387 -0.0298,-0.007 -0.0595,-0.0107 -0.0882,-0.0108 -0.0445,-1.7e-4 -0.093,0.008 -0.14099,0.0265 -0.0844,0.0256 -0.16515,0.0566 -0.23241,0.0814 -0.0759,0.0279 -0.13754,0.0489 -0.19692,0.0618 -0.0447,0.01 -0.0733,0.0133 -0.0928,0.0131 -0.008,-1e-4 -0.0118,-0.001 -0.0106,-8.4e-4 0.001,2.4e-4 0.006,0.002 0.0128,0.005 0.0183,0.0114 0.028,0.0213 0.0344,0.0297 0.006,0.008 0.008,0.0124 0.008,0.0118 7.1e-4,-0.001 -0.002,-0.0236 -7e-5,-0.0464 2.4e-4,-0.003 9e-5,-0.005 -2.5e-4,-0.008 -1.8e-4,-0.001 -3.3e-4,-0.003 -3.3e-4,-0.004 -1e-5,-0.001 1.5e-4,-0.003 3.4e-4,-0.004 0.001,-0.009 0.005,-0.0181 0.01,-0.0261 0.002,-0.002 0.003,-0.005 0.005,-0.007 0.01,-0.0109 0.0212,-0.015 0.0298,-0.0135 0.0382,-0.0226 0.0841,-0.0365 0.13833,-0.0454 0.0562,-0.009 0.12104,-0.0133 0.19979,-0.0144 0.19204,-0.008 0.44744,0.0136 0.72403,0.10471 0.004,0.002 0.017,0.007 0.0293,0.0118 0.0462,0.0181 0.0877,0.0362 0.12333,0.0557 0.0396,0.0217 0.0647,0.0412 0.081,0.0587 -0.0182,-0.0171 -0.0372,-0.0444 -0.0477,-0.0824 -0.005,-0.0188 -0.009,-0.0428 -0.008,-0.0708 0.001,-0.0276 0.007,-0.0582 0.0203,-0.0889 0.003,-0.006 0.007,-0.0115 0.008,-0.0122 7.9e-4,-5.7e-4 -0.002,0.003 -0.009,0.0105 -0.0171,0.0162 -0.0444,0.0363 -0.0942,0.0682 -0.20344,0.11726 -0.44498,0.19734 -0.72706,0.25807 -0.10096,0.0201 -0.20248,0.0373 -0.29983,0.0461 -0.0951,0.009 -0.18191,0.009 -0.2622,-0.002 l 0.0139,0.002 c -0.0347,-0.005 -0.0478,-0.008 -0.0421,-0.005 0.003,0.002 0.0155,0.009 0.0298,0.0222 0.0155,0.0139 0.0328,0.0336 0.0467,0.0596 0.003,0.005 0.006,0.0106 0.009,0.0161 0.0166,0.0342 0.0236,0.0687 0.0243,0.0985 6.9e-4,0.0283 -0.004,0.0474 -0.008,0.0573 -0.004,0.0109 -0.006,0.0105 -0.005,0.009 5.2e-4,-0.003 0.003,-0.01 0.008,-0.0189 0.0194,-0.0313 0.0548,-0.0719 0.10399,-0.11581 0.05,-0.0446 0.10903,-0.088 0.1784,-0.13529 0.19526,-0.12611 0.39802,-0.22273 0.60156,-0.27372 l -0.0114,0.003 c 0.0538,-0.0125 0.0818,-0.0179 0.10604,-0.0205 0.01,-0.001 0.0154,-0.001 0.0165,-0.002 9.9e-4,-4e-4 -0.002,-0.001 -0.007,-0.004 -0.026,-0.0106 -0.0513,-0.0279 -0.0714,-0.0472 -0.0201,-0.0194 -0.0343,-0.04 -0.0439,-0.0591 -0.019,-0.0378 -0.0249,-0.0779 -0.0199,-0.11657 -0.009,0.0745 -0.0255,0.14366 -0.0474,0.20177 -0.0232,0.0615 -0.051,0.10587 -0.0805,0.13793 -0.0181,0.0197 -0.0415,0.0345 -0.069,0.0437 -0.0179,0.006 -0.0366,0.009 -0.055,0.0104 -0.0134,6.5e-4 -0.0263,-5e-5 -0.0384,-0.002 -0.0622,-0.007 -0.12005,-0.0253 -0.17117,-0.052 -0.0562,-0.0294 -0.10246,-0.0674 -0.13746,-0.1082 l 0.008,0.008 c -0.0129,-0.0203 -0.018,-0.0399 -0.004,-0.0295 0.006,0.005 0.0159,0.0164 0.0244,0.037 0.009,0.0217 0.0153,0.05 0.0151,0.0825 -0.003,0.0533 -0.0157,0.0954 -0.0329,0.1313 -0.0166,0.0345 -0.0358,0.0598 -0.0492,0.0758 -0.0138,0.0164 -0.0231,0.0255 -0.0275,0.0312 -0.004,0.006 -0.004,0.008 -1.6e-4,0.008 8.7e-4,1.1e-4 0.002,1.7e-4 0.003,-6e-5 8.5e-4,-2.3e-4 0.002,-7.2e-4 0.002,-0.001 6.8e-4,-5.6e-4 0.001,-0.001 0.002,-0.002 7e-4,-5.2e-4 0.001,-9.1e-4 0.002,-0.001 0.13219,-0.0573 0.27578,-0.1085 0.42727,-0.14844 0.0566,-0.0149 0.11321,-0.028 0.16971,-0.0391 0.0729,-0.0131 0.13627,-0.0217 0.19187,-0.024 0.0535,-0.002 0.0901,0.002 0.1149,0.007 -0.007,-0.006 -0.0105,-0.015 -0.0114,-0.0221 -7.5e-4,-0.006 -2.5e-4,-0.0163 0.001,-0.0261 0.0243,0.0524 0.0348,0.12513 0.0185,0.2047 -0.005,0.0272 -0.0181,0.0587 -0.0442,0.0902 -0.0251,0.0304 -0.0593,0.0572 -0.0985,0.0754 -0.032,0.0145 -0.0649,0.0256 -0.0997,0.0337 -0.0446,0.0104 -0.0921,0.0156 -0.14107,0.015 -0.0833,-0.001 -0.16723,-0.0191 -0.24279,-0.0541 -0.0511,-0.0238 -0.10457,-0.0689 -0.14814,-0.13353 -0.003,-0.004 -0.006,-0.008 -0.009,-0.0119 -0.0419,-0.0555 -0.0734,-0.11705 -0.0911,-0.17804 -0.0173,-0.0595 -0.0201,-0.11358 -0.0118,-0.16053 0.0108,-0.0703 0.0389,-0.14068 0.0873,-0.21363 0.0484,-0.0729 0.11446,-0.14401 0.19285,-0.20838 0.20914,-0.17134 0.4644,-0.28054 0.71836,-0.30294 0.0737,-0.005 0.14318,7.1e-4 0.1996,0.0158 0.0561,0.015 0.0909,0.0367 0.11273,0.058 0.004,0.004 0.008,0.008 0.0131,0.0108 -0.021,-0.014 -0.0314,-0.0297 -0.0344,-0.0321 -0.003,-0.002 -0.002,0.007 -0.003,0.0186 7.1e-4,0.0666 -0.01,0.14122 -0.0309,0.24121 -0.0207,0.0982 -0.0509,0.21351 -0.0747,0.34594 -0.005,0.0226 -0.0105,0.0449 -0.0173,0.0668 -0.0175,0.0563 -0.042,0.11014 -0.0728,0.15867 -0.0416,0.0656 -0.0923,0.11816 -0.1485,0.15528 -0.0718,0.0482 -0.15534,0.0804 -0.24184,0.0921 -0.084,0.0114 -0.16438,0.002 -0.23016,-0.0235 -0.02,-0.008 -0.034,-0.0181 -0.0408,-0.025 -0.003,-0.003 -0.003,-0.004 -0.001,-8.9e-4 0.002,0.003 0.004,0.009 0.006,0.0167 -7.5e-4,-0.003 -0.001,-0.004 -0.001,-0.01 2.6e-4,-0.006 0.002,-0.0167 0.006,-0.0323 0.01,-0.0341 0.0297,-0.0779 0.0614,-0.12786 0.15691,-0.23779 0.38578,-0.41813 0.61545,-0.53735 0.0757,-0.0413 0.15815,-0.0684 0.25763,-0.0946 0.12587,-0.0332 0.26482,-0.0632 0.38337,-0.0983 a 0.47295101,0.47295101 90 0 0 -0.26882,-0.9069 z"
       id="path-1-43"
       style="fill:#000000;fill-rule:nonzero;stroke:none;stroke-width:1px;stroke-linecap:butt;stroke-linejoin:miter;stroke-opacity:1" />
    <path
       d="m 58.856756,94.955602 c 0.309291,-0.127758 0.814054,-0.363949 1.3351,-0.763719 0.374109,-0.287032 0.757899,-0.659376 1.079749,-1.132063 0.293963,-0.424747 0.516205,-0.90281 0.665709,-1.410579 0.149596,-0.508082 0.220202,-1.024816 0.22959,-1.52104 7.08e-4,-0.04367 7.1e-4,-0.089 1.69e-4,-0.132458 -0.0024,-0.193763 -0.01759,-0.382249 -0.02998,-0.564872 l -0.0022,0.06 c 0.009,-0.120047 -0.01206,-0.251626 -0.08148,-0.373382 -0.06852,-0.120162 -0.168127,-0.202516 -0.271061,-0.251783 -0.09988,-0.0478 -0.201687,-0.0645 -0.291754,-0.0636 -0.0782,7.88e-4 -0.155113,0.0148 -0.227254,0.04002 -0.109323,0.02489 -0.210644,0.06344 -0.303419,0.111268 -0.110121,0.05677 -0.207545,0.126261 -0.292831,0.201112 -0.171983,0.150941 -0.303279,0.331224 -0.399684,0.501039 -0.0092,0.01638 -0.0177,0.03168 -0.026,0.04699 -0.144726,0.266753 -0.24662,0.543819 -0.322856,0.816228 -0.081,0.289419 -0.135015,0.581141 -0.178484,0.855249 -0.115185,0.83803 -0.134025,1.67824 -0.04975,2.503266 5.14e-4,0.005 0.0015,0.01 0.002,0.01503 0.0098,0.104553 0.02151,0.235885 0.04389,0.367873 0.0062,0.03629 0.01325,0.07354 0.02156,0.111451 0.02159,0.09853 0.0534,0.212452 0.103346,0.330793 0.0065,0.01548 0.01403,0.03054 0.02201,0.04534 0.105403,0.195649 0.245415,0.348345 0.384757,0.470867 0.134852,0.118575 0.281071,0.21847 0.388216,0.291757 0.191273,0.126979 0.335987,0.210229 0.404665,0.254951 a 0.5368253,0.5368253 90 0 0 0.585882,-0.899704 c -0.013,-0.0085 -0.305093,-0.196826 -0.381761,-0.249258 -0.108943,-0.07583 -0.202325,-0.141589 -0.281774,-0.211391 -0.0671,-0.05895 -0.111926,-0.110957 -0.141142,-0.157416 -0.01444,-0.03645 -0.02721,-0.07682 -0.03908,-0.121801 -0.0057,-0.02153 -0.0112,-0.04413 -0.01667,-0.06809 -0.02241,-0.09821 -0.03716,-0.186466 -0.06158,-0.314552 -0.09406,-0.733807 -0.103277,-1.488619 -0.02081,-2.24254 0.02933,-0.251189 0.06743,-0.500718 0.127237,-0.737679 0.05599,-0.221846 0.130002,-0.428466 0.231209,-0.616097 0.0058,-0.01075 0.01168,-0.02144 0.01767,-0.03207 0.05557,-0.09826 0.125267,-0.184473 0.199777,-0.244296 0.03587,-0.0288 0.0706,-0.04968 0.103342,-0.06373 0.03219,-0.01381 0.06254,-0.0211 0.09203,-0.02345 0.01649,-0.0013 0.03302,-0.0031 0.049,-0.0073 0.01598,-0.0043 0.0312,-0.01094 0.04621,-0.01789 -0.02799,0.01295 -0.06038,0.02199 -0.09699,0.02382 -0.03604,0.0018 -0.08603,-0.0031 -0.141994,-0.02859 -0.05872,-0.02676 -0.121738,-0.07589 -0.166418,-0.152153 -0.04537,-0.07744 -0.05511,-0.154071 -0.05249,-0.208612 l -0.0022,0.06 c -0.0039,0.179803 -0.0036,0.360001 -0.0076,0.539804 -8e-4,0.0364 -0.0019,0.07312 -0.0033,0.10993 -0.01019,0.414187 -0.0698,0.835594 -0.190384,1.243688 -0.120295,0.407127 -0.295146,0.780351 -0.521108,1.108098 -0.24823,0.365912 -0.546459,0.659176 -0.847136,0.891349 -0.419706,0.324084 -0.828708,0.518271 -1.090202,0.626286 a 0.53229011,0.53229011 90 0 0 0.406434,0.983942 z"
       id="path-1-0"
       style="fill:#000000;fill-rule:nonzero;stroke:none;stroke-width:1px;stroke-linecap:butt;stroke-linejoin:miter;stroke-opacity:1" />
    <path
       d="m 65.579341,90.350535 c 0.01272,-0.006 0.01328,-0.0033 -0.01167,5.63e-4 -0.02479,0.0038 -0.05622,0.0065 -0.124785,0.0099 -0.138771,0.0046 -0.280193,-0.0024 -0.481102,-0.0097 -0.178256,-0.0064 -0.390797,-0.01218 -0.611079,0.0073 -0.0038,3.38e-4 -0.0076,7.1e-4 -0.01142,0.0011 -0.07618,0.0082 -0.17817,0.02114 -0.286409,0.0497 -0.121736,0.03212 -0.251925,0.08392 -0.375956,0.170522 -0.08259,0.05671 -0.149408,0.125024 -0.199768,0.190391 -0.02835,0.03679 -0.05386,0.07572 -0.07632,0.116398 -0.06472,0.117226 -0.103693,0.248332 -0.112552,0.383582 -0.0069,0.09376 7.93e-4,0.170248 0.0042,0.200798 a 0.62058467,0.62058467 90 0 0 1.2336,-0.136864 c 1.27e-4,0.0011 0.0013,0.0056 4.07e-4,0.0217 -0.0037,0.04737 -0.01747,0.09156 -0.03907,0.130675 -0.0078,0.01419 -0.01684,0.02797 -0.02704,0.0412 -0.01799,0.02335 -0.04296,0.04923 -0.0768,0.07248 -0.01592,0.01114 -0.02879,0.01311 -0.01407,0.0092 0.01624,-0.0043 0.04318,-0.0092 0.09634,-0.01508 0.13491,-0.01153 0.27836,-0.0091 0.451112,-0.0028 0.177365,0.0064 0.37417,0.01622 0.577494,0.0094 0.08258,-0.004 0.169573,-0.0089 0.263147,-0.02342 0.13866,-0.02147 0.252815,-0.05813 0.351206,-0.10454 a 0.62058467,0.62058467 90 0 0 -0.529456,-1.122576 z"
       id="path-1-7"
       style="fill:#000000;fill-rule:nonzero;stroke:none;stroke-width:1px;stroke-linecap:butt;stroke-linejoin:miter;stroke-opacity:1" />
    <path
       d="m 65.994959,92.023382 c -0.03019,0.01745 -0.09076,0.04845 -0.19648,0.07138 -0.07684,0.01667 -0.170531,0.02776 -0.288488,0.03088 -0.166428,0.0052 -0.319348,-0.0036 -0.533765,-0.01013 -0.211571,-0.0065 -0.436757,-0.008 -0.672241,0.02207 -0.193464,0.02556 -0.337835,0.06759 -0.439309,0.104076 -0.11369,0.04088 -0.195675,0.08319 -0.233551,0.103466 a 0.65060853,0.65060853 90 0 0 0.614036,1.147226 c 0.007,-0.0038 0.0277,-0.01468 0.05979,-0.02622 0.02714,-0.0098 0.08082,-0.02683 0.16671,-0.03818 0.128068,-0.01635 0.270354,-0.01777 0.464818,-0.01182 0.172993,0.0053 0.394615,0.017 0.611181,0.01019 0.176491,-0.0047 0.353476,-0.02234 0.526679,-0.05992 0.255406,-0.05541 0.441687,-0.141253 0.571798,-0.216461 a 0.65060853,0.65060853 90 0 0 -0.651182,-1.126556 z"
       id="path-1-8"
       style="fill:#000000;fill-rule:nonzero;stroke:none;stroke-width:1px;stroke-linecap:butt;stroke-linejoin:miter;stroke-opacity:1" />
    <path
       d="m 69.477673,86.947888 c -0.183128,0.774139 -0.343153,1.751504 -0.419141,3.165492 -0.01771,0.329588 -0.02865,0.637512 -0.03595,0.889844 -0.01776,0.613653 -0.0354,2.104283 -0.03738,2.223164 a 0.59860642,0.59860642 90 0 0 1.197046,0.01999 c 0.0024,-0.142111 0.01952,-1.602873 0.03705,-2.208523 0.0071,-0.246279 0.01771,-0.543704 0.03472,-0.860228 0.07248,-1.348688 0.223313,-2.254942 0.388712,-2.954137 a 0.59860642,0.59860642 90 0 0 -1.165058,-0.275602 z"
       id="path-1-6"
       style="fill:#000000;fill-rule:nonzero;stroke:none;stroke-width:1px;stroke-linecap:butt;stroke-linejoin:miter;stroke-opacity:1" />
    <path
       d="m 72.177459,86.695626 c -0.01794,0.132299 -0.169759,1.178148 -0.228545,1.785425 -0.119377,0.995117 -0.26633,2.044702 -0.385507,3.066978 -0.06234,0.534751 -0.129768,1.168491 -0.178315,1.830343 -3.28e-4,0.0045 -6.09e-4,0.0089 -8.44e-4,0.01341 -0.0075,0.143046 -0.02305,0.375281 -0.0275,0.570708 -0.0043,0.187391 -0.001,0.398757 0.02724,0.619676 0.0015,0.02351 0.004,0.04553 0.0069,0.06578 0.0061,0.04186 0.01543,0.08273 0.02738,0.121881 0.01187,0.0389 0.02804,0.08166 0.05012,0.125695 0.02123,0.04236 0.05458,0.09925 0.105503,0.156999 0.02632,0.02985 0.0612,0.06432 0.105936,0.09761 0.04507,0.03354 0.104465,0.06906 0.178473,0.09514 0.07614,0.02683 0.16419,0.04228 0.259496,0.03681 0.0964,-0.0055 0.184373,-0.03157 0.259986,-0.0694 0.146493,-0.07329 0.229596,-0.181098 0.270251,-0.24437 0.02823,-0.04393 0.04883,-0.08648 0.06394,-0.123233 0.02447,-0.05075 0.04524,-0.09994 0.05062,-0.112195 0.01714,-0.03903 0.01845,-0.03891 0.01524,-0.03365 a 0.6464222,0.6464222 90 0 0 -1.103674,-0.673314 c -0.03831,0.0628 -0.06688,0.12241 -0.09534,0.187226 -0.01765,0.0402 -0.03049,0.06895 -0.03333,0.07441 -0.01574,0.03031 -0.02905,0.06182 -0.03981,0.09423 0.0055,-0.01653 0.02093,-0.05983 0.05468,-0.112352 0.03045,-0.04738 0.103038,-0.144966 0.238959,-0.212967 0.07041,-0.03523 0.153172,-0.05987 0.244388,-0.0651 0.09017,-0.0052 0.173117,0.0095 0.244215,0.03454 0.06901,0.02431 0.123473,0.05711 0.163722,0.08706 0.03994,0.02972 0.07014,0.05979 0.09193,0.08449 0.04192,0.04753 0.06685,0.09135 0.08057,0.118707 0.01461,0.02914 0.02422,0.05515 0.03071,0.07645 0.0066,0.02161 0.01173,0.04412 0.01521,0.06782 0.0034,0.02313 0.0061,0.05387 0.0048,0.09088 l -0.0058,-0.112858 c -0.01927,-0.138033 -0.02351,-0.285536 -0.01985,-0.446528 0.0038,-0.167877 0.0165,-0.351964 0.02569,-0.525547 0.04663,-0.633756 0.11154,-1.244885 0.172598,-1.768626 0.117132,-1.004731 0.264309,-2.055726 0.385905,-3.070235 6.03e-4,-0.005 0.0011,-0.01006 0.0016,-0.0151 0.05504,-0.572763 0.200211,-1.571379 0.22349,-1.743062 a 0.6464222,0.6464222 90 0 0 -1.28112,-0.173714 z"
       id="path-1-88"
       style="fill:#000000;fill-rule:nonzero;stroke:none;stroke-width:1px;stroke-linecap:butt;stroke-linejoin:miter;stroke-opacity:1" />
    <path
       d="m 94.914762,88.486017 c -0.120501,0.749728 -0.259659,1.744795 -0.396695,3.117935 -0.159307,1.596291 -0.302471,3.666928 -0.37486,4.631132 a 0.63803863,0.63803863 90 0 0 1.272496,0.09553 c 0.07359,-0.98023 0.214885,-3.024284 0.372133,-4.599945 0.134467,-1.347394 0.270313,-2.317193 0.386834,-3.042156 a 0.63803863,0.63803863 90 0 0 -1.259908,-0.2025 z"
       id="path-1-431"
       style="fill:#000000;fill-rule:nonzero;stroke:none;stroke-width:1px;stroke-linecap:butt;stroke-linejoin:miter;stroke-opacity:1" />
    <path
       d="m 98.334161,90.439471 c -0.01619,0.02578 -0.04808,0.07065 -0.125757,0.134519 -0.06198,0.05096 -0.131507,0.09772 -0.24212,0.169178 -0.501367,0.299438 -1.016699,0.507069 -1.673236,0.785956 -0.41613,0.178509 -0.846084,0.342311 -1.26497,0.574818 -0.0084,0.0047 -0.01637,0.01003 -0.02467,0.01486 -0.02124,0.01237 -0.09254,0.05187 -0.147451,0.08775 -0.01328,0.0087 -0.02733,0.01818 -0.04186,0.02853 -0.04292,0.03056 -0.09368,0.07104 -0.143417,0.12377 -0.05008,0.0531 -0.09978,0.11929 -0.139773,0.200936 -0.01127,0.02302 -0.0213,0.04675 -0.02755,0.0716 -0.0062,0.02486 -0.0099,0.05029 -0.01393,0.07559 -0.01649,0.102522 -0.008,0.197875 0.01228,0.280777 0.01959,0.07994 0.04963,0.145979 0.07444,0.193774 0.05174,0.09969 0.09098,0.152636 0.09001,0.164846 -1.53e-4,0.0019 -2.86e-4,0.0039 -1.15e-4,0.0058 1.71e-4,0.0019 6.45e-4,0.0038 0.0015,0.0056 0.0016,0.0035 0.0046,0.0062 0.0079,0.0083 0.0033,0.0021 0.0068,0.0037 0.01,0.0059 0.0032,0.0022 0.0058,0.0051 0.0083,0.0081 0.272565,0.333403 0.614155,0.615354 0.84848,0.813151 0.264638,0.208184 0.513933,0.394744 0.757543,0.566822 0.321975,0.227433 0.657134,0.446512 1.002457,0.651925 0.0037,0.0022 0.0075,0.0044 0.01129,0.0065 0.130387,0.0745 0.331085,0.173309 0.435806,0.212566 a 0.63001483,0.63001483 90 0 0 0.442298,-1.17985 c -0.02622,-0.0098 -0.09473,-0.05005 -0.246816,-0.135638 -0.316027,-0.187658 -0.623554,-0.385419 -0.92782,-0.591544 -0.23134,-0.156721 -0.470511,-0.324502 -0.721718,-0.507563 -0.268947,-0.19553 -0.53436,-0.378009 -0.746466,-0.591748 l 0.02755,0.03369 c -0.05282,-0.05579 -0.07108,-0.06295 -0.06706,-0.04575 0.0028,0.0119 0.01269,0.03624 0.02071,0.07649 0.0084,0.04209 0.01232,0.09478 0.0015,0.152552 -0.0047,0.02527 -0.0077,0.05086 -0.01285,0.07604 -0.0052,0.02518 -0.01566,0.04895 -0.02863,0.07115 -0.01511,0.02588 -0.03139,0.04307 -0.04277,0.05199 -0.0117,0.0092 -0.01561,0.0082 -0.01229,0.0034 0.0012,-0.0017 0.0033,-0.004 0.0062,-0.0068 0.01729,-0.01616 0.04236,-0.0319 0.09749,-0.06895 0.344464,-0.196063 0.695088,-0.330388 1.14495,-0.522321 0.631105,-0.267062 1.224502,-0.501433 1.80448,-0.843984 0.004,-0.0024 0.008,-0.0049 0.01198,-0.0074 0.111734,-0.06938 0.22717,-0.141683 0.340391,-0.230992 0.161507,-0.127397 0.273593,-0.255213 0.354472,-0.384039 a 0.50819689,0.50819689 90 0 0 -0.860808,-0.54043 z"
       id="path-1-49"
       style="fill:#000000;fill-rule:nonzero;stroke:none;stroke-width:1px;stroke-linecap:butt;stroke-linejoin:miter;stroke-opacity:1" />
    <path
       d="m 101.44913,90.590477 c -0.11031,0.01634 -0.19557,0.02389 -0.43196,0.0428 -0.14403,0.01152 -0.32783,0.02669 -0.51215,0.05949 -0.13416,0.02406 -0.26359,0.05838 -0.38703,0.106757 -0.120367,0.04717 -0.25986,0.117426 -0.393701,0.2252 -0.108958,0.08691 -0.184167,0.174736 -0.224057,0.224642 a 0.5,0.5 90 0 0 0.781138,0.62436 c 0.0132,-0.01658 0.0363,-0.04312 0.0683,-0.06869 0.037,-0.02981 0.0811,-0.05404 0.13321,-0.07446 0.0521,-0.02044 0.11689,-0.03885 0.198,-0.05339 0.13011,-0.02315 0.26905,-0.03533 0.41605,-0.04709 0.23606,-0.01889 0.35154,-0.02861 0.49869,-0.05041 a 0.5,0.5 90 0 0 -0.1465,-0.98921 z"
       id="path-1-2"
       style="fill:#000000;fill-rule:nonzero;stroke:none;stroke-width:1px;stroke-linecap:butt;stroke-linejoin:miter;stroke-opacity:1" />
    <path
       d="m 102.05174,92.275499 c -0.332,0.02247 -0.94074,0.07243 -1.45289,0.01095 -0.1153,-0.01391 -0.20685,-0.03077 -0.27295,-0.04468 a 0.5,0.5 90 0 0 -0.20602,0.978548 c 0.09,0.01894 0.21057,0.041 0.35948,0.05897 0.6277,0.07535 1.34739,0.01373 1.6399,-0.0061 a 0.5,0.5 90 0 0 -0.0675,-0.997718 z"
       id="path-1-06"
       style="fill:#000000;fill-rule:nonzero;stroke:none;stroke-width:1px;stroke-linecap:butt;stroke-linejoin:miter;stroke-opacity:1" />
    <path
       d="m 106.33779,86.843377 c -0.005,0.0017 -0.0215,0.0067 -0.0645,0.01365 -0.0343,0.0056 -0.0851,0.01173 -0.15786,0.02283 -0.0594,0.0091 -0.14869,0.02412 -0.24446,0.05276 -0.0901,0.02695 -0.19861,0.0694 -0.30922,0.141114 -0.012,0.0078 -0.0237,0.01598 -0.0352,0.02457 -0.11674,0.08772 -0.19921,0.188112 -0.25885,0.272974 -0.0474,0.06742 -0.0984,0.153528 -0.11605,0.181565 -0.005,0.0076 -0.009,0.0154 -0.0139,0.02324 -0.14557,0.255679 -0.24275,0.518612 -0.32009,0.765886 -0.0758,0.242378 -0.13398,0.471646 -0.19628,0.674761 -0.002,0.005 -0.003,0.01003 -0.004,0.01507 -0.11992,0.429452 -0.26858,0.910445 -0.33301,1.416687 -6.8e-4,0.0053 -0.001,0.01071 -0.002,0.01607 -0.0112,0.111489 -0.024,0.266604 -0.007,0.431891 0.009,0.08927 0.027,0.18524 0.0598,0.283349 0.0349,0.104179 0.0853,0.206744 0.15487,0.303023 0.004,0.0053 0.008,0.01058 0.0118,0.01577 0.0205,0.02656 0.0418,0.05156 0.0636,0.07507 0.0598,0.06435 0.12457,0.118524 0.19153,0.163968 0.0884,0.06 0.17832,0.103349 0.26314,0.135723 0.1588,0.06061 0.31607,0.08806 0.42317,0.105178 0.005,8.38e-4 0.0105,0.0016 0.0158,0.0023 0.48184,0.06439 1.01197,0.05925 1.4018,0.0758 0.25493,0.0095 0.51983,0.02051 0.79057,0.01188 0.29446,-0.0094 0.58594,-0.0418 0.87523,-0.118479 0.12815,-0.03261 0.23706,-0.06841 0.30231,-0.09091 a 0.62023581,0.62023581 90 0 0 -0.40444,-1.172692 c -0.046,0.01587 -0.12017,0.04018 -0.20986,0.06302 -0.17913,0.04745 -0.37227,0.07187 -0.60277,0.07922 -0.21942,0.007 -0.43835,-0.0018 -0.70174,-0.01153 -0.48405,-0.02056 -0.87292,-0.01134 -1.27886,-0.0648 -0.0906,-0.0147 -0.13828,-0.02627 -0.16885,-0.03793 -0.0131,-0.005 -0.0144,-0.0069 -0.009,-0.0032 0.005,0.0031 0.0122,0.009 0.0209,0.01836 0.003,0.0033 0.006,0.0069 0.009,0.01082 0.004,0.0052 0.008,0.01045 0.0118,0.01577 0.01,0.01324 0.0143,0.02459 0.0161,0.02983 0.001,0.0041 -4.9e-4,-1.1e-5 -0.002,-0.01476 -0.003,-0.03362 -0.002,-0.08325 0.007,-0.174164 0.0487,-0.38264 0.16175,-0.750545 0.29412,-1.224214 0.0732,-0.239566 0.13023,-0.463319 0.19193,-0.660618 0.0632,-0.202032 0.12758,-0.36775 0.20818,-0.511791 0.0372,-0.05949 0.0604,-0.09815 0.0729,-0.115929 0.0153,-0.02175 0.0115,-0.01137 -0.0109,0.0055 -0.0114,0.0086 -0.0232,0.01679 -0.0352,0.02457 -0.0124,0.0081 -0.0192,0.0092 -0.0102,0.0065 0.0124,-0.0037 0.0343,-0.0086 0.0762,-0.01496 0.0447,-0.0068 0.1043,-0.01407 0.16972,-0.0247 0.0843,-0.0137 0.16867,-0.03175 0.25521,-0.06039 a 0.62023581,0.62023581 90 0 0 -0.38974,-1.177658 z"
       id="path-1-89"
       style="fill:#000000;fill-rule:nonzero;stroke:none;stroke-width:1px;stroke-linecap:butt;stroke-linejoin:miter;stroke-opacity:1" />
    <path
       d="m 108.11856,87.631086 c -0.23423,0.746751 -0.45796,1.657179 -0.67332,3.012464 -0.14474,0.910893 -0.26741,1.92935 -0.42161,2.974681 -0.0842,0.561901 -0.1762,1.122371 -0.27925,1.67916 -2.1e-4,5e-4 -4.3e-4,0.001 -6.6e-4,0.0015 -0.009,0.02018 -0.0151,0.03277 -0.0352,0.07578 -0.0256,0.05476 -0.089,0.187683 -0.11686,0.349013 -0.0147,0.08521 -0.025,0.17318 -0.005,0.257351 0.0198,0.08417 0.0682,0.158354 0.11927,0.228107 0.0289,0.03949 0.0664,0.08263 0.11433,0.123739 0.0482,0.04129 0.10747,0.08088 0.17841,0.11138 0.0714,0.0307 0.14855,0.04951 0.22844,0.0544 0.0791,0.0048 0.15285,-0.0044 0.21829,-0.02182 0.1271,-0.03377 0.21973,-0.09681 0.27805,-0.14608 0.0599,-0.05061 0.10398,-0.103809 0.13506,-0.147321 0.0618,-0.08646 0.10374,-0.178796 0.13012,-0.262053 0.0141,-0.04441 0.0264,-0.09474 0.0339,-0.149315 0.004,-0.02603 0.007,-0.05691 0.007,-0.09151 0.004,-0.03634 0.006,-0.05888 0.007,-0.07076 0.002,-0.01927 0.002,-0.0098 -0.005,0.01078 a 0.63803863,0.63803863 90 0 0 -1.20906,-0.408124 c -0.0262,0.0776 -0.0422,0.155032 -0.0528,0.240274 -0.007,0.05378 -0.0101,0.09603 -0.0123,0.112199 -0.007,0.0564 -0.007,0.113568 4.7e-4,0.169929 -0.009,-0.06234 -0.004,-0.110396 -7.2e-4,-0.135873 0.004,-0.02741 0.009,-0.04844 0.0139,-0.06299 0.008,-0.0247 0.0211,-0.05658 0.048,-0.09434 0.0139,-0.01944 0.0393,-0.05153 0.0798,-0.08569 0.0389,-0.03283 0.11122,-0.08411 0.21779,-0.112427 0.0552,-0.01466 0.11854,-0.02279 0.18737,-0.01858 0.0695,0.0043 0.13635,0.02064 0.19754,0.04695 0.0607,0.02608 0.10978,0.05927 0.14797,0.09199 0.0379,0.0325 0.0655,0.06485 0.0848,0.09119 0.0511,0.06975 0.0995,0.143935 0.11927,0.228107 0.0198,0.08417 0.009,0.172146 -0.005,0.257351 -0.004,0.02579 -0.0117,0.03244 0.0155,-0.02577 0.011,-0.0236 0.0314,-0.06587 0.0493,-0.107104 0.0186,-0.04279 0.0427,-0.102459 0.0627,-0.172633 0.005,-0.0191 0.01,-0.03844 0.0136,-0.05796 0.10978,-0.58944 0.20699,-1.180443 0.29551,-1.771251 0.15816,-1.072243 0.27969,-2.08118 0.41967,-2.962067 0.20709,-1.303302 0.41773,-2.152037 0.63063,-2.83082 a 0.63803863,0.63803863 90 0 0 -1.21758,-0.381902 z"
       id="path-1-26"
       style="fill:#000000;fill-rule:nonzero;stroke:none;stroke-width:1px;stroke-linecap:butt;stroke-linejoin:miter;stroke-opacity:1" />
    <path
       d="m 54.388046,125.06026 c -0.12303,-0.0202 -0.303336,-0.0334 -0.511648,0.006 -0.152112,0.0286 -0.324177,0.0864 -0.490038,0.19324 -0.162656,0.10235 -0.306345,0.24326 -0.420351,0.41177 -0.10536,0.15573 -0.183909,0.33302 -0.230017,0.52035 -0.03046,0.12974 -0.05418,0.27679 -0.05108,0.43319 2.8e-4,0.0141 0.0013,0.0282 0.0031,0.0422 0.0093,0.0734 0.03098,0.13926 0.05898,0.19673 0.02832,0.0581 0.06269,0.10683 0.09655,0.14667 0.06921,0.0814 0.147797,0.13907 0.203447,0.17578 0.08185,0.0522 0.161447,0.0919 0.24209,0.12182 0.02343,0.009 0.04668,0.0165 0.06973,0.0234 0.07109,0.0213 0.144696,0.0361 0.220514,0.0426 l -0.01722,-7.9e-4 c 0.111188,0.0141 0.23289,0.0253 0.359415,0.0212 0.137902,-0.004 0.285082,-0.0273 0.431569,-0.0864 0.112742,-0.0424 0.22314,-0.11217 0.3127,-0.20998 0.04628,-0.0506 0.08816,-0.10992 0.121078,-0.17799 0.035,-0.0724 0.05718,-0.14927 0.06625,-0.22778 0.01429,-0.1014 0.0037,-0.20572 -0.02096,-0.29676 -0.02554,-0.0942 -0.06807,-0.1816 -0.122928,-0.25837 -0.05307,-0.0743 -0.12203,-0.14464 -0.20677,-0.20198 -0.07814,-0.0529 -0.17468,-0.0979 -0.287261,-0.11924 -0.04859,-0.009 -0.10078,-0.0132 -0.153463,-0.0119 -0.02336,6.2e-4 -0.04649,0.002 -0.06932,0.005 -0.06855,0.008 -0.133786,0.0258 -0.194115,0.0496 -0.110268,0.0436 -0.20899,0.11015 -0.289669,0.18823 l 0.0086,-0.009 c -0.06032,0.0543 -0.134107,0.13469 -0.188393,0.24257 -0.0269,0.0535 -0.05093,0.11754 -0.06397,0.19106 -0.01297,0.0731 -0.0147,0.15375 0.0012,0.23818 0.01824,0.0903 0.05027,0.16704 0.09133,0.23407 0.04029,0.0658 0.08781,0.12001 0.136512,0.16448 0.09465,0.0864 0.200486,0.14191 0.293216,0.17579 0.06534,0.0235 0.132566,0.04 0.199935,0.0497 0.11901,0.0172 0.239291,0.0137 0.354447,-0.009 0.09336,-0.0185 0.185513,-0.0501 0.272539,-0.0958 0.08837,-0.0463 0.171863,-0.10735 0.245159,-0.18369 0.144016,-0.15156 0.229247,-0.34429 0.260024,-0.53788 0.0017,-0.0108 0.0037,-0.0216 0.0052,-0.0324 0.0016,-0.0108 0.0024,-0.0217 0.0028,-0.0327 0.0021,-0.054 -0.004,-0.11144 -0.02121,-0.16936 -0.01699,-0.057 -0.04305,-0.10845 -0.07524,-0.1531 -0.03107,-0.0431 -0.06612,-0.0774 -0.09992,-0.10387 -0.03292,-0.0258 -0.06547,-0.0448 -0.09461,-0.0589 -0.05523,-0.0268 -0.106841,-0.04 -0.146253,-0.047 -0.03869,-0.007 -0.07492,-0.009 -0.106859,-0.009 -0.107537,-0.002 -0.206496,0.0129 -0.295846,0.034 -0.08068,0.019 -0.155164,0.0435 -0.218817,0.065 -0.0033,0.001 -0.0066,0.002 -0.0099,0.003 -0.0708,0.0248 -0.144017,0.0533 -0.218133,0.086 -0.175167,0.0773 -0.379088,0.18899 -0.569077,0.3531 -0.07258,0.0647 -0.15724,0.14949 -0.228911,0.25706 -0.03447,0.0517 -0.06788,0.11161 -0.09499,0.17945 -0.02631,0.0659 -0.04685,0.13973 -0.05621,0.22069 -0.0087,0.0902 -0.0047,0.18028 0.01655,0.27155 0.02021,0.0866 0.05743,0.17991 0.120067,0.26716 0.0076,0.0105 0.01555,0.0208 0.02405,0.0306 0.05167,0.0598 0.111369,0.10533 0.173392,0.13863 0.05996,0.0322 0.119216,0.0516 0.173422,0.0634 0.102108,0.0222 0.196794,0.0193 0.264286,0.0129 0.265877,-0.0301 0.494195,-0.13543 0.685165,-0.26521 0.07807,-0.0551 0.160684,-0.12084 0.236677,-0.20391 0.07511,-0.0821 0.149607,-0.18755 0.198252,-0.31924 0.0369,-0.10174 0.05346,-0.21495 0.04085,-0.33047 -0.0063,-0.058 -0.02031,-0.11897 -0.04478,-0.17975 -0.02444,-0.0607 -0.05931,-0.12102 -0.106675,-0.17652 -0.0056,-0.007 -0.01148,-0.013 -0.0175,-0.0193 -0.05072,-0.0526 -0.106222,-0.0925 -0.161441,-0.12269 -0.05436,-0.0297 -0.107765,-0.0495 -0.155703,-0.0632 -0.09183,-0.0263 -0.179059,-0.0339 -0.233673,-0.0379 -0.0041,-2.9e-4 -0.0082,-5.2e-4 -0.01229,-6.9e-4 -0.156452,-0.007 -0.305399,0.007 -0.442455,0.027 -0.130905,0.0194 -0.25912,0.0464 -0.372254,0.0701 -0.0079,0.001 -0.01451,0.003 -0.01943,0.004 -0.01,0.002 -0.01984,0.004 -0.0293,0.007 -0.0095,0.002 -0.02003,0.005 -0.03116,0.009 -0.01051,0.003 -0.02514,0.008 -0.04156,0.0144 -0.0083,0.003 -0.01939,0.008 -0.03196,0.0138 -0.01162,0.006 -0.03063,0.0151 -0.05245,0.0293 -0.01121,0.007 -0.02605,0.0177 -0.04242,0.0314 -0.01581,0.0132 -0.03818,0.0339 -0.06098,0.0626 -0.02229,0.0281 -0.05269,0.0735 -0.07277,0.13613 -0.02134,0.0666 -0.02945,0.14877 -0.0073,0.23606 0.0106,0.0418 0.02684,0.0794 0.04614,0.1122 0.01912,0.0325 0.04049,0.059 0.06095,0.0802 0.03975,0.0412 0.0799,0.0663 0.107101,0.0809 0.05175,0.0276 0.09738,0.0383 0.116427,0.0423 0.02345,0.005 0.04328,0.007 0.05604,0.008 0.01363,0.001 0.02578,0.002 0.03549,0.002 0.01281,3.2e-4 0.02562,1e-5 0.0384,-8.2e-4 0.186711,-0.0121 0.364059,-0.0469 0.525097,-0.0869 0.0037,-9.1e-4 0.0073,-0.002 0.01098,-0.003 0.04683,-0.0129 0.117195,-0.0318 0.187596,-0.0579 0.07325,-0.0272 0.159843,-0.0666 0.244875,-0.12867 0.03257,-0.0228 0.06782,-0.0552 0.09841,-0.0917 0.03062,-0.0365 0.06072,-0.0821 0.08358,-0.13695 0.02308,-0.0554 0.04085,-0.12537 0.03879,-0.20561 -0.0019,-0.0745 -0.02085,-0.14926 -0.05766,-0.21812 -0.02681,-0.0521 -0.06129,-0.0975 -0.100477,-0.13556 -0.04303,-0.0418 -0.09088,-0.0739 -0.139798,-0.0974 -0.09762,-0.0469 -0.205681,-0.0624 -0.309146,-0.048 -0.105037,0.0125 -0.200482,0.0481 -0.273308,0.082 -0.07162,0.0333 -0.137276,0.0729 -0.177716,0.0969 -0.0034,0.002 -0.0068,0.004 -0.01018,0.006 -0.237986,0.15125 -0.446783,0.32902 -0.626622,0.51521 -0.003,0.003 -0.006,0.006 -0.0089,0.01 -0.02458,0.0268 -0.06826,0.0732 -0.10769,0.12248 -0.0438,0.0548 -0.09234,0.12469 -0.130288,0.21232 -0.01832,0.0409 -0.03169,0.0895 -0.0375,0.13926 -0.0059,0.0502 -0.0036,0.0982 0.0041,0.14238 0.01554,0.089 0.05264,0.15984 0.08926,0.21077 0.03793,0.0528 0.08221,0.094 0.125694,0.12511 0.04485,0.0321 0.09739,0.0595 0.156157,0.0776 0.01081,0.003 0.02176,0.006 0.0328,0.009 0.07183,0.0161 0.139001,0.0169 0.197615,0.0102 0.05977,-0.007 0.110757,-0.0216 0.150105,-0.036 0.07541,-0.0275 0.143305,-0.0679 0.160734,-0.0778 0.0031,-0.002 0.0062,-0.004 0.0093,-0.005 0.100187,-0.0606 0.193905,-0.13441 0.246984,-0.1752 0.07683,-0.059 0.117881,-0.0885 0.158701,-0.11191 a 0.43839196,0.43839196 90 0 0 -0.435414,-0.76102 c -0.09765,0.0559 -0.180188,0.11841 -0.258142,0.1786 -0.06533,0.0504 -0.114981,0.0891 -0.163193,0.11889 -0.02954,0.017 -0.02869,0.0158 -0.02016,0.0127 0.0073,-0.003 0.02467,-0.008 0.04969,-0.011 0.02519,-0.003 0.05758,-0.003 0.09369,0.005 0.01103,0.002 0.02199,0.005 0.0328,0.009 0.03842,0.0119 0.06987,0.0288 0.09508,0.0469 0.02447,0.0176 0.05108,0.0419 0.07511,0.0754 0.02312,0.0322 0.05022,0.082 0.06183,0.14867 0.0058,0.0333 0.0075,0.07 0.003,0.10875 -0.0045,0.0385 -0.01483,0.0756 -0.03026,0.11012 -7.82e-4,0.001 1.65e-4,-0.004 0.01349,-0.0208 0.01545,-0.0199 0.03197,-0.0378 0.0664,-0.0761 0.132138,-0.13784 0.286839,-0.26977 0.457604,-0.37967 0.0437,-0.0264 0.06912,-0.0414 0.09262,-0.0526 0.02044,-0.01 0.02635,-0.01 0.01931,-0.009 -0.0527,0.007 -0.116403,-0.002 -0.175308,-0.0301 -0.0298,-0.0143 -0.05993,-0.0345 -0.08761,-0.0614 -0.02247,-0.0219 -0.04274,-0.0477 -0.05928,-0.0771 -0.02754,-0.0517 -0.04206,-0.10859 -0.0435,-0.16524 -0.0015,-0.0605 0.01193,-0.1107 0.02718,-0.14719 0.01507,-0.0361 0.03391,-0.0638 0.05113,-0.0843 0.01726,-0.0205 0.03707,-0.0387 0.05943,-0.0544 -0.0069,0.005 -0.01629,0.0119 -0.04308,0.0221 -0.02829,0.0108 -0.06039,0.02 -0.112871,0.0348 -0.13061,0.0327 -0.251882,0.0554 -0.367528,0.0634 l 0.0384,-8.2e-4 c 0.0035,1e-4 0.01035,3.6e-4 0.01948,0.001 0.0083,7.4e-4 0.02445,0.002 0.04499,0.007 0.01614,0.003 0.0596,0.0133 0.109861,0.0402 0.02645,0.0141 0.06602,0.0389 0.105349,0.0796 0.02025,0.021 0.04145,0.0473 0.06043,0.0795 0.01917,0.0326 0.03531,0.0699 0.04585,0.11151 0.02199,0.0868 0.01391,0.1685 -0.0073,0.23458 -0.01991,0.0621 -0.05001,0.10704 -0.07188,0.13456 -0.02237,0.0282 -0.04419,0.0482 -0.05933,0.0609 -0.0157,0.0131 -0.02974,0.0229 -0.04007,0.0297 -0.02004,0.013 -0.03683,0.0214 -0.04589,0.0257 -0.01001,0.005 -0.01815,0.008 -0.02332,0.0101 -0.01012,0.004 -0.01724,0.006 -0.01996,0.007 -0.0033,9.9e-4 -0.0056,0.002 -0.007,0.002 -0.0014,3.3e-4 -0.0035,8.2e-4 -0.0064,0.001 -0.0016,3.3e-4 -0.0098,0.002 -0.02164,0.004 l 0.02966,-0.005 c 0.121507,-0.0257 0.227085,-0.0481 0.33173,-0.0637 0.10097,-0.0151 0.191105,-0.0222 0.27513,-0.0192 0.03442,0.003 0.05482,0.007 0.05409,0.007 -3.92e-4,-1.3e-4 -0.0071,-0.002 -0.01869,-0.008 -0.01205,-0.007 -0.02768,-0.0173 -0.04324,-0.0335 -0.006,-0.006 -0.01187,-0.0127 -0.0175,-0.0193 -0.01681,-0.0197 -0.02822,-0.04 -0.03557,-0.0583 -0.0073,-0.0181 -0.01053,-0.0339 -0.01186,-0.0461 -0.0025,-0.0228 7.83e-4,-0.0405 0.006,-0.0549 -7.11e-4,0.002 -0.0067,0.0149 -0.0268,0.0367 -0.02102,0.0229 -0.05147,0.0489 -0.09334,0.0783 -0.102796,0.0694 -0.202804,0.10746 -0.287079,0.11657 -0.01244,8.4e-4 -0.0098,-0.002 0.0062,0.001 0.01034,0.002 0.0278,0.007 0.04962,0.0186 0.0231,0.0123 0.04775,0.0306 0.0696,0.0557 0.0085,0.01 0.01636,0.0202 0.02405,0.0307 0.01284,0.0175 0.01779,0.0321 0.01968,0.0389 0.0019,0.007 0.0024,0.0119 0.0025,0.0141 -9.2e-4,0.0105 -0.0013,0.0113 1.14e-4,0.008 0.0016,-0.003 0.005,-0.01 0.01211,-0.0198 0.01624,-0.0229 0.04261,-0.0511 0.0806,-0.0835 0.10255,-0.0861 0.225877,-0.15351 0.347708,-0.20449 0.0506,-0.0212 0.102006,-0.0399 0.153413,-0.0565 l -0.0099,0.003 c 0.06043,-0.0172 0.102774,-0.0276 0.139161,-0.0331 0.03834,-0.006 0.06068,-0.004 0.07316,-0.001 -0.01354,6.9e-4 -0.02824,8.1e-4 -0.0462,-0.002 -0.01776,-0.002 -0.04785,-0.009 -0.08484,-0.0259 -0.01964,-0.009 -0.04343,-0.0227 -0.06861,-0.0421 -0.0259,-0.02 -0.05408,-0.0471 -0.07957,-0.0822 -0.02651,-0.0365 -0.04822,-0.0789 -0.06242,-0.12611 -0.01442,-0.0479 -0.01923,-0.0944 -0.01781,-0.13652 3.73e-4,-0.0111 -5.33e-4,-0.0222 -3.89e-4,-0.0332 7.2e-5,-0.006 6.52e-4,-0.0111 0.0021,-0.0164 0.0015,-0.005 0.0038,-0.0104 0.0063,-0.0153 -0.01228,0.0243 -0.02885,0.037 -0.03151,0.0318 9.4e-4,-0.003 0.0029,-0.004 0.002,-0.005 -8.08e-4,-3.9e-4 -0.0044,6.3e-4 -0.01016,0.001 -0.0078,0.001 -0.01677,0.001 -0.02636,2.2e-4 -0.0052,-6e-4 -0.0091,-0.001 -0.01239,-0.002 -0.0018,7.7e-4 1.25e-4,0.002 0.01732,0.0208 0.0084,0.009 0.02092,0.0248 0.03285,0.0468 0.01246,0.023 0.02327,0.0513 0.02829,0.0835 0.0066,0.0413 0.0043,0.0745 -0.002,0.10183 -0.0063,0.0271 -0.01574,0.0457 -0.02345,0.0571 -0.01739,0.0257 -0.02247,0.0162 -0.02246,0.0139 6e-6,-0.001 1.7e-5,-0.002 2.72e-4,-0.004 2.54e-4,-0.001 7.69e-4,-0.002 0.0016,-0.003 8.21e-4,-9e-4 0.0019,-0.002 0.0031,-0.002 0.0012,-2.6e-4 0.0024,-1.7e-4 0.0036,-5e-5 -0.008,-7.8e-4 -0.0039,-0.002 -0.023,0.004 -0.0086,0.003 -0.02121,0.006 -0.03795,0.009 -0.0056,7.8e-4 -0.01155,0.001 -0.01788,0.002 -0.01446,8.3e-4 -0.02953,4.6e-4 -0.04516,-0.001 -0.02476,-0.003 -0.04767,-0.0111 -0.06423,-0.0186 -0.01732,-0.008 -0.03218,-0.0169 -0.04231,-0.0246 -0.01102,-0.008 -0.02152,-0.0187 -0.02928,-0.0336 -0.0077,-0.0149 -0.01362,-0.0357 -0.0115,-0.064 -5.74e-4,-0.0131 0.0048,-0.0341 0.01314,-0.0512 0.0078,-0.016 0.0171,-0.0266 0.02519,-0.0327 0.01625,-0.0123 0.02689,-0.008 0.03517,-0.002 -0.02508,0.0213 -0.06179,0.0427 -0.1231,0.0586 -0.05689,0.0147 -0.127092,0.0227 -0.215021,0.0237 -0.0015,2e-5 -0.003,-5e-5 -0.0044,-3.8e-4 -0.0014,-3.3e-4 -0.0028,-8.8e-4 -0.0042,-0.001 -0.0014,-4.4e-4 -0.0029,-7.3e-4 -0.0044,-5.8e-4 -0.0015,1.6e-4 -0.0029,7.9e-4 -0.0042,0.001 -0.0082,0.004 -0.01989,0.007 -0.03544,0.006 -0.005,-4.2e-4 -0.01054,-0.001 -0.01656,-0.002 -0.02078,-0.004 -0.04698,-0.0139 -0.07712,-0.0309 -0.01553,-0.008 -0.02843,-0.0204 -0.02491,-0.0155 0.0013,0.002 0.0071,0.009 0.01312,0.0218 0.0063,0.013 0.01241,0.0307 0.01512,0.0519 0.0018,0.014 0.0028,0.0281 0.0031,0.0422 -0.0012,-0.0654 0.01001,-0.14033 0.03246,-0.22647 0.0245,-0.0953 0.06599,-0.1847 0.11818,-0.25974 0.05566,-0.08 0.121262,-0.14033 0.188383,-0.18117 0.06764,-0.0419 0.138246,-0.0654 0.20638,-0.0771 0.09339,-0.0161 0.175793,-0.009 0.232882,2e-5 a 0.40768128,0.40768128 90 0 0 0.13231,-0.80456 z"
       id="path-1-64"
       style="fill:#000000;fill-rule:nonzero;stroke:none;stroke-width:1px;stroke-linecap:butt;stroke-linejoin:miter;stroke-opacity:1" />
  </g>
</svg>
