<?xml version="1.0" encoding="UTF-8"?>
<!-- Created with Inkscape (http://www.inkscape.org/) -->
<svg width="285.71" height="217.58" inkscape:version="1.1 (c4e8f9ed74, 2021-05-24)" sodipodi:docname="plane.svg" version="1.1" viewBox="0 0 75.595 57.567" xmlns="http://www.w3.org/2000/svg" xmlns:inkscape="http://www.inkscape.org/namespaces/inkscape" xmlns:sodipodi="http://sodipodi.sourceforge.net/DTD/sodipodi-0.dtd" xmlns:xlink="http://www.w3.org/1999/xlink">
 <sodipodi:namedview bordercolor="#666666" borderopacity="1.0" fit-margin-bottom="0" fit-margin-left="0" fit-margin-right="0" fit-margin-top="0" inkscape:current-layer="layer1" inkscape:cx="99.320303" inkscape:cy="178.62256" inkscape:document-units="px" inkscape:pagecheckerboard="0" inkscape:pageopacity="0.0" inkscape:pageshadow="2" inkscape:window-height="1170" inkscape:window-maximized="1" inkscape:window-width="1920" inkscape:window-x="0" inkscape:window-y="30" inkscape:zoom="1.2988281" pagecolor="#ffffff" showgrid="false"/>
 <defs>
  <marker id="Arrow1Lend" overflow="visible" inkscape:isstock="true" inkscape:stockid="Arrow1Lend" orient="auto">
   <path transform="matrix(-.8 0 0 -.8 -10 0)" d="m0 0 5-5-17.5 5 17.5 5z" fill="context-stroke" fill-rule="evenodd" stroke="context-stroke" stroke-width="1pt"/>
  </marker>
  <symbol id="symbol3242" overflow="visible">
   <path d="m5.3594-5.9375c-0.14062 0.14062-0.46875 0.42188-0.46875 0.59375 0 0.09375 0.09375 0.20312 0.1875 0.20312s0.14062-0.078125 0.20312-0.14062c0.10938-0.14062 0.34375-0.42188 0.78125-0.64062 0.0625-0.046875 0.17188-0.09375 0.17188-0.20312s-0.078125-0.15625-0.14062-0.20312c-0.21875-0.15625-0.32812-0.32812-0.40625-0.5625-0.03125-0.09375-0.0625-0.23438-0.20312-0.23438s-0.20312 0.14062-0.20312 0.21875c0 0.046875 0.078125 0.35938 0.23438 0.57812h-3.3594c-0.15625 0-0.34375 0-0.34375 0.20312 0 0.1875 0.1875 0.1875 0.34375 0.1875z"/>
  </symbol>
  <symbol id="symbol2899" overflow="visible">
   <path d="m0.875-0.59375c-0.03125 0.15625-0.09375 0.39062-0.09375 0.4375 0 0.17188 0.14062 0.26562 0.29688 0.26562 0.125 0 0.29688-0.078125 0.375-0.28125 0-0.015625 0.125-0.48438 0.1875-0.73438l0.21875-0.89062c0.046875-0.23438 0.10938-0.45312 0.17188-0.67188 0.03125-0.17188 0.10938-0.46875 0.125-0.5 0.14062-0.3125 0.67188-1.2188 1.625-1.2188 0.45312 0 0.53125 0.375 0.53125 0.70312 0 0.60938-0.48438 1.8906-0.64062 2.3125-0.09375 0.23438-0.10938 0.35938-0.10938 0.46875 0 0.46875 0.35938 0.8125 0.82812 0.8125 0.9375 0 1.2969-1.4531 1.2969-1.5312 0-0.10938-0.078125-0.10938-0.10938-0.10938-0.10938 0-0.10938 0.03125-0.15625 0.1875-0.20312 0.67188-0.53125 1.2344-1.0156 1.2344-0.17188 0-0.23438-0.09375-0.23438-0.32812 0-0.25 0.078125-0.48438 0.17188-0.70312 0.1875-0.53125 0.60938-1.625 0.60938-2.2031 0-0.65625-0.42188-1.0625-1.1406-1.0625-0.90625 0-1.3906 0.64062-1.5625 0.875-0.046875-0.5625-0.45312-0.875-0.92188-0.875-0.45312 0-0.64062 0.39062-0.73438 0.5625-0.17188 0.34375-0.29688 0.9375-0.29688 0.96875 0 0.10938 0.09375 0.10938 0.10938 0.10938 0.10938 0 0.10938-0.015625 0.17188-0.23438 0.17188-0.70312 0.375-1.1875 0.73438-1.1875 0.1875 0 0.29688 0.125 0.29688 0.45312 0 0.21875-0.03125 0.32812-0.15625 0.84375z"/>
  </symbol>
  <symbol id="symbol5516" overflow="visible">
   <path d="m3.7188-3.7656c-0.1875-0.375-0.46875-0.64062-0.92188-0.64062-1.1562 0-2.3906 1.4688-2.3906 2.9219 0 0.9375 0.54688 1.5938 1.3125 1.5938 0.20312 0 0.70312-0.046875 1.2969-0.75 0.078125 0.42188 0.4375 0.75 0.90625 0.75 0.35938 0 0.57812-0.23438 0.75-0.54688 0.15625-0.35938 0.29688-0.96875 0.29688-0.98438 0-0.10938-0.09375-0.10938-0.125-0.10938-0.09375 0-0.10938 0.046875-0.14062 0.1875-0.17188 0.64062-0.34375 1.2344-0.75 1.2344-0.28125 0-0.29688-0.26562-0.29688-0.45312 0-0.21875 0.015625-0.3125 0.125-0.75 0.10938-0.40625 0.125-0.51562 0.21875-0.89062l0.35938-1.3906c0.0625-0.28125 0.0625-0.29688 0.0625-0.34375 0-0.17188-0.10938-0.26562-0.28125-0.26562-0.25 0-0.39062 0.21875-0.42188 0.4375zm-0.64062 2.5781c-0.0625 0.1875-0.0625 0.20312-0.20312 0.375-0.4375 0.54688-0.84375 0.70312-1.125 0.70312-0.5 0-0.64062-0.54688-0.64062-0.9375 0-0.5 0.3125-1.7188 0.54688-2.1875 0.3125-0.57812 0.75-0.95312 1.1562-0.95312 0.64062 0 0.78125 0.8125 0.78125 0.875s-0.015625 0.125-0.03125 0.17188z"/>
  </symbol>
  <symbol id="symbol1168" overflow="visible">
   <path d="m2.0312-0.015625c0-0.65625-0.25-1.0469-0.64062-1.0469-0.32812 0-0.53125 0.25-0.53125 0.53125 0 0.26562 0.20312 0.53125 0.53125 0.53125 0.10938 0 0.25-0.046875 0.34375-0.125 0.03125-0.03125 0.046875-0.03125 0.046875-0.03125 0.015625 0 0.015625 0 0.015625 0.14062 0 0.75-0.34375 1.3438-0.67188 1.6719-0.10938 0.10938-0.10938 0.125-0.10938 0.15625 0 0.078125 0.046875 0.10938 0.09375 0.10938 0.10938 0 0.92188-0.76562 0.92188-1.9375z"/>
  </symbol>
  <symbol id="symbol5341" overflow="visible">
   <path d="m2.375-6.8125s0-0.10938-0.125-0.10938c-0.21875 0-0.95312 0.078125-1.2188 0.10938-0.078125 0-0.1875 0.015625-0.1875 0.1875 0 0.125 0.09375 0.125 0.25 0.125 0.46875 0 0.48438 0.0625 0.48438 0.17188 0 0.0625-0.078125 0.40625-0.125 0.60938l-0.82812 3.25c-0.10938 0.5-0.15625 0.67188-0.15625 1.0156 0 0.9375 0.53125 1.5625 1.2656 1.5625 1.1719 0 2.4062-1.4844 2.4062-2.9219 0-0.90625-0.53125-1.5938-1.3281-1.5938-0.45312 0-0.875 0.29688-1.1719 0.59375zm-0.92188 3.7656c0.046875-0.21875 0.046875-0.23438 0.14062-0.34375 0.48438-0.64062 0.9375-0.79688 1.2031-0.79688 0.35938 0 0.625 0.29688 0.625 0.9375 0 0.59375-0.32812 1.7344-0.51562 2.1094-0.32812 0.67188-0.78125 1.0312-1.1719 1.0312-0.34375 0-0.67188-0.26562-0.67188-1 0-0.20312 0-0.39062 0.15625-1.0156z"/>
  </symbol>
  <symbol id="symbol6386" overflow="visible">
   <path d="m3.9531-3.7812c-0.17188 0-0.29688 0-0.4375 0.125-0.17188 0.15625-0.1875 0.32812-0.1875 0.39062 0 0.25 0.1875 0.35938 0.375 0.35938 0.28125 0 0.54688-0.25 0.54688-0.64062 0-0.48438-0.46875-0.85938-1.1719-0.85938-1.3438 0-2.6719 1.4219-2.6719 2.8281 0 0.90625 0.57812 1.6875 1.625 1.6875 1.4219 0 2.25-1.0625 2.25-1.1719 0-0.0625-0.046875-0.14062-0.10938-0.14062s-0.078125 0.03125-0.14062 0.10938c-0.78125 0.98438-1.875 0.98438-1.9844 0.98438-0.625 0-0.90625-0.48438-0.90625-1.0938 0-0.40625 0.20312-1.375 0.54688-1.9844 0.3125-0.57812 0.85938-1 1.4062-1 0.32812 0 0.71875 0.125 0.85938 0.40625z"/>
  </symbol>
  <symbol id="symbol2461" overflow="visible">
   <path d="m6.8438-3.2656c0.15625 0 0.34375 0 0.34375-0.1875 0-0.20312-0.1875-0.20312-0.32812-0.20312h-5.9688c-0.14062 0-0.32812 0-0.32812 0.20312 0 0.1875 0.1875 0.1875 0.32812 0.1875zm0.015625 1.9375c0.14062 0 0.32812 0 0.32812-0.20312 0-0.1875-0.1875-0.1875-0.34375-0.1875h-5.9531c-0.14062 0-0.32812 0-0.32812 0.1875 0 0.20312 0.1875 0.20312 0.32812 0.20312z"/>
  </symbol>
  <symbol id="symbol8431" overflow="visible">
   <path d="m3.2969 2.3906c0-0.03125 0-0.046875-0.17188-0.21875-1.2344-1.25-1.5625-3.1406-1.5625-4.6719 0-1.7344 0.375-3.4688 1.6094-4.7031 0.125-0.125 0.125-0.14062 0.125-0.17188 0-0.078125-0.03125-0.10938-0.09375-0.10938-0.10938 0-1 0.6875-1.5938 1.9531-0.5 1.0938-0.625 2.2031-0.625 3.0312 0 0.78125 0.10938 1.9844 0.65625 3.125 0.60938 1.2188 1.4531 1.875 1.5625 1.875 0.0625 0 0.09375-0.03125 0.09375-0.10938z"/>
  </symbol>
  <symbol id="symbol2441" overflow="visible">
   <path d="m2.875-2.5c0-0.76562-0.10938-1.9688-0.65625-3.1094-0.59375-1.2188-1.4531-1.875-1.5469-1.875-0.0625 0-0.10938 0.046875-0.10938 0.10938 0 0.03125 0 0.046875 0.1875 0.23438 0.98438 0.98438 1.5469 2.5625 1.5469 4.6406 0 1.7188-0.35938 3.4688-1.5938 4.7188-0.14062 0.125-0.14062 0.14062-0.14062 0.17188 0 0.0625 0.046875 0.10938 0.10938 0.10938 0.09375 0 1-0.6875 1.5781-1.9531 0.51562-1.0938 0.625-2.2031 0.625-3.0469z"/>
  </symbol>
  <symbol id="symbol3794" overflow="visible">
   <path d="m3.0156-3.1562h1.7031c1.4062 0 2.7969-1.0312 2.7969-2.1406 0-0.78125-0.65625-1.5156-1.9688-1.5156h-3.2188c-0.1875 0-0.29688 0-0.29688 0.1875 0 0.125 0.078125 0.125 0.28125 0.125 0.125 0 0.3125 0.015625 0.42188 0.015625 0.17188 0.03125 0.21875 0.046875 0.21875 0.17188 0 0.03125 0 0.0625-0.03125 0.1875l-1.3438 5.3438c-0.09375 0.39062-0.10938 0.46875-0.90625 0.46875-0.15625 0-0.26562 0-0.26562 0.1875 0 0.125 0.10938 0.125 0.14062 0.125 0.28125 0 0.98438-0.03125 1.2656-0.03125 0.21875 0 0.4375 0.015625 0.64062 0.015625 0.21875 0 0.4375 0.015625 0.64062 0.015625 0.078125 0 0.20312 0 0.20312-0.20312 0-0.10938-0.09375-0.10938-0.28125-0.10938-0.35938 0-0.64062 0-0.64062-0.17188 0-0.0625 0.015625-0.10938 0.03125-0.17188zm0.71875-2.9688c0.09375-0.34375 0.10938-0.375 0.54688-0.375h0.95312c0.82812 0 1.3594 0.26562 1.3594 0.95312 0 0.39062-0.20312 1.25-0.59375 1.6094-0.5 0.45312-1.0938 0.53125-1.5312 0.53125h-1.4062z"/>
  </symbol>
  <symbol id="symbol438" overflow="visible">
   <path d="m2.2969-3.5c0.0625-0.20312 0.15625-0.59375 0.15625-0.64062 0-0.17188-0.125-0.26562-0.29688-0.26562-0.015625 0-0.29688 0.015625-0.39062 0.35938l-1.4375 5.7656c-0.03125 0.125-0.03125 0.14062-0.03125 0.17188 0 0.14062 0.10938 0.26562 0.28125 0.26562 0.20312 0 0.32812-0.1875 0.34375-0.21875 0.046875-0.078125 0.17188-0.60938 0.54688-2.1406 0.32812 0.26562 0.78125 0.3125 0.96875 0.3125 0.70312 0 1.0938-0.45312 1.3281-0.73438 0.09375 0.45312 0.46875 0.73438 0.90625 0.73438 0.34375 0 0.57812-0.23438 0.73438-0.54688 0.17188-0.35938 0.29688-0.96875 0.29688-0.98438 0-0.10938-0.09375-0.10938-0.125-0.10938-0.09375 0-0.10938 0.046875-0.14062 0.1875-0.15625 0.64062-0.34375 1.2344-0.75 1.2344-0.26562 0-0.29688-0.26562-0.29688-0.45312 0-0.21875 0.10938-0.6875 0.1875-1.0469l0.28125-1.0781c0.03125-0.14062 0.14062-0.51562 0.17188-0.67188 0.046875-0.23438 0.15625-0.60938 0.15625-0.67188 0-0.17188-0.14062-0.26562-0.29688-0.26562-0.046875 0-0.3125 0.015625-0.39062 0.34375l-0.46875 1.875c-0.10938 0.5-0.21875 0.90625-0.25 1.0156-0.015625 0.046875-0.48438 0.95312-1.2969 0.95312-0.5 0-0.73438-0.32812-0.73438-0.875 0-0.28125 0.0625-0.5625 0.14062-0.84375z"/>
  </symbol>
  <symbol id="symbol6838" overflow="visible">
   <path d="m3.3281-3.0156c0.0625-0.25 0.29688-1.1719 0.98438-1.1719 0.046875 0 0.29688 0 0.5 0.125-0.28125 0.0625-0.46875 0.29688-0.46875 0.54688 0 0.15625 0.10938 0.34375 0.375 0.34375 0.21875 0 0.53125-0.17188 0.53125-0.57812 0-0.51562-0.57812-0.65625-0.92188-0.65625-0.57812 0-0.92188 0.53125-1.0469 0.75-0.25-0.65625-0.78125-0.75-1.0781-0.75-1.0312 0-1.6094 1.2812-1.6094 1.5312 0 0.10938 0.10938 0.10938 0.125 0.10938 0.078125 0 0.10938-0.03125 0.125-0.10938 0.34375-1.0625 1-1.3125 1.3438-1.3125 0.1875 0 0.53125 0.09375 0.53125 0.67188 0 0.3125-0.17188 0.96875-0.53125 2.375-0.15625 0.60938-0.51562 1.0312-0.95312 1.0312-0.0625 0-0.28125 0-0.5-0.125 0.25-0.0625 0.46875-0.26562 0.46875-0.54688 0-0.26562-0.21875-0.34375-0.35938-0.34375-0.3125 0-0.54688 0.25-0.54688 0.57812 0 0.45312 0.48438 0.65625 0.92188 0.65625 0.67188 0 1.0312-0.70312 1.0469-0.75 0.125 0.35938 0.48438 0.75 1.0781 0.75 1.0312 0 1.5938-1.2812 1.5938-1.5312 0-0.10938-0.078125-0.10938-0.10938-0.10938-0.09375 0-0.10938 0.046875-0.14062 0.10938-0.32812 1.0781-1 1.3125-1.3125 1.3125-0.39062 0-0.54688-0.3125-0.54688-0.65625 0-0.21875 0.046875-0.4375 0.15625-0.875z"/>
  </symbol>
  <symbol id="symbol1640" overflow="visible">
   <path d="m2.0312-0.015625c0-0.65625-0.25-1.0469-0.64062-1.0469-0.32812 0-0.53125 0.25-0.53125 0.53125 0 0.26562 0.20312 0.53125 0.53125 0.53125 0.10938 0 0.25-0.046875 0.34375-0.125 0.03125-0.03125 0.046875-0.03125 0.046875-0.03125 0.015625 0 0.015625 0 0.015625 0.14062 0 0.75-0.34375 1.3438-0.67188 1.6719-0.10938 0.10938-0.10938 0.125-0.10938 0.15625 0 0.078125 0.046875 0.10938 0.09375 0.10938 0.10938 0 0.92188-0.76562 0.92188-1.9375z"/>
  </symbol>
  <symbol id="symbol481" overflow="visible">
   <path d="m4.8438-3.7969c0.046875-0.14062 0.046875-0.15625 0.046875-0.23438 0-0.17188-0.14062-0.26562-0.29688-0.26562-0.09375 0-0.25 0.0625-0.34375 0.20312-0.015625 0.0625-0.10938 0.35938-0.14062 0.54688-0.078125 0.25-0.14062 0.53125-0.20312 0.79688l-0.45312 1.7969c-0.03125 0.14062-0.46875 0.84375-1.125 0.84375-0.5 0-0.60938-0.4375-0.60938-0.8125 0-0.45312 0.17188-1.0781 0.5-1.9531 0.15625-0.40625 0.20312-0.51562 0.20312-0.71875 0-0.4375-0.3125-0.8125-0.8125-0.8125-0.95312 0-1.3125 1.4531-1.3125 1.5312 0 0.10938 0.09375 0.10938 0.10938 0.10938 0.10938 0 0.10938-0.03125 0.15625-0.1875 0.28125-0.9375 0.67188-1.2344 1.0156-1.2344 0.078125 0 0.25 0 0.25 0.3125 0 0.25-0.10938 0.51562-0.17188 0.70312-0.40625 1.0625-0.57812 1.625-0.57812 2.0938 0 0.89062 0.625 1.1875 1.2188 1.1875 0.39062 0 0.71875-0.17188 1-0.45312-0.125 0.51562-0.25 1.0156-0.64062 1.5469-0.26562 0.32812-0.64062 0.625-1.0938 0.625-0.14062 0-0.59375-0.03125-0.76562-0.42188 0.15625 0 0.29688 0 0.42188-0.125 0.10938-0.078125 0.20312-0.21875 0.20312-0.40625 0-0.3125-0.26562-0.34375-0.35938-0.34375-0.23438 0-0.5625 0.15625-0.5625 0.64062 0 0.5 0.4375 0.875 1.0625 0.875 1.0156 0 2.0469-0.90625 2.3281-2.0312z"/>
  </symbol>
  <symbol id="symbol7383" overflow="visible">
   <path d="m1.3281-0.82812c0.53125-0.57812 0.82812-0.82812 1.1875-1.1406 0 0 0.60938-0.53125 0.96875-0.89062 0.95312-0.92188 1.1719-1.4062 1.1719-1.4531 0-0.09375-0.09375-0.09375-0.10938-0.09375-0.078125 0-0.09375 0.015625-0.15625 0.10938-0.29688 0.48438-0.5 0.64062-0.73438 0.64062-0.25 0-0.35938-0.15625-0.51562-0.32812-0.1875-0.21875-0.35938-0.42188-0.6875-0.42188-0.75 0-1.2031 0.92188-1.2031 1.1406 0 0.046875 0.03125 0.10938 0.10938 0.10938 0.09375 0 0.10938-0.046875 0.14062-0.10938 0.1875-0.46875 0.76562-0.46875 0.84375-0.46875 0.20312 0 0.39062 0.0625 0.625 0.14062 0.40625 0.15625 0.51562 0.15625 0.76562 0.15625-0.35938 0.42188-1.1875 1.1406-1.375 1.2969l-0.90625 0.84375c-0.67188 0.67188-1.0312 1.2344-1.0312 1.3125 0 0.09375 0.10938 0.09375 0.125 0.09375 0.078125 0 0.09375-0.015625 0.15625-0.125 0.23438-0.35938 0.53125-0.625 0.85938-0.625 0.21875 0 0.32812 0.09375 0.57812 0.375 0.15625 0.21875 0.34375 0.375 0.625 0.375 1 0 1.5781-1.2656 1.5781-1.5312 0-0.046875-0.046875-0.10938-0.125-0.10938-0.09375 0-0.10938 0.0625-0.14062 0.14062-0.23438 0.64062-0.875 0.82812-1.2031 0.82812-0.1875 0-0.375-0.0625-0.57812-0.125-0.34375-0.125-0.5-0.17188-0.70312-0.17188-0.015625 0-0.17188 0-0.26562 0.03125z"/>
  </symbol>
  <symbol id="symbol7787" overflow="visible">
   <path d="m3.5938-2.2188c0-0.76562-0.09375-1.3281-0.40625-1.8125-0.21875-0.3125-0.65625-0.59375-1.2031-0.59375-1.625 0-1.625 1.9062-1.625 2.4062s0 2.3594 1.625 2.3594c1.6094 0 1.6094-1.8594 1.6094-2.3594zm-1.6094 2.1562c-0.32812 0-0.75-0.1875-0.89062-0.75-0.09375-0.40625-0.09375-0.98438-0.09375-1.5s0-1.0469 0.09375-1.4219c0.15625-0.54688 0.59375-0.70312 0.89062-0.70312 0.375 0 0.73438 0.23438 0.85938 0.64062 0.10938 0.375 0.125 0.875 0.125 1.4844 0 0.51562 0 1.0312-0.09375 1.4688-0.14062 0.64062-0.60938 0.78125-0.89062 0.78125z"/>
  </symbol>
  <symbol id="symbol3157" overflow="visible">
   <path d="m3.2969 2.3906c0-0.03125 0-0.046875-0.17188-0.21875-1.2344-1.25-1.5625-3.1406-1.5625-4.6719 0-1.7344 0.375-3.4688 1.6094-4.7031 0.125-0.125 0.125-0.14062 0.125-0.17188 0-0.078125-0.03125-0.10938-0.09375-0.10938-0.10938 0-1 0.6875-1.5938 1.9531-0.5 1.0938-0.625 2.2031-0.625 3.0312 0 0.78125 0.10938 1.9844 0.65625 3.125 0.60938 1.2188 1.4531 1.875 1.5625 1.875 0.0625 0 0.09375-0.03125 0.09375-0.10938z"/>
  </symbol>
  <symbol id="symbol4108" overflow="visible">
   <path d="m2.875-2.5c0-0.76562-0.10938-1.9688-0.65625-3.1094-0.59375-1.2188-1.4531-1.875-1.5469-1.875-0.0625 0-0.10938 0.046875-0.10938 0.10938 0 0.03125 0 0.046875 0.1875 0.23438 0.98438 0.98438 1.5469 2.5625 1.5469 4.6406 0 1.7188-0.35938 3.4688-1.5938 4.7188-0.14062 0.125-0.14062 0.14062-0.14062 0.17188 0 0.0625 0.046875 0.10938 0.10938 0.10938 0.09375 0 1-0.6875 1.5781-1.9531 0.51562-1.0938 0.625-2.2031 0.625-3.0469z"/>
  </symbol>
  <symbol id="symbol2154" overflow="visible">
   <path d="m2.2969-3.5c0.0625-0.20312 0.15625-0.59375 0.15625-0.64062 0-0.17188-0.125-0.26562-0.29688-0.26562-0.015625 0-0.29688 0.015625-0.39062 0.35938l-1.4375 5.7656c-0.03125 0.125-0.03125 0.14062-0.03125 0.17188 0 0.14062 0.10938 0.26562 0.28125 0.26562 0.20312 0 0.32812-0.1875 0.34375-0.21875 0.046875-0.078125 0.17188-0.60938 0.54688-2.1406 0.32812 0.26562 0.78125 0.3125 0.96875 0.3125 0.70312 0 1.0938-0.45312 1.3281-0.73438 0.09375 0.45312 0.46875 0.73438 0.90625 0.73438 0.34375 0 0.57812-0.23438 0.73438-0.54688 0.17188-0.35938 0.29688-0.96875 0.29688-0.98438 0-0.10938-0.09375-0.10938-0.125-0.10938-0.09375 0-0.10938 0.046875-0.14062 0.1875-0.15625 0.64062-0.34375 1.2344-0.75 1.2344-0.26562 0-0.29688-0.26562-0.29688-0.45312 0-0.21875 0.10938-0.6875 0.1875-1.0469l0.28125-1.0781c0.03125-0.14062 0.14062-0.51562 0.17188-0.67188 0.046875-0.23438 0.15625-0.60938 0.15625-0.67188 0-0.17188-0.14062-0.26562-0.29688-0.26562-0.046875 0-0.3125 0.015625-0.39062 0.34375l-0.46875 1.875c-0.10938 0.5-0.21875 0.90625-0.25 1.0156-0.015625 0.046875-0.48438 0.95312-1.2969 0.95312-0.5 0-0.73438-0.32812-0.73438-0.875 0-0.28125 0.0625-0.5625 0.14062-0.84375z"/>
  </symbol>
  <symbol id="symbol2725" overflow="visible">
   <path d="m3.3281-3.0156c0.0625-0.25 0.29688-1.1719 0.98438-1.1719 0.046875 0 0.29688 0 0.5 0.125-0.28125 0.0625-0.46875 0.29688-0.46875 0.54688 0 0.15625 0.10938 0.34375 0.375 0.34375 0.21875 0 0.53125-0.17188 0.53125-0.57812 0-0.51562-0.57812-0.65625-0.92188-0.65625-0.57812 0-0.92188 0.53125-1.0469 0.75-0.25-0.65625-0.78125-0.75-1.0781-0.75-1.0312 0-1.6094 1.2812-1.6094 1.5312 0 0.10938 0.10938 0.10938 0.125 0.10938 0.078125 0 0.10938-0.03125 0.125-0.10938 0.34375-1.0625 1-1.3125 1.3438-1.3125 0.1875 0 0.53125 0.09375 0.53125 0.67188 0 0.3125-0.17188 0.96875-0.53125 2.375-0.15625 0.60938-0.51562 1.0312-0.95312 1.0312-0.0625 0-0.28125 0-0.5-0.125 0.25-0.0625 0.46875-0.26562 0.46875-0.54688 0-0.26562-0.21875-0.34375-0.35938-0.34375-0.3125 0-0.54688 0.25-0.54688 0.57812 0 0.45312 0.48438 0.65625 0.92188 0.65625 0.67188 0 1.0312-0.70312 1.0469-0.75 0.125 0.35938 0.48438 0.75 1.0781 0.75 1.0312 0 1.5938-1.2812 1.5938-1.5312 0-0.10938-0.078125-0.10938-0.10938-0.10938-0.09375 0-0.10938 0.046875-0.14062 0.10938-0.32812 1.0781-1 1.3125-1.3125 1.3125-0.39062 0-0.54688-0.3125-0.54688-0.65625 0-0.21875 0.046875-0.4375 0.15625-0.875z"/>
  </symbol>
  <symbol id="symbol5272" overflow="visible">
   <path d="m2.0312-0.015625c0-0.65625-0.25-1.0469-0.64062-1.0469-0.32812 0-0.53125 0.25-0.53125 0.53125 0 0.26562 0.20312 0.53125 0.53125 0.53125 0.10938 0 0.25-0.046875 0.34375-0.125 0.03125-0.03125 0.046875-0.03125 0.046875-0.03125 0.015625 0 0.015625 0 0.015625 0.14062 0 0.75-0.34375 1.3438-0.67188 1.6719-0.10938 0.10938-0.10938 0.125-0.10938 0.15625 0 0.078125 0.046875 0.10938 0.09375 0.10938 0.10938 0 0.92188-0.76562 0.92188-1.9375z"/>
  </symbol>
  <symbol id="symbol6783" overflow="visible">
   <path d="m4.8438-3.7969c0.046875-0.14062 0.046875-0.15625 0.046875-0.23438 0-0.17188-0.14062-0.26562-0.29688-0.26562-0.09375 0-0.25 0.0625-0.34375 0.20312-0.015625 0.0625-0.10938 0.35938-0.14062 0.54688-0.078125 0.25-0.14062 0.53125-0.20312 0.79688l-0.45312 1.7969c-0.03125 0.14062-0.46875 0.84375-1.125 0.84375-0.5 0-0.60938-0.4375-0.60938-0.8125 0-0.45312 0.17188-1.0781 0.5-1.9531 0.15625-0.40625 0.20312-0.51562 0.20312-0.71875 0-0.4375-0.3125-0.8125-0.8125-0.8125-0.95312 0-1.3125 1.4531-1.3125 1.5312 0 0.10938 0.09375 0.10938 0.10938 0.10938 0.10938 0 0.10938-0.03125 0.15625-0.1875 0.28125-0.9375 0.67188-1.2344 1.0156-1.2344 0.078125 0 0.25 0 0.25 0.3125 0 0.25-0.10938 0.51562-0.17188 0.70312-0.40625 1.0625-0.57812 1.625-0.57812 2.0938 0 0.89062 0.625 1.1875 1.2188 1.1875 0.39062 0 0.71875-0.17188 1-0.45312-0.125 0.51562-0.25 1.0156-0.64062 1.5469-0.26562 0.32812-0.64062 0.625-1.0938 0.625-0.14062 0-0.59375-0.03125-0.76562-0.42188 0.15625 0 0.29688 0 0.42188-0.125 0.10938-0.078125 0.20312-0.21875 0.20312-0.40625 0-0.3125-0.26562-0.34375-0.35938-0.34375-0.23438 0-0.5625 0.15625-0.5625 0.64062 0 0.5 0.4375 0.875 1.0625 0.875 1.0156 0 2.0469-0.90625 2.3281-2.0312z"/>
  </symbol>
  <symbol id="symbol6375" overflow="visible">
   <path d="m1.3281-0.82812c0.53125-0.57812 0.82812-0.82812 1.1875-1.1406 0 0 0.60938-0.53125 0.96875-0.89062 0.95312-0.92188 1.1719-1.4062 1.1719-1.4531 0-0.09375-0.09375-0.09375-0.10938-0.09375-0.078125 0-0.09375 0.015625-0.15625 0.10938-0.29688 0.48438-0.5 0.64062-0.73438 0.64062-0.25 0-0.35938-0.15625-0.51562-0.32812-0.1875-0.21875-0.35938-0.42188-0.6875-0.42188-0.75 0-1.2031 0.92188-1.2031 1.1406 0 0.046875 0.03125 0.10938 0.10938 0.10938 0.09375 0 0.10938-0.046875 0.14062-0.10938 0.1875-0.46875 0.76562-0.46875 0.84375-0.46875 0.20312 0 0.39062 0.0625 0.625 0.14062 0.40625 0.15625 0.51562 0.15625 0.76562 0.15625-0.35938 0.42188-1.1875 1.1406-1.375 1.2969l-0.90625 0.84375c-0.67188 0.67188-1.0312 1.2344-1.0312 1.3125 0 0.09375 0.10938 0.09375 0.125 0.09375 0.078125 0 0.09375-0.015625 0.15625-0.125 0.23438-0.35938 0.53125-0.625 0.85938-0.625 0.21875 0 0.32812 0.09375 0.57812 0.375 0.15625 0.21875 0.34375 0.375 0.625 0.375 1 0 1.5781-1.2656 1.5781-1.5312 0-0.046875-0.046875-0.10938-0.125-0.10938-0.09375 0-0.10938 0.0625-0.14062 0.14062-0.23438 0.64062-0.875 0.82812-1.2031 0.82812-0.1875 0-0.375-0.0625-0.57812-0.125-0.34375-0.125-0.5-0.17188-0.70312-0.17188-0.015625 0-0.17188 0-0.26562 0.03125z"/>
  </symbol>
  <symbol id="symbol3434" overflow="visible">
   <path d="m3.2969 2.3906c0-0.03125 0-0.046875-0.17188-0.21875-1.2344-1.25-1.5625-3.1406-1.5625-4.6719 0-1.7344 0.375-3.4688 1.6094-4.7031 0.125-0.125 0.125-0.14062 0.125-0.17188 0-0.078125-0.03125-0.10938-0.09375-0.10938-0.10938 0-1 0.6875-1.5938 1.9531-0.5 1.0938-0.625 2.2031-0.625 3.0312 0 0.78125 0.10938 1.9844 0.65625 3.125 0.60938 1.2188 1.4531 1.875 1.5625 1.875 0.0625 0 0.09375-0.03125 0.09375-0.10938z"/>
  </symbol>
  <symbol id="symbol7239" overflow="visible">
   <path d="m2.875-2.5c0-0.76562-0.10938-1.9688-0.65625-3.1094-0.59375-1.2188-1.4531-1.875-1.5469-1.875-0.0625 0-0.10938 0.046875-0.10938 0.10938 0 0.03125 0 0.046875 0.1875 0.23438 0.98438 0.98438 1.5469 2.5625 1.5469 4.6406 0 1.7188-0.35938 3.4688-1.5938 4.7188-0.14062 0.125-0.14062 0.14062-0.14062 0.17188 0 0.0625 0.046875 0.10938 0.10938 0.10938 0.09375 0 1-0.6875 1.5781-1.9531 0.51562-1.0938 0.625-2.2031 0.625-3.0469z"/>
  </symbol>
 </defs>
 <g transform="translate(-29.381 -32.48)" inkscape:groupmode="layer" inkscape:label="Layer 1">
  <g fill="none" stroke="#000">
   <path d="m31.628 89.915h55.166l17.953-31.095h-57.24l-17.902 31.008z" stroke-width=".26458px" inkscape:export-filename="/home/moshe/notes/math/plane.png" inkscape:export-xdpi="400" inkscape:export-ydpi="400"/>
   <path d="m64.906 73.569v-32.625" marker-end="url(#Arrow1Lend)" stroke-width=".26458" inkscape:export-filename="/home/moshe/notes/math/plane.png" inkscape:export-xdpi="400" inkscape:export-ydpi="400"/>
   <path d="m64.906 73.569 18.769-10.836" marker-end="url(#Arrow1Lend)" stroke-width=".26458px" inkscape:export-filename="/home/moshe/notes/math/plane.png" inkscape:export-xdpi="400" inkscape:export-ydpi="400"/>
  </g>
  <g transform="matrix(.59772 0 0 .54808 -2.9709 -6.9781)" inkscape:export-filename="/home/moshe/notes/math/plane.png" inkscape:export-xdpi="400" inkscape:export-ydpi="400" inkscape:label="">
   <g>
    <use x="91.657997" y="82.301003" width="100%" height="100%" xlink:href="#symbol3242"/>
    <use x="91.926987" y="82.301003" width="100%" height="100%" xlink:href="#symbol2899"/>
    <use x="100.673" y="82.301003" width="100%" height="100%" xlink:href="#symbol2461"/>
    <use x="123.16" y="79.117996" width="100%" height="100%" xlink:href="#symbol3242"/>
    <use x="111.189" y="82.301003" width="100%" height="100%" xlink:href="#symbol8431"/>
    <use x="115.063" y="82.301003" width="100%" height="100%" xlink:href="#symbol5516"/>
    <use x="120.32923" y="82.301003" width="100%" height="100%" xlink:href="#symbol1168"/>
    <use x="124.7606" y="82.301003" width="100%" height="100%" xlink:href="#symbol5341"/>
    <use x="129.03654" y="82.301003" width="100%" height="100%" xlink:href="#symbol1168"/>
    <use x="133.45795" y="82.301003" width="100%" height="100%" xlink:href="#symbol6386"/>
    <use x="137.772" y="82.301003" width="100%" height="100%" xlink:href="#symbol2441"/>
   </g>
  </g>
  <g transform="matrix(1.5058 0 0 1.5058 -91.998 -49.599)" inkscape:export-filename="/home/moshe/notes/math/plane.png" inkscape:export-xdpi="400" inkscape:export-ydpi="400" inkscape:label="">
   <g>
    <use x="91.925003" y="81.962997" width="100%" height="100%" xlink:href="#symbol3794"/>
   </g>
  </g>
  <g transform="matrix(.48105 0 0 .48105 3.1472 44.265)" inkscape:export-filename="/home/moshe/notes/math/plane.png" inkscape:export-xdpi="400" inkscape:export-ydpi="400" inkscape:label="">
   <g>
    <use x="91.925003" y="81.962997" width="100%" height="100%" xlink:href="#symbol438"/>
    <use x="97.928001" y="83.457001" width="100%" height="100%" xlink:href="#symbol7787"/>
    <use x="102.398" y="81.962997" width="100%" height="100%" xlink:href="#symbol3157"/>
    <use x="106.272" y="81.962997" width="100%" height="100%" xlink:href="#symbol6838"/>
    <use x="111.966" y="83.457001" width="100%" height="100%" xlink:href="#symbol7787"/>
    <use x="116.435" y="81.962997" width="100%" height="100%" xlink:href="#symbol1640"/>
    <use x="120.86636" y="81.962997" width="100%" height="100%" xlink:href="#symbol481"/>
    <use x="125.748" y="83.457001" width="100%" height="100%" xlink:href="#symbol7787"/>
    <use x="130.217" y="81.962997" width="100%" height="100%" xlink:href="#symbol1640"/>
    <use x="134.64836" y="81.962997" width="100%" height="100%" xlink:href="#symbol7383"/>
    <use x="139.278" y="83.457001" width="100%" height="100%" xlink:href="#symbol7787"/>
    <use x="143.74699" y="81.962997" width="100%" height="100%" xlink:href="#symbol4108"/>
   </g>
  </g>
  <g transform="matrix(.4587 0 0 .4587 33.032 35.078)" inkscape:export-filename="/home/moshe/notes/math/plane.png" inkscape:export-xdpi="400" inkscape:export-ydpi="400" inkscape:label="">
   <g transform="matrix(1.0553 0 0 1.0553 -7.6986 -.4834)" inkscape:label="">
    <g>
     <use x="91.925003" y="81.962997" width="100%" height="100%" xlink:href="#symbol2154"/>
     <use x="97.928001" y="81.962997" width="100%" height="100%" xlink:href="#symbol3434"/>
     <use x="101.803" y="81.962997" width="100%" height="100%" xlink:href="#symbol2725"/>
     <use x="107.49663" y="81.962997" width="100%" height="100%" xlink:href="#symbol5272"/>
     <use x="111.92799" y="81.962997" width="100%" height="100%" xlink:href="#symbol6783"/>
     <use x="117.16135" y="81.962997" width="100%" height="100%" xlink:href="#symbol5272"/>
     <use x="121.59271" y="81.962997" width="100%" height="100%" xlink:href="#symbol6375"/>
     <use x="126.665" y="81.962997" width="100%" height="100%" xlink:href="#symbol7239"/>
    </g>
   </g>
  </g>
 </g>
</svg>
