<?xml version="1.0" encoding="UTF-8" standalone="no"?>
<!-- Created with Inkscape (http://www.inkscape.org/) -->

<svg
   width="177.99287mm"
   height="10.164124mm"
   viewBox="0 0 177.99287 10.164124"
   version="1.1"
   id="svg20771"
   inkscape:version="1.1 (c4e8f9ed74, 2021-05-24)"
   sodipodi:docname="divider-inkscape.svg"
   xmlns:inkscape="http://www.inkscape.org/namespaces/inkscape"
   xmlns:sodipodi="http://sodipodi.sourceforge.net/DTD/sodipodi-0.dtd"
   xmlns="http://www.w3.org/2000/svg"
   xmlns:svg="http://www.w3.org/2000/svg">
  <sodipodi:namedview
     id="namedview20773"
     pagecolor="#ffffff"
     bordercolor="#666666"
     borderopacity="1.0"
     inkscape:pageshadow="2"
     inkscape:pageopacity="0.0"
     inkscape:pagecheckerboard="false"
     inkscape:document-units="mm"
     showgrid="false"
     inkscape:zoom="1.1965695"
     inkscape:cx="417.86124"
     inkscape:cy="137.05849"
     inkscape:window-width="1920"
     inkscape:window-height="1200"
     inkscape:window-x="0"
     inkscape:window-y="0"
     inkscape:window-maximized="0"
     inkscape:current-layer="layer1"
     fit-margin-top="0"
     fit-margin-left="0"
     fit-margin-right="0"
     fit-margin-bottom="0" />
  <defs
     id="defs20768" />
  <g
     inkscape:label="Layer 1"
     inkscape:groupmode="layer"
     id="layer1"
     transform="translate(-2.1133368,-70.396129)">
    <g
       id="g20943">
      <path
         d="m 102.75615,76.849493 c -1.23613,0.938742 -2.73085,0.08643 -3.605035,-0.602897 -0.914047,-0.720372 -1.997428,-1.153936 -3.116792,-1.192389 -4.010731,-0.137583 -4.477456,4.388203 -4.477456,4.388203 0,0 2.5654,-4.283428 5.599642,-2.79647 0,0 2.115256,0.915106 2.486025,3.660776 0,0 0.667806,-1.296459 -0.154869,-2.535767 0.771525,0.362303 2.039765,0.705203 3.268485,-0.921456"
         style="fill:#1a1a1a;fill-opacity:1;fill-rule:nonzero;stroke:none;stroke-width:0.0352778"
         id="path20052" />
      <path
         d="m 78.627208,76.849493 c 1.236133,0.938742 2.7305,0.08643 3.605036,-0.602897 0.913695,-0.720372 1.997075,-1.153936 3.116792,-1.192389 4.010378,-0.137583 4.477103,4.388203 4.477103,4.388203 0,0 -2.5654,-4.283428 -5.599289,-2.79647 0,0 -2.115608,0.915106 -2.486378,3.660776 0,0 -0.667808,-1.296459 0.15487,-2.535767 -0.771173,0.362303 -2.039762,0.705203 -3.268134,-0.921456"
         style="fill:#1a1a1a;fill-opacity:1;fill-rule:nonzero;stroke:none;stroke-width:0.0352778"
         id="path20054" />
      <path
         d="m 94.45282,74.088654 c -1.417461,-0.272344 -2.709686,1.476375 -3.501672,2.884311 -0.0949,0.170039 -0.182034,0.334787 -0.261409,0.488245 -0.07585,-0.153458 -0.162983,-0.318206 -0.25788,-0.482953 -0.791986,-1.407936 -2.084211,-3.161947 -3.501673,-2.889603 1.106664,-1.7145 2.827162,-0.823383 3.759553,1.969911 0.93592,-2.793294 2.656064,-3.684411 3.763081,-1.969911"
         style="fill:#1a1a1a;fill-opacity:1;fill-rule:nonzero;stroke:none;stroke-width:0.0352778"
         id="path20056" />
      <path
         d="m 90.141523,72.402023 c -0.162631,-0.853722 0.54998,-2.005894 0.54998,-2.005894 0,0 0.712611,1.152172 0.550334,2.005894 -0.121003,0.636059 -0.979312,0.636059 -1.100314,0"
         style="fill:#1a1a1a;fill-opacity:1;fill-rule:nonzero;stroke:none;stroke-width:0.0352778"
         id="path20058" />
      <path
         d="m 102.7872,79.547891 c 8.08707,1.143 16.4592,1.258005 24.58826,0.645583 3.29847,-0.248708 6.58918,-0.650522 9.83967,-1.265414 3.46534,-0.655108 6.7744,-1.673225 10.12508,-2.74955 5.709,-1.833739 11.77008,-3.184525 17.80223,-2.921706 2.05987,0.08961 4.54025,0.262467 6.41314,1.248833 0.30092,0.158751 0.56868,-0.298097 0.26706,-0.456847 -1.44957,-0.763411 -3.25579,-1.007533 -4.85493,-1.183216 -5.17525,-0.569031 -10.48562,0.27693 -15.49153,1.563511 -3.58458,0.921103 -7.03475,2.274711 -10.62638,3.166533 -3.36514,0.836084 -6.79556,1.39947 -10.24149,1.772709 -6.03003,0.653344 -12.11897,0.750005 -18.17476,0.468841 -3.15136,-0.14605 -6.42973,-0.364772 -9.5056,-0.799394 -0.33302,-0.04727 -0.47695,0.462492 -0.14075,0.510117"
         style="fill:#1a1a1a;fill-opacity:1;fill-rule:nonzero;stroke:none;stroke-width:0.0352778"
         id="path20060" />
      <path
         d="m 79.291136,79.055766 c -8.23207,1.163461 -16.930512,1.255183 -25.250777,0.563033 -3.440642,-0.286456 -6.870347,-0.745772 -10.25137,-1.452386 -3.53695,-0.739775 -6.894336,-1.938867 -10.348384,-2.969331 -5.411964,-1.615017 -11.154481,-2.765425 -16.83057,-2.427464 -2.018559,0.119944 -4.381218,0.332317 -6.213299,1.297164 -0.301519,0.15875 -0.03433,0.61595 0.267194,0.456847 1.493238,-0.786694 3.420004,-1.008592 5.067053,-1.159228 5.489752,-0.500591 11.078458,0.513645 16.347547,1.989314 3.517195,0.985309 6.921501,2.281767 10.490554,3.088217 3.246261,0.733425 6.544381,1.227667 9.854495,1.55822 5.964061,0.595136 11.980686,0.658989 17.964151,0.355247 3.017661,-0.153106 6.050492,-0.366183 9.044164,-0.789517 0.335845,-0.04727 0.19297,-0.557389 -0.140758,-0.510116"
         style="fill:#1a1a1a;fill-opacity:1;fill-rule:nonzero;stroke:none;stroke-width:0.0352778"
         id="path20062" />
      <path
         d="m 5.8268523,71.005023 c -0.2739319,1.408995 1.4847007,2.694164 2.9009272,3.481564 0.1711325,0.09419 0.3366558,0.180976 0.490855,0.259998 -0.1541992,0.07549 -0.3197225,0.161925 -0.4854928,0.256116 -1.4160501,0.7874 -3.1802213,2.07257 -2.9062894,3.481565 C 4.102545,77.383952 4.9988123,75.673332 7.8082288,74.746585 4.9988123,73.815957 4.102545,72.105337 5.8268523,71.005023"
         style="fill:#1a1a1a;fill-opacity:1;fill-rule:nonzero;stroke:none;stroke-width:0.0352778"
         id="path20064" />
      <path
         d="m 4.1305203,75.291626 c -0.8586612,0.161573 -2.0171835,-0.547158 -2.0171835,-0.547158 0,0 1.1585223,-0.708378 2.0171835,-0.546806 0.6397978,0.120298 0.6397978,0.973667 0,1.093964"
         style="fill:#1a1a1a;fill-opacity:1;fill-rule:nonzero;stroke:none;stroke-width:0.0352778"
         id="path20066" />
      <path
         d="m 176.39252,71.005023 c 0.27411,1.408995 -1.48484,2.694164 -2.90089,3.481564 -0.1711,0.09419 -0.3369,0.180976 -0.49107,0.259998 0.15417,0.07549 0.31997,0.161925 0.48542,0.256116 1.41641,0.7874 3.18065,2.07257 2.90654,3.481565 1.72438,-1.100314 0.82797,-2.810934 -1.9812,-3.737681 2.80917,-0.930628 3.70558,-2.641248 1.9812,-3.741562"
         style="fill:#1a1a1a;fill-opacity:1;fill-rule:nonzero;stroke:none;stroke-width:0.0352778"
         id="path20068" />
      <path
         d="m 178.08868,75.291626 c 0.85866,0.161573 2.01753,-0.547158 2.01753,-0.547158 0,0 -1.15887,-0.708378 -2.01753,-0.546806 -0.63959,0.120298 -0.63959,0.973667 0,1.093964"
         style="fill:#1a1a1a;fill-opacity:1;fill-rule:nonzero;stroke:none;stroke-width:0.0352778"
         id="path20070" />
    </g>
  </g>
</svg>
