<svg width="177.99mm" height="10.164mm" inkscape:version="1.1 (c4e8f9ed74, 2021-05-24)" sodipodi:docname="drawing.svg" version="1.1" viewBox="0 0 177.99 10.164" xmlns="http://www.w3.org/2000/svg" xmlns:inkscape="http://www.inkscape.org/namespaces/inkscape" xmlns:sodipodi="http://sodipodi.sourceforge.net/DTD/sodipodi-0.dtd">
 <sodipodi:namedview bordercolor="#666666" borderopacity="1.0" fit-margin-bottom="0" fit-margin-left="0" fit-margin-right="0" fit-margin-top="0" inkscape:current-layer="layer1" inkscape:cx="417.86124" inkscape:cy="137.05849" inkscape:document-units="mm" inkscape:pagecheckerboard="false" inkscape:pageopacity="0.0" inkscape:pageshadow="2" inkscape:window-height="1200" inkscape:window-maximized="0" inkscape:window-width="1920" inkscape:window-x="0" inkscape:window-y="0" inkscape:zoom="1.1965695" pagecolor="#ffffff" showgrid="false"/>
 <g transform="translate(-2.1133 -70.396)" inkscape:groupmode="layer" inkscape:label="Layer 1">
  <g fill="#1a1a1a">
   <path d="m102.76 76.849c-1.2361 0.93874-2.7308 0.08643-3.605-0.6029-0.91405-0.72037-1.9974-1.1539-3.1168-1.1924-4.0107-0.13758-4.4775 4.3882-4.4775 4.3882s2.5654-4.2834 5.5996-2.7965c0 0 2.1153 0.91511 2.486 3.6608 0 0 0.66781-1.2965-0.15487-2.5358 0.77152 0.3623 2.0398 0.7052 3.2685-0.92146"/>
   <path d="m78.627 76.849c1.2361 0.93874 2.7305 0.08643 3.605-0.6029 0.9137-0.72037 1.9971-1.1539 3.1168-1.1924 4.0104-0.13758 4.4771 4.3882 4.4771 4.3882s-2.5654-4.2834-5.5993-2.7965c0 0-2.1156 0.91511-2.4864 3.6608 0 0-0.66781-1.2965 0.15487-2.5358-0.77117 0.3623-2.0398 0.7052-3.2681-0.92146"/>
   <path d="m94.453 74.089c-1.4175-0.27234-2.7097 1.4764-3.5017 2.8843-0.0949 0.17004-0.18203 0.33479-0.26141 0.48824-0.07585-0.15346-0.16298-0.31821-0.25788-0.48295-0.79199-1.4079-2.0842-3.1619-3.5017-2.8896 1.1067-1.7145 2.8272-0.82338 3.7596 1.9699 0.93592-2.7933 2.6561-3.6844 3.7631-1.9699"/>
   <path d="m90.142 72.402c-0.16263-0.85372 0.54998-2.0059 0.54998-2.0059s0.71261 1.1522 0.55033 2.0059c-0.121 0.63606-0.97931 0.63606-1.1003 0"/>
   <path d="m102.79 79.548c8.0871 1.143 16.459 1.258 24.588 0.64558 3.2985-0.24871 6.5892-0.65052 9.8397-1.2654 3.4653-0.65511 6.7744-1.6732 10.125-2.7496 5.709-1.8337 11.77-3.1845 17.802-2.9217 2.0599 0.08961 4.5402 0.26247 6.4131 1.2488 0.30092 0.15875 0.56868-0.2981 0.26706-0.45685-1.4496-0.76341-3.2558-1.0075-4.8549-1.1832-5.1752-0.56903-10.486 0.27693-15.492 1.5635-3.5846 0.9211-7.0348 2.2747-10.626 3.1665-3.3651 0.83608-6.7956 1.3995-10.241 1.7727-6.03 0.65334-12.119 0.75-18.175 0.46884-3.1514-0.14605-6.4297-0.36477-9.5056-0.79939-0.33302-0.04727-0.47695 0.46249-0.14075 0.51012"/>
   <path d="m79.291 79.056c-8.2321 1.1635-16.931 1.2552-25.251 0.56303-3.4406-0.28646-6.8703-0.74577-10.251-1.4524-3.537-0.73978-6.8943-1.9389-10.348-2.9693-5.412-1.615-11.154-2.7654-16.831-2.4275-2.0186 0.11994-4.3812 0.33232-6.2133 1.2972-0.30152 0.15875-0.03433 0.61595 0.26719 0.45685 1.4932-0.78669 3.42-1.0086 5.0671-1.1592 5.4898-0.50059 11.078 0.51364 16.348 1.9893 3.5172 0.98531 6.9215 2.2818 10.491 3.0882 3.2463 0.73342 6.5444 1.2277 9.8545 1.5582 5.9641 0.59514 11.981 0.65899 17.964 0.35525 3.0177-0.15311 6.0505-0.36618 9.0442-0.78952 0.33584-0.04727 0.19297-0.55739-0.14076-0.51012"/>
   <path d="m5.8269 71.005c-0.27393 1.409 1.4847 2.6942 2.9009 3.4816 0.17113 0.09419 0.33666 0.18098 0.49086 0.26-0.1542 0.07549-0.31972 0.16192-0.48549 0.25612-1.4161 0.7874-3.1802 2.0726-2.9063 3.4816-1.7243-1.1003-0.82804-2.8109 1.9814-3.7377-2.8094-0.93063-3.7057-2.6412-1.9814-3.7416"/>
   <path d="m4.1305 75.292c-0.85866 0.16157-2.0172-0.54716-2.0172-0.54716s1.1585-0.70838 2.0172-0.54681c0.6398 0.1203 0.6398 0.97367 0 1.094"/>
   <path d="m176.39 71.005c0.27411 1.409-1.4848 2.6942-2.9009 3.4816-0.1711 0.09419-0.3369 0.18098-0.49107 0.26 0.15417 0.07549 0.31997 0.16192 0.48542 0.25612 1.4164 0.7874 3.1806 2.0726 2.9065 3.4816 1.7244-1.1003 0.82797-2.8109-1.9812-3.7377 2.8092-0.93063 3.7056-2.6412 1.9812-3.7416"/>
   <path d="m178.09 75.292c0.85866 0.16157 2.0175-0.54716 2.0175-0.54716s-1.1589-0.70838-2.0175-0.54681c-0.63959 0.1203-0.63959 0.97367 0 1.094"/>
  </g>
 </g>
</svg>
